<svg xmlns="http://www.w3.org/2000/svg" viewBox="0 0 560 360" fill="none"><style>.a{fill:#fff;}.b{fill:#63C1C5;}.c{fill:#01898C;}.d{fill:#00666A;}.e{fill:#043C5E;}.f{fill:#B0D9C8;}.g{fill:#F7A605;}.h{fill:#FFD247;}.i{fill:#FCBC00;}.j{fill:#F49742;}.k{fill:#4C3030;}.l{fill:#212B53;}.m{fill:#11375B;}.n{fill:#F59C42;}.o{fill:#F18813;}</style><rect width="560" height="360" class="a"/><g clip-path="url(#b)"><path d="m106.2 236.7s-1.6-41.8-30.5-52.2c-34.6 39.9 4.7 73.8 4.7 73.8l25.8-21.5z" class="b"/><path d="m75.7 184.5c-0.1 0.1-0.2 0.3-0.4 0.4l14.2 47.3-28-12.7c0 0.3 0 0.7 0 1l28.4 12.8 4.1 13.6 0.8-0.6-8.1-27.2 11.4-13.7c-0.2-0.3-0.3-0.6-0.5-0.9l-11.2 13.6-10-33.4c-0.2-0.1-0.4-0.1-0.5-0.2z" class="a"/><path d="m92.9 231.8s-27.3-31.6-56.1-25.2c-10.2 33.8 25.9 50.9 25.9 50.9l36.5 1.8-6.3-27.5z" class="c"/><path d="m68.9 212.7l-2.3 18.4-29.1-24.6c-0.2 0-0.5 0.1-0.7 0.1 0 0.1-0.1 0.3-0.1 0.4l15.6 13.2-17 2.5c0 0.2 0 0.3 0.1 0.5l0.1 0.4 17.8-2.6 26 22-29.7 5.4c0.3 0.3 0.6 0.5 0.9 0.8l29.8-5.4 18.4 15.6 0.6 0-0.2-0.9-31.5-26.6 2.3-18.6c-0.3-0.2-0.6-0.3-0.9-0.5z" class="d"/><path d="m89.4 251.5s-33.9-8.3-47.3 10.9c18.9 43.9 76.1 23 76.1 23l-28.8-33.9z" class="e"/><path d="m42.1 262.4c0.1 0.2 0.1 0.3 0.2 0.5l46.6 7.6-19.1 17.2c0.3 0.1 0.7 0.2 1 0.3l19.2-17.3 18.2 3-0.9-1.1-35.4-5.8-11.5-15.8c-0.3 0.1-0.6 0.1-1 0.2l11.2 15.4-28.2-4.6c-0.1 0.1-0.2 0.3-0.3 0.4z" class="d"/><path d="m457 134.8s16.6-45 50-49.9c24.7 32.3-7.1 65.2-7.1 65.2l-38.5 16.7-4.4-32.1z" class="c"/><path d="m475 104.4l9.9 18.8 21.3-38.3c0.3 0 0.5-0.1 0.8-0.1 0.1 0.1 0.2 0.3 0.3 0.4l-11.4 20.5 19.3-4.2c0 0.2 0.1 0.4 0.1 0.5l0.1 0.5-20.2 4.4-19 34.1 34.2-6.3c-0.2 0.4-0.4 0.8-0.6 1.2l-34.2 6.3-13.5 24.2-0.7 0.3-0.1-1 23.1-41.4-10-19.1c0.3-0.3 0.5-0.6 0.8-0.9z" class="d"/><path d="m468.7 154.5s33.1-22.6 55.3-7.5c-2.5 54.9-72.5 55.6-72.5 55.6l17.2-48.2z" class="b"/><path d="m524 147.1c0 0.2 0 0.4 0 0.6l-47 27.1 27.5 10.8c-0.3 0.3-0.7 0.5-1 0.8l-27.7-10.8-18.4 10.6 0.5-1.5 35.8-20.6 5.9-21.7c0.4 0 0.8-0.1 1.1-0.1l-5.8 21.1 28.5-16.4c0.2 0.1 0.3 0.2 0.5 0.3z" class="a"/><path d="m85.1 294.9h389.1s11.9-222-38.2-224.9c-34.3-2-52.1 65.9-69.1 99.9-7.9 15.9-30.2 17-39.7 2-11.9-18.7-20.1-56.3-45-56.3-36.4 0-48.3 95.4-68.2 129.5-10.4 17.9-31.6 18.5-42.9 1.1-13.9-21.4-14.2-92.4-52.4-86.4-32.1 5-33.5 135-33.5 135z" class="f"/><path d="m403.3 65.4l-5.4 10.4 0.8 0.4 5.4-10.4-0.8-0.4z" class="c"/><path d="m394.6 59l-0.5 0.7 9.8 6.4 0.5-0.7-9.8-6.4z" class="c"/><path d="m198.1 214l-0.8-0.3c0.4-1.1 1.1-2.7 2-4.8l0.8 0.3c-0.9 2.1-1.6 3.7-2 4.8zm-2.9-1.7c-0.6-1.2-1.3-2.8-2.2-4.7l0.8-0.4c0.9 1.8 1.7 3.4 2.2 4.7l-0.8 0.4zm6.9-7.8l-0.8-0.3c0.6-1.5 1.3-3 2.1-4.7l0.8 0.4c-0.7 1.7-1.4 3.3-2.1 4.7zm-11.4-1.5c-0.7-1.4-1.5-3-2.4-4.6l0.8-0.4c0.9 1.6 1.7 3.1 2.4 4.6l-0.8 0.4zm15.6-8l-0.8-0.4c0.7-1.5 1.4-3.1 2.2-4.7l0.8 0.4c-0.7 1.6-1.5 3.2-2.2 4.7zm-20.5-1.1c-0.8-1.5-1.7-2.9-2.6-4.5l0.7-0.4c0.9 1.5 1.8 3 2.6 4.5l-0.8 0.4zm24.9-8.2l-0.8-0.4c0.7-1.5 1.5-3.1 2.2-4.7l0.8 0.4c-0.8 1.6-1.5 3.1-2.2 4.7zm-30.1-0.7c-0.9-1.4-1.8-2.9-2.7-4.4l0.7-0.5c0.9 1.4 1.8 2.9 2.8 4.4l-0.7 0.4zm34.6-8.6l-0.8-0.4c0.8-1.5 1.5-3.1 2.3-4.6l0.8 0.4c-0.8 1.6-1.6 3.1-2.3 4.6zm-40.2 0c-1-1.4-2-2.9-3-4.2l0.7-0.5c1 1.4 2 2.8 3 4.2l-0.7 0.5zm-6-8.4c-1.1-1.4-2.1-2.7-3.2-4l0.7-0.5c1.1 1.3 2.2 2.6 3.2 4l-0.7 0.5zm50.9-0.8l-0.8-0.4c0.8-1.5 1.6-3 2.4-4.6l0.8 0.4c-0.8 1.5-1.6 3-2.4 4.6zm-57.5-7.1c-1.2-1.3-2.4-2.6-3.5-3.7l0.6-0.6c1.2 1.2 2.4 2.5 3.6 3.8l-0.6 0.6zm62.4-2l-0.8-0.4c0.8-1.5 1.7-3 2.5-4.5l0.8 0.4c-0.9 1.5-1.7 3-2.5 4.5zm-69.6-5.3c-1.3-1.2-2.6-2.3-3.9-3.3l0.5-0.7c1.3 1 2.7 2.1 4 3.3l-0.6 0.6zm74.7-3.7l-0.7-0.4c0.9-1.5 1.7-3 2.6-4.5l0.7 0.4c-0.9 1.5-1.8 3-2.6 4.4zm-82.8-2.5c-1.5-0.9-3-1.8-4.5-2.5l0.4-0.8c1.5 0.7 3 1.6 4.6 2.5l-0.5 0.7zm201.1-3.4c-0.2-0.6-0.8-2.3-1.9-4.8l0.8-0.3c1.1 2.5 1.7 4.2 1.9 4.8l-0.8 0.3zm-210.3-0.9c-1.7-0.5-3.3-0.8-4.9-1l0.1-0.8c1.7 0.2 3.4 0.5 5.1 1l-0.3 0.8zm97.3-2l-0.7-0.4c0.9-1.5 1.8-2.9 2.8-4.4l0.7 0.5c-0.9 1.4-1.8 2.9-2.8 4.4zm115.5-1.6l-0.8-0.3c0.5-1.4 1.1-3 1.8-4.9l0.8 0.3c-0.7 1.8-1.3 3.5-1.8 4.9zm-6.5-4.9c-0.7-1.5-1.5-3.1-2.4-4.6l0.8-0.4c0.8 1.5 1.6 3.1 2.4 4.6l-0.8 0.4zm-103.3-2.2l-0.7-0.5c1-1.4 1.9-2.9 2.9-4.3l0.7 0.5c-1 1.4-2 2.8-2.9 4.3zm113.5-2.6l-0.8-0.3c0.6-1.5 1.2-3.1 1.9-4.8l0.8 0.3c-0.7 1.7-1.3 3.3-1.9 4.8zm-15-4.2c-0.9-1.5-1.8-2.9-2.8-4.3l0.7-0.5c1 1.4 1.9 2.9 2.8 4.4l-0.7 0.5zm-92.5-1.6l-0.7-0.5c1-1.4 2.1-2.8 3.1-4.1l0.7 0.5c-1 1.3-2.1 2.7-3.1 4.1zm111.5-3.7l-0.8-0.3c0.7-1.5 1.4-3.1 2.1-4.7l0.8 0.4c-0.7 1.6-1.4 3.2-2.1 4.7zm-24.8-3.2c-1-1.4-2.1-2.7-3.2-4l0.7-0.6c1.1 1.3 2.2 2.6 3.3 4l-0.7 0.5zm-80.3-1.2l-0.7-0.5c1.1-1.4 2.3-2.7 3.4-3.9l0.6 0.6c-1.1 1.2-2.2 2.6-3.4 3.9zm109.5-5l-0.8-0.4c0.8-1.6 1.6-3.1 2.3-4.6l0.8 0.4c-0.8 1.5-1.6 3-2.3 4.6zm-35.8-1.6c-1.2-1.2-2.5-2.4-3.7-3.5l0.6-0.6c1.3 1.1 2.5 2.3 3.8 3.6l-0.6 0.6zm-66.8-1.1l-0.6-0.6c1.2-1.3 2.5-2.5 3.7-3.6l0.6 0.6c-1.2 1.1-2.5 2.3-3.7 3.6zm59-5.7c-1.4-1-2.8-2-4.2-2.9l0.5-0.7c1.4 0.9 2.9 1.9 4.3 2.9l-0.5 0.7zm48.3-0.8l-0.8-0.4c0.9-1.5 1.7-3.1 2.6-4.5l0.7 0.4c-0.8 1.4-1.7 2.9-2.6 4.5zm-99.7-0.4l-0.5-0.7c1.4-1.1 2.8-2.2 4.2-3.1l0.5 0.7c-1.3 0.9-2.7 1.9-4.1 3zm42.7-4.1c-1.5-0.8-3.1-1.4-4.7-2l0.3-0.8c1.6 0.6 3.2 1.3 4.8 2l-0.4 0.8zm-34.2-1.6l-0.4-0.8c1.6-0.8 3.2-1.5 4.8-2.1l0.3 0.8c-1.5 0.5-3.1 1.2-4.6 2zm24.7-2c-1.6-0.4-3.3-0.8-5-1l0.1-0.8c1.7 0.2 3.4 0.6 5.1 1l-0.2 0.8zm71.8-0.8l-0.7-0.5c1-1.5 1.9-2.9 2.9-4.3l0.7 0.5c-1 1.3-1.9 2.8-2.9 4.3zm-87-0.5l-0.1-0.8c1.8-0.3 3.5-0.3 5.2-0.2l0 0.9c-1.6-0.1-3.3-0.1-5.1 0.2zm93-7.9l-0.7-0.5c1.1-1.4 2.2-2.7 3.3-4l0.6 0.6c-1.1 1.2-2.2 2.5-3.3 3.9zm6.9-7.6l-0.6-0.6c1.3-1.2 2.6-2.4 4-3.4l0.5 0.7c-1.3 1-2.6 2.1-3.9 3.3zm8.1-6.1l-0.4-0.7c1.6-0.9 3.2-1.6 4.7-2.2l0.3 0.8c-1.5 0.5-3.1 1.2-4.6 2.1z" class="c"/><path d="m107.1 282.4h-31.7v13.2h31.7v-13.2z" class="g"/><path d="m151.7 282.4h-25.8v13.2h25.8v-13.2z" class="h"/><path d="m131.9 282.4h-24.7v13.2h24.7v-13.2z" class="i"/><path d="m152.2 296h-77.3v-14.2h77.3v14.2h0zm-76.3-1h75.3v-12.1h-75.3v12.1z" class="j"/><path d="m115.8 269.2h-31.7v13.1h31.7v-13.1z" class="g"/><path d="m160.3 269.2h-25.8v13.1h25.8v-13.1z" class="h"/><path d="m140.5 269.2h-24.7v13.1h24.7v-13.1z" class="i"/><path d="m160.8 282.9h-77.3v-14.2h77.3v14.2h0zm-76.3-1h75.3v-12.1h-75.3v12.1z" class="j"/><path d="m100.8 256.1h-31.7v13.1h31.7v-13.1z" class="g"/><path d="m145.4 256.1h-25.8v13.1h25.8v-13.1z" class="h"/><path d="m125.5 256.1h-24.7v13.1h24.7v-13.1z" class="i"/><path d="m145.9 269.7h-77.3v-14.2h77.3v14.2zm-76.3-1h75.3v-12.1h-75.3v12.1z" class="j"/><path d="m106.3 242.9h-31.7v13.1h31.7v-13.1z" class="g"/><path d="m150.8 242.9h-25.8v13.1h25.8v-13.1z" class="h"/><path d="m131 242.9h-24.7v13.1h24.7v-13.1z" class="i"/><path d="m151.4 256.6h-77.3v-14.2h77.3v14.2h0zm-76.3-1h75.3v-12.1h-75.3v12.1z" class="j"/><path d="m213.8 282.4h-31.7v13.2h31.7v-13.2z" class="g"/><path d="m258.3 282.4h-25.8v13.2h25.8v-13.2z" class="h"/><path d="m238.5 282.4h-24.7v13.2h24.7v-13.2z" class="i"/><path d="m258.8 296h-77.3v-14.2h77.3v14.2zm-76.3-1h75.3v-12.1h-75.3v12.1z" class="j"/><path d="m222.4 269.2h-31.7v13.1h31.7v-13.1z" class="g"/><path d="m266.9 269.2h-25.8v13.1h25.8v-13.1z" class="h"/><path d="m247.1 269.2h-24.7v13.1h24.7v-13.1z" class="i"/><path d="m267.4 282.9h-77.3v-14.2h77.3v14.2zm-76.3-1h75.3v-12.1h-75.3v12.1z" class="j"/><path d="m207.4 256.1h-31.7v13.1h31.7v-13.1z" class="g"/><path d="m252 256.1h-25.8v13.1h25.8v-13.1z" class="h"/><path d="m232.1 256.1h-24.7v13.1h24.7v-13.1z" class="i"/><path d="m252.5 269.7h-77.3v-14.2h77.3v14.2h0zm-76.3-1h75.3v-12.1h-75.3v12.1z" class="j"/><path d="m212.9 242.9h-31.7v13.1h31.7v-13.1z" class="g"/><path d="m257.5 242.9h-25.8v13.1h25.8v-13.1z" class="h"/><path d="m237.6 242.9h-24.7v13.1h24.7v-13.1z" class="i"/><path d="m258 256.6h-77.3v-14.2h77.3v14.2zm-76.3-1h75.3v-12.1h-75.3v12.1z" class="j"/><path d="m219.7 229.8h-31.7v13.1h31.7v-13.1z" class="g"/><path d="m264.3 229.8h-25.8v13.1h25.8v-13.1z" class="h"/><path d="m244.4 229.8h-24.7v13.1h24.7v-13.1z" class="i"/><path d="m264.8 243.4h-77.3v-14.2h77.3v14.2zm-76.3-1h75.3v-12.1h-75.3v12.1z" class="j"/><path d="m213.8 217.7h-31.7v13.1h31.7v-13.1z" class="g"/><path d="m258.3 217.7h-25.8v13.1h25.8v-13.1z" class="h"/><path d="m238.5 217.7h-24.7v13.1h24.7v-13.1z" class="i"/><path d="m258.8 231.4h-77.3v-14.2h77.3v14.2zm-76.3-1h75.3v-12.1h-75.3v12.1z" class="j"/><path d="m222.4 204.6h-31.7v13.1h31.7v-13.1z" class="g"/><path d="m266.9 204.6h-25.8v13.1h25.8v-13.1z" class="h"/><path d="m247.1 204.6h-24.7v13.1h24.7v-13.1z" class="i"/><path d="m267.4 218.2h-77.3v-14.2h77.3v14.2zm-76.3-1h75.3v-12.1h-75.3v12.1z" class="j"/><path d="m321.3 282.4h-31.7v13.2h31.7v-13.2z" class="g"/><path d="m365.9 282.4h-25.8v13.2h25.8v-13.2z" class="h"/><path d="m346.1 282.4h-24.7v13.2h24.7v-13.2z" class="i"/><path d="m366.4 296h-77.3v-14.2h77.3v14.2zm-76.3-1h75.3v-12.1h-75.3v12.1z" class="j"/><path d="m330 269.2h-31.7v13.1h31.7v-13.1z" class="g"/><path d="m374.5 269.2h-25.8v13.1h25.8v-13.1z" class="h"/><path d="m354.7 269.2h-24.7v13.1h24.7v-13.1z" class="i"/><path d="m375 282.9h-77.3v-14.2h77.3v14.2zm-76.3-1h75.3v-12.1h-75.3v12.1z" class="j"/><path d="m315 256.1h-31.7v13.1h31.7v-13.1z" class="g"/><path d="m359.6 256.1h-25.8v13.1h25.8v-13.1z" class="h"/><path d="m339.7 256.1h-24.7v13.1h24.7v-13.1z" class="i"/><path d="m360.1 269.7h-77.3v-14.2h77.3v14.2zm-76.3-1h75.3v-12.1h-75.3v12.1z" class="j"/><path d="m320.5 242.9h-31.7v13.1h31.7v-13.1z" class="g"/><path d="m365 242.9h-25.8v13.1h25.8v-13.1z" class="h"/><path d="m345.2 242.9h-24.7v13.1h24.7v-13.1z" class="i"/><path d="m365.6 256.6h-77.3v-14.2h77.3v14.2zm-76.3-1h75.3v-12.1h-75.3v12.1z" class="j"/><path d="m327.3 229.8h-31.7v13.1h31.7v-13.1z" class="g"/><path d="m371.8 229.8h-25.8v13.1h25.8v-13.1z" class="h"/><path d="m352 229.8h-24.7v13.1h24.7v-13.1z" class="i"/><path d="m372.4 243.4h-77.3v-14.2h77.3v14.2zm-76.3-1h75.3v-12.1h-75.3v12.1z" class="j"/><path d="m321.3 217.7h-31.7v13.1h31.7v-13.1z" class="g"/><path d="m365.9 217.7h-25.8v13.1h25.8v-13.1z" class="h"/><path d="m346.1 217.7h-24.7v13.1h24.7v-13.1z" class="i"/><path d="m366.4 231.4h-77.3v-14.2h77.3v14.2zm-76.3-1h75.3v-12.1h-75.3v12.1z" class="j"/><path d="m330 204.6h-31.7v13.1h31.7v-13.1z" class="g"/><path d="m374.5 204.6h-25.8v13.1h25.8v-13.1z" class="h"/><path d="m354.7 204.6h-24.7v13.1h24.7v-13.1z" class="i"/><path d="m375 218.2h-77.3v-14.2h77.3v14.2zm-76.3-1h75.3v-12.1h-75.3v12.1z" class="j"/><path d="m323.3 191h-31.7v13.1h31.7v-13.1z" class="g"/><path d="m367.9 191h-25.8v13.1h25.8v-13.1z" class="h"/><path d="m348 191h-24.7v13.1h24.7v-13.1z" class="i"/><path d="m368.4 204.7h-77.3v-14.2h77.3v14.2zm-76.3-1h75.3v-12.1h-75.3v12.1z" class="j"/><path d="m331.9 177.8h-31.7v13.1h31.7v-13.1z" class="g"/><path d="m376.5 177.8h-25.8v13.1h25.8v-13.1z" class="h"/><path d="m356.6 177.8h-24.7v13.1h24.7v-13.1z" class="i"/><path d="m377 191.5h-77.3v-14.2h77.3v14.2zm-76.3-1h75.3v-12.1h-75.3v12.1z" class="j"/><path d="m317 164.7h-31.7v13.1h31.7v-13.1z" class="g"/><path d="m361.5 164.7h-25.8v13.1h25.8v-13.1z" class="h"/><path d="m341.7 164.7h-24.7v13.1h24.7v-13.1z" class="i"/><path d="m362.1 178.4h-77.3v-14.2h77.3v14.2zm-76.3-1h75.3v-12.1h-75.3v12.1z" class="j"/><path d="m322.5 151.5h-31.7v13.2h31.7v-13.2z" class="g"/><path d="m367 151.5h-25.8v13.2h25.8v-13.2z" class="h"/><path d="m347.2 151.5h-24.7v13.2h24.7v-13.2z" class="i"/><path d="m367.5 165.2h-77.3v-14.2h77.3v14.2zm-76.3-1h75.3v-12.1h-75.3v12.1z" class="j"/><path d="m433.7 282.4h-31.7v13.2h31.7v-13.2z" class="g"/><path d="m478.2 282.4h-25.8v13.2h25.8v-13.2z" class="h"/><path d="m458.4 282.4h-24.7v13.2h24.7v-13.2z" class="i"/><path d="m478.7 296h-77.3v-14.2h77.3v14.2zm-76.3-1h75.3v-12.1h-75.3v12.1z" class="j"/><path d="m442.3 269.2h-31.7v13.1h31.7v-13.1z" class="g"/><path d="m486.9 269.2h-25.8v13.1h25.8v-13.1z" class="h"/><path d="m467 269.2h-24.7v13.1h24.7v-13.1z" class="i"/><path d="m487.4 282.9h-77.3v-14.2h77.3v14.2zm-76.3-1h75.3v-12.1h-75.3v12.1z" class="j"/><path d="m448.6 256.1h-31.7v13.1h31.7v-13.1z" class="g"/><path d="m493.2 256.1h-25.8v13.1h25.8v-13.1z" class="h"/><path d="m473.3 256.1h-24.7v13.1h24.7v-13.1z" class="i"/><path d="m493.7 269.7h-77.3v-14.2h77.3v14.2zm-76.3-1h75.3v-12.1h-75.3v12.1z" class="j"/><path d="m432.8 242.9h-31.7v13.1h31.7v-13.1z" class="g"/><path d="m477.4 242.9h-25.8v13.1h25.8v-13.1z" class="h"/><path d="m457.5 242.9h-24.7v13.1h24.7v-13.1z" class="i"/><path d="m477.9 256.6h-77.3v-14.2h77.3v14.2zm-76.3-1h75.3v-12.1h-75.3v12.1z" class="j"/><path d="m439.6 229.8h-31.7v13.1h31.7v-13.1z" class="g"/><path d="m484.2 229.8h-25.8v13.1h25.8v-13.1z" class="h"/><path d="m464.3 229.8h-24.7v13.1h24.7v-13.1z" class="i"/><path d="m484.7 243.4h-77.3v-14.2h77.3v14.2zm-76.3-1h75.3v-12.1h-75.3v12.1z" class="j"/><path d="m433.7 217.7h-31.7v13.1h31.7v-13.1z" class="g"/><path d="m478.2 217.7h-25.8v13.1h25.8v-13.1z" class="h"/><path d="m458.4 217.7h-24.7v13.1h24.7v-13.1z" class="i"/><path d="m478.7 231.4h-77.3v-14.2h77.3v14.2zm-76.3-1h75.3v-12.1h-75.3v12.1z" class="j"/><path d="m442.3 204.6h-31.7v13.1h31.7v-13.1z" class="g"/><path d="m486.9 204.6h-25.8v13.1h25.8v-13.1z" class="h"/><path d="m467 204.6h-24.7v13.1h24.7v-13.1z" class="i"/><path d="m487.4 218.2h-77.3v-14.2h77.3v14.2zm-76.3-1h75.3v-12.1h-75.3v12.1z" class="j"/><path d="m435.7 191h-31.7v13.1h31.7v-13.1z" class="g"/><path d="m480.2 191h-25.8v13.1h25.8v-13.1z" class="h"/><path d="m460.4 191h-24.7v13.1h24.7v-13.1z" class="i"/><path d="m480.7 204.7h-77.3v-14.2h77.3v14.2zm-76.3-1h75.3v-12.1h-75.3v12.1z" class="j"/><path d="m444.3 177.8h-31.7v13.1h31.7v-13.1z" class="g"/><path d="m488.8 177.8h-25.8v13.1h25.8v-13.1z" class="h"/><path d="m469 177.8h-24.7v13.1h24.7v-13.1z" class="i"/><path d="m489.3 191.5h-77.3v-14.2h77.3v14.2zm-76.3-1h75.3v-12.1h-75.3v12.1z" class="j"/><path d="m432.6 164.7h-31.7v13.1h31.7v-13.1z" class="g"/><path d="m477.2 164.7h-25.8v13.1h25.8v-13.1z" class="h"/><path d="m457.3 164.7h-24.7v13.1h24.7v-13.1z" class="i"/><path d="m477.7 178.4h-77.3v-14.2h77.3v14.2zm-76.3-1h75.3v-12.1h-75.3v12.1h0z" class="j"/><path d="m434.8 151.5h-31.7v13.2h31.7v-13.2z" class="g"/><path d="m479.3 151.5h-25.8v13.2h25.8v-13.2z" class="h"/><path d="m459.5 151.5h-24.7v13.2h24.7v-13.2z" class="i"/><path d="m479.9 165.2h-77.3v-14.2h77.3v14.2h0zm-76.3-1h75.3v-12.1h-75.3v12.1z" class="j"/><path d="m444.3 137.8h-31.7v13.1h31.7v-13.1z" class="g"/><path d="m488.8 137.8h-25.8v13.1h25.8v-13.1z" class="h"/><path d="m469 137.8h-24.7v13.1h24.7v-13.1z" class="i"/><path d="m489.3 151.5h-77.3v-14.2h77.3v14.2zm-76.3-1h75.3v-12.1h-75.3v12.1z" class="j"/><path d="m429.3 124.7h-31.7v13.1h31.7v-13.1z" class="g"/><path d="m473.9 124.7h-25.8v13.1h25.8v-13.1z" class="h"/><path d="m454 124.7h-24.7v13.1h24.7v-13.1z" class="i"/><path d="m474.4 138.3h-77.3v-14.2h77.3v14.2zm-76.3-1h75.3v-12.1h-75.3v12.1h0z" class="j"/><path d="m434.8 111.5h-31.7v13.2h31.7v-13.2z" class="g"/><path d="m479.3 111.5h-25.8v13.2h25.8v-13.2z" class="h"/><path d="m459.5 111.5h-24.7v13.2h24.7v-13.2z" class="i"/><path d="m479.9 125.2h-77.3v-14.2h77.3v14.2h0zm-76.3-1h75.3v-12.1h-75.3v12.1z" class="j"/><path d="m424.8 302l-41.1-127.7h2.3l41.1 127.7h-2.3z" class="c"/><path d="m403.5 302l-41.1-127.7h2.3l41.1 127.7h-2.3z" class="c"/><path d="m396.6 207.5v1.9l-22 0-0.4-1.9 22.4 0z" class="c"/><path d="m392.1 195.1v1.9l-22 0-0.4-1.9 22.4 0z" class="c"/><path d="m388.3 182.7v1.9l-22 0-0.4-1.9 22.4 0z" class="c"/><path d="m400.7 220v1.9l-22 0-0.4-1.9 22.4 0z" class="c"/><path d="m404.4 232.5v1.9l-22 0-0.4-1.9 22.4 0z" class="c"/><path d="m408.3 245.6l0.9 1.9-22 0-0.4-1.9 21.5 0z" class="c"/><path d="m412.4 258.6l0.9 1.9-22 0-0.4-1.9 21.5 0z" class="c"/><path d="m416.3 271.3l0.9 1.9-22 0-0.4-1.9 21.5 0z" class="c"/><path d="m419.5 284.3l0.9 1.9-22 0-0.4-1.9 21.5 0z" class="c"/><path d="m111.2 229.5l-1.1 5.5-2.9-4.9 1.4-2.3 2.5 1.8z" class="k"/><path d="m117.1 296.8s-1.2 0.6-1 1.7c0.2 1.1 0.5 2.7 0.5 2.7h0.7l0-1.2c0-0.1 0.2-0.2 0.3-0.1l1.4 1c0.3 0.2 0.7 0.4 1.1 0.4h5.7s0-1.8-3.4-2.3c-3.3-0.5-5.4-2.1-5.4-2.1z" class="l"/><path d="m118.8 294.8l0.7 2.1c0.2 0.4 0.5 0.8 0.9 1.1 0.4 0.3 1.1 0.6 2.1 0.9-1.3 1.1-3.2 0-4.4-0.8-0.6-0.4-0.9-1-1.1-1.6l-0.4-1.7h2.2z" class="k"/><path d="m91 295.2s-1.4 0.1-1.6 1.2-0.6 2.7-0.6 2.7l0.7 0.3 0.5-1.1c0.1-0.1 0.3-0.1 0.3 0l0.9 1.1c0.2 0.3 1.4 1.8 1.7 1.9h5.9s-0.2-1.5-3.7-2c-3.3-0.5-4.1-4-4.1-4z" class="l"/><path d="m93.4 294l-0.1 2.2c0 0.5 0.1 0.9 0.4 1.3 0.3 0.4 0.8 1 1.6 1.7-1.6 0.5-3-1.2-3.7-2.4-0.4-0.6-0.5-1.2-0.4-1.9l0.3-1.8 2 0.9z" class="k"/><path d="m112.7 245.3c-0.1 2.5 4.6 10.6 4.6 10.6s-4 3.3-5.3 3.3c-1.2-3.3-2-5-2-5s2.8-11.4 2.7-8.8z" class="a"/><path d="m112.5 229.6c0.5 0 1-0.1 1.2-0.3 1.5-2.3-0.2-8.7-0.2-8.7l-5.3 1-0.2 4.2c0 1.1 0.5 2.2 1.3 2.9 0.9 0.6 2 0.9 3.1 0.9z" class="k"/><path d="m112.4 257.4c3.4 7.2 3.5 21.2 3.5 21.2l3.3 16.3h-2.9s-9.8-20.7-10.6-26.6c-0.7-5.9 1.7-10.6 1.7-10.6l2.9-4.4c0 0 1 1.1 2.2 4.1z" class="l"/><path d="m108.7 261.5s-2 8-7.3 17.3c-3.6 6.1-7.6 15.7-7.6 15.7l-2.7-1.1s1.4-9.2 5.1-16.9c0.8-1.6 1.2-3.3 1.1-5.1-0.1-8.4 2.1-15.5 2.1-15.5l9.3 5.6z" class="m"/><path d="m107.2 230.1s4.6 6.6 6 9.9c0.3 0.7 0.3 1.4 0.2 2.1-2.2 10.4-3.2 18.6-3.5 19.9-6.4-0.2-11.1-6.9-11.1-6.9s1-2 2-4.3c1.4-3.1 2.2-6.4 2.5-9.8 0.3-4.5 1.1-8 1.1-8l2.9-2.9z" class="a"/><path d="m108 218.5s-0.4-2.1-1.6-2.7c-1.5-0.7-4.9-0.5-5.8 4.8-1 5.3 1.7 4.7 1.8 6.9 0.1 2.1-5.2 2.9-5.5 7.1-0.3 4.2 0.9 5.1 0.9 5.1s1.4 2.8 3.9 1.7c0.8-0.9 0.7-2.1 0.9-3s0.6-1.7 1.4-2.2c1-0.7 2.8-1.9 3.1-3.7 0.3-1.7-0.5-3.6-1.2-4.9-0.7-1.3-1.1-2.9-1.1-4.4 0-1.4 0-2.9 0.3-3.5 0.6-1.3 1.4-0.5 1.4-0.5l1.6-0.7z" class="l"/><path d="m113.5 220.7s-1.3-3.5-5.5-1.7c-0.5 0.2-0.5 0.2-1.4 0.9-2.9 4.3 1.4 7 1.4 7l1.7-3.2s1.6 0.2 2.6-0.7c1-0.8 1.3-2.2 1.3-2.2z" class="l"/><path d="m108.6 223.4c0.3-0.3 0.9-0.2 1.2 0.1 0.4 0.4 0.5 0.9 0.2 1.2s-0.9 0.2-1.2-0.1c-0.4-0.4-0.5-0.9-0.2-1.2z" class="k"/><path d="m108.7 218.7l-0.3-0.3c-0.2-0.2-0.6-0.3-0.8-0.1l-0.9 0.7c-0.2 0.1-0.3 0.4-0.1 0.6l0.2 0.2 2-1.1z" class="a"/><path d="m127.3 247.6l-8.2 6.7c-0.2 0.1-0.4 0.1-0.6-0.1l-3.7-4.8c-0.1-0.2-0.1-0.4 0.1-0.6l8-6.3c0.2-0.1 0.4-0.1 0.6 0.1l3.9 4.5c0.1 0.2 0.1 0.5-0.1 0.6z" class="a"/><path d="m126.6 247.7l-7.3 5.9c-0.2 0.1-0.4 0.1-0.5-0.1l-3.3-4.3c-0.1-0.2-0.1-0.4 0.1-0.5l7.1-5.6c0.2-0.1 0.4-0.1 0.5 0l3.5 4c0.2 0.2 0.1 0.4 0 0.5z" class="b"/><path d="m109.6 238.8s0.7-3.2-2.3-3.7c-2.5-0.4-2.8 2.5-2.8 2.5s-1.5 12.4 0.7 13.6c2.1 1.2 15.4 2.1 15.4 2.1l1.6-0.5c0.8-0.3 1.5-0.9 1.9-1.7l0.4-1-3.8 1.5s-12.6-2.3-12.6-3.8c0-1.5 1.6-9 1.6-9z" class="k"/><path d="m125 244.9c0 0.1 0.1 0.1 0.1 0.1 0.1 0 0.1-0.1 0.1-0.1 0-0.1-0.1-0.1-0.1-0.1-0.1 0-0.1 0.1-0.1 0.1z" class="a"/><path d="m219.9 200.7s0.6 0.8 3.4 1.5c0.6 0.2 1.3 0.3 1.3 1.3h-2.8l-2.8-0.5v0.5h-1.5s-0.4-2.5 0.5-2.8c0.8 0 2 0 2 0z" class="l"/><path d="m220 199l-0.1 1.8c-0.6 0.4-1.3 0.4-1.9 0.1l-0.1-0.1v-1.8h2.1z" class="k"/><path d="m205.7 201.1s0.6 0.8 3.4 1.5c0.6 0.2 1.3 0.3 1.3 1.3h-2.8l-2.8-0.5v0.5h-1.5s-0.4-2.5 0.5-2.8c0.8 0 2 0 2 0z" class="l"/><path d="m205.9 199.3l-0.1 1.8c-0.6 0.4-1.3 0.4-1.9 0.1l-0.1-0.1v-1.8h2.1z" class="k"/><path d="m221.1 155l-0.7 44.9h-3.3s-5-36.3-3.9-44.9c1.1-8.6 7.9 0 7.9 0z" class="l"/><path d="m217.7 155s-1.1 13.8-3.8 21.4c-2.6 7.6-7.3 23.5-7.3 23.5h-3.4s5.7-33.1 4.4-44.9h10.1z" class="m"/><path d="m220.6 132.2s4 9.4 5.1 9.4c0.8 0-0.3-7.7-0.3-7.7h3.4s4.3 13.2 0.9 15.6c-3.4 2.4-10.8-6.8-10.8-6.8l1.8-10.5z" class="d"/><path d="m208.6 156.2l1.2 3c0.6 1.2 2.8 1.2 4.2 0.8 0.2-0.1 0.3-0.3 0.1-0.5-0.8-0.9-2.8-3.1-3.5-3.6l-2 0.2z" class="k"/><path d="m218.8 130.2s2.1 1.4 2.1 3.1v21.7h-12.3v-20.3s0.3-4.5 4.7-4.5c4.4 0 5.6 0 5.6 0z" class="d"/><path d="m220.7 155v-19.5l0.4 0v19.5h-0.4z" class="c"/><path d="m214.4 125.4v5.1s0.9 1.2 2.4 1.2c1.5 0 1.5-1.1 1.5-1.1v-3.3l-2.3-0.6-1.7-1.3z" class="k"/><path d="m218.5 128.2c0.5 0 0.9-0.1 1.1-0.3 1.4-2.2-0.2-8-0.2-8l-5 0.9-0.2 3.9c0 1.1 0.4 2.1 1.2 2.7 0.9 0.5 1.9 0.8 2.9 0.8z" class="k"/><path d="m216.8 120.9s1.6 0.3 3.4 0c1.7-0.3 0.6-2.2 0.6-2.2s-1.3 0.6-3.6 0.2c-1.5-0.2-2-0.5-2.9 0-1.3 0.7-1 3.1-1 3.1l0.7 5.1h0.3s0.1-3 0.1-4.1c0.3-0.5 0.6-0.5 0.8-0.4 0.3 0.1 0.4 0.4 0.4 0.7v5.3s3.4 1.5 4.3 1.2c0.9-0.3 0.3-4.2 0.3-4.2s-1-0.4-1.8 0.4c-0.8 0.9-1.7 0-1.7 0l0.1-5.3z" class="l"/><path d="m228.1 133.9l-0.1-0.6c-0.3-1.4-1.6-3.2-3-3.7h-1.4l0.4 3.1 2 1.3h2.1v0z" class="k"/><path d="m214.8 122.6c0.4 0 0.7 0.3 0.8 0.8 0.1 0.5-0.2 0.9-0.6 0.9-0.4 0-0.7-0.3-0.8-0.8-0.1-0.5 0.2-0.9 0.6-0.9z" class="k"/><path d="m224.6 132.3l2.8 1.6s-1.7 0-1.8 0l-3-2.5s0.2-0.4 0.9-0.1c0.7 0.4 1.1 0.9 1.1 0.9z" class="k"/><path d="m209.9 131.5s-7 7.7-7 12.4c0 4.6 5.7 12.8 5.7 12.8l2.8-0.8s-2.5-10.1-2.5-12.8c0-2.7 5.2-6.6 5.2-6.6" class="d"/><path d="m209.1 143.1c0 2.3 2.1 10.8 2.5 12.8-0.1 0-0.2 0-0.4 0.1-0.6-2.4-2.5-10.6-2.5-12.9 0-2.8 5.1-6.6 5.3-6.8l0.2 0.3c0 0-5.1 3.9-5.1 6.5z" class="c"/><path d="m222.7 127.2s-0.6 3 1.3 5.4c0.1 0.1 0.3 0.3 0.5 0.3 0.4 0.1 0.7-0.1 1-0.2 0.3-0.1 0.5-0.3 0.6-0.4 0.1-0.1 0-0.3 0-0.4-0.4-0.6-1.5-2.5-1-4.2-1-0.8-2.3-0.5-2.3-0.5z" class="n"/><path d="m225.7 132.6c0.2-0.1 0.3-0.2 0.3-0.3 0.1-0.1 0-0.3 0-0.4-0.4-0.6-1.5-2.5-1-4.2-0.4-0.3-0.7-0.4-1.1-0.5-0.1 1.9 0.3 3.1 1.8 5.4z" fill="#FAB746"/><path d="m224.4 129.7c0.1 0.4 0.3 0.8 0.5 0.7 0.2 0 0.2-0.4 0.1-0.8s-0.3-0.8-0.5-0.7c-0.2 0-0.2 0.4-0.1 0.8z" class="n"/><path d="m224.5 128.9l0.2 0 0 0.1-0.1 0 0-0.1z" class="n"/><path d="m224.8 130.4l0.2 0-0.2 0 0 0.1z" fill="#E8375E"/><path d="m224.5 129.6c0.1 0.4 0.3 0.8 0.5 0.7 0.2 0 0.2-0.4 0.1-0.8s-0.3-0.8-0.5-0.7c-0.2 0-0.2 0.4-0.1 0.8z" class="h"/><path d="m222 124.7h-0.3c-0.6 0-1.2 0.5-1.2 1.1v0.9c0 0.6 0.5 1.1 1.2 1.1h0.3v-3.1z" class="h"/><path d="m232.1 125.5c0 2.4-0.5 4.3-1.2 4.3-0.7 0-1.2-1.9-1.2-4.3 0-2.4 0.5-4.3 1.2-4.3 0.7 0 1.2 1.9 1.2 4.3z" class="l"/><path d="m229.6 123.9l1 0.6v1.4l-1 0.9-0.3-1.8 0.4-1.1z" class="a"/><path d="m229.6 125.5c0-2 0.4-3.7 0.9-4.2-4 2.9-8.8 3.3-8.8 3.3v3s6.4-0.4 8.8 2c-0.5-0.5-0.9-2.2-0.9-4.2z" class="g"/><path d="m230.7 125.3c0 0.4-0.1 0.7-0.1 0.7-0.1 0-0.1-0.3-0.1-0.7s0.1-0.7 0.1-0.7c0.1 0 0.1 0.3 0.1 0.7z" class="h"/><path d="m226.6 131.7c-0.1 0-0.4 0.3-1.6 0.3-0.8 0-1.2-1-1.3-1.5 0-0.2-0.1-0.5 0.1-0.6l1.3-0.2 1.4 2.1z" class="k"/><path d="m442.5 139.9l-0.4 2.3c0.7 0.5 1.7 0.5 2.4 0.1l0.1-0.1 0.6-2.3h-2.7z" class="k"/><path d="m460.9 86.8c-2 6.7-8.9 17-8.9 17l5.4-2.2 3.8-8.8s1.7-12.7-0.3-6z" class="f"/><path d="m446.2 113.8l-4.3 26.3h3.8s8.5-23.6 9.4-30.6c0-3.9-8.6 0-8.6 0l-0.3 4.3z" class="l"/><path d="m460.3 76.2l1.4 3.7 3.1-2.2-2.1-4.3-2.4 2.9z" class="k"/><path d="m459.1 76.8c-0.5 0.1-0.9 0.1-1.2 0-1.8-1.7-1.3-7.3-1.3-7.3l2-1.4 3.1 1.1 0.9 3.5c0.2 0.9 0 2-0.7 2.7-0.8 0.7-1.7 1.2-2.8 1.3z" class="k"/><path d="m461.2 70.4c-0.3-0.6-0.9-0.8-1.5-0.6-0.4 0.2-0.9 0.3-1.5 0.4-1.2 0.3-3.5 0.2-3.9-1.6-0.4-1.9 2-1.7 2-1.7l3.2 0.2c1 0.1 1.9-0.1 2.8-0.5 0.8-0.3 1.5 0.4 1.6 0.9 0.4 1.1 0 2.9-0.3 4-0.2 0.7-0.5 1.3-0.9 1.9l-1.5-3z" class="l"/><path d="m463 71.2c-0.3-0.2-0.8 0-1.1 0.3-0.3 0.4-0.3 0.8 0 1 0.3 0.2 0.8 0 1.1-0.3 0.3-0.4 0.3-0.8 0-1z" class="k"/><path d="m442 141.9s0 2.4-4.9 3.9c-1 0.3-0.7 0.6-0.9 1h5.6l2.2-2.5 0.7 0.6 1.6-1.6s-0.3-2.3-1.5-2.3c-1 0.3-2.9 0.8-2.9 0.8z" class="l"/><path d="m456 139.1l0.9 2.1c0.8 0.2 1.7 0 2.3-0.7l0.1-0.1-0.7-2.2-2.6 0.9z" class="k"/><path d="m461 78.8s-0.4-0.6 3.1-2.4c5.2 5.2 6.9 25.2 6.9 25.2h-13.7c-0.5-11.4 3.6-22.8 3.6-22.8z" class="b"/><path d="m447.5 101.1c-0.1-0.3 0.1-0.5 0.3-0.7l2.2-1.3c0.5-0.3 1.2-0.4 1.8-0.3l2.4 0.1 0.3 0.4 0.5 2.1c-0.5-0.1-0.8-0.2-0.8-0.2l-1.5 0s-2.9 2.7-4.3 0.4c-0.1 2.5-0.8 2.3-0.8 2.3l-0.2-2.9z" class="k"/><path d="m471 101.6l0.2 1.7c0 0 0 0 0 0.1 0.4 3.2-1.8 6.2-4.9 7.1 0 0-6.2 2.1-14.1 2.5 5.2 6.6 6.6 25.2 6.6 25.2l-3.3 1.2-12.8-30.5c-0.8-1.9 0.3-4.2 2.4-4.6l12.2-2.6h13.7v0z" class="e"/><path d="m462.5 85.4s2.5 2.3 4 4.7c0.4 0.7 0.4 1.5-0.2 2.1-2.8 3.3-13 6.4-13 6.4l0.7 3.7s14.4-2.8 19.5-7.9c5.2-5.2-8.3-16.2-8.3-16.2" class="b"/><path d="m466.4 90.2c0.4 0.6 0.3 1.3-0.1 1.9-1.3 1.5-4.8 3.1-7.8 4.2 0 0.2 0 0.2 0 0.4 3.2-1.2 6.7-2.8 8.1-4.4 0.6-0.7 0.6-1.6 0.2-2.4-1.5-2.4-4-4.7-4.1-4.8l-0.3 0.3c0 0 2.5 2.3 4 4.7z" class="c"/><path d="m470.5 96.4c-5.5 3-13.6 5.1-16.5 5.7 0 0.2 0.1 0.3 0.1 0.4 2.8-0.6 10.8-2.6 16.5-5.6 0-0.2 0-0.3-0.1-0.5z" class="c"/><path d="m442.2 105.6l-4.3-15.2 0.8-0.2 4.1 14.5 12.2-2.1 0.1 0.8-12.9 2.2z" class="c"/><path d="m456.7 140.8s0.2 2.5-4.7 3.9c-1 0.3-0.7 0.6-0.9 1h5.6l2.2-2.5 0.7 0.6 1.6-1.6s-0.7-2.3-2-2.3c-1 0.3-2.6 0.8-2.6 0.8z" class="l"/><path d="m345.8 166.8l1.7 4.4c0.1 0.6 0.2 1.4-0.5 1.7 0 0-0.4 0.2-0.9 0.4-0.3-0.1-2.2-6-2.2-6l0 0c0.8-1 1.9-0.5 1.9-0.5z" class="c"/><path d="m346.1 173.3l-2.2-6-0.3 0.2 2.3 6 0.3-0.1z" class="l"/><path d="m346.4 168.5l0.1 0.4-0.8 0.1-0.1-0.4 0.8-0.2z" class="a"/><path d="m346.8 169.4l0.1 0.4-0.8 0.1-0.1-0.4 0.8-0.2z" class="a"/><path d="m347.6 165.7l-1.9 1c-0.1 0.5 0 0.9 0.4 1.2l0.1 0 2.1-0.5-0.7-1.8z" class="k"/><path d="m362.5 137.8s-1.8 2-2.3 5.5c-0.3 2.3 0.6 6 0.6 8.9 0.1 2.6-1.1 4.7-3.2 6.4l-10 7.2 0.7 1.8s13.6-2 17.2-8.1c3.6-6.1 4.4-19.9 4.4-19.9l-7.5-1.7z" class="l"/><path d="m354.5 130.3l-5.1 11.4s-2.1 0.2-3 1.1c-0.5 0.4-0.5 1.3-0.3 2 0.1 0.5 0.7 0.8 1.2 0.4 0.6-0.5 1.3-1 1.8-1.1 1.3-0.2 1.6-1.1 1.6-1.1l7.4-11.5-3.5-1.1z" class="k"/><path d="m380.4 107.3l2.6-2.2-2-11.1-3.2-1.6s0.3-0.6 1.1-0.4 1.4 0.1 1.4 0.1 0.6-0.7-0.5-1.2c-0.6-0.4-1 0-2.9-0.1 0-0.3 2.4-0.9 2.4-0.9 0.8-0.2 2.7 1.2 2.7 1.2 0.1 0.2 0.2 0.4 0.2 0.6l0.3 2.1s4.1 11.2 4.1 12.3c0 1.2-2.3 2.8-2.3 2.8l-4-1.6z" class="k"/><path d="m366.3 139s-1.6 1.9-0.6 6.3c0.6 2.8 3.3 6.4 5 8.8 1.3 1.8 1.3 4 0.9 6.1-1.5 8.1 0.9 18 0.9 18h1.9s2.8-14.5 3.7-24.7c0.8-9.2-3.2-16-3.3-16.1l-8.5 1.6z" class="e"/><path d="m377 90.4l-0.2 1.6 6 0.9 0.2-1.6-6-0.9z" class="g"/><path d="m382.8 91.2l-0.2 1.6 0.5 0.1 0.2-1.6-0.5-0.1z" class="a"/><path d="m383 92.8c0.4 0.1 0.8 0 0.9-0.7 0.1-0.8-0.2-0.8-0.7-0.9l-0.2 1.6z" class="l"/><path d="m376.8 91.9l-1.2-0.7 0.1-0.6 1.3-0.3-0.2 1.6z" class="a"/><path d="m375.6 91.2l-0.5-0.4 0.6-0.2-0.1 0.6z" class="e"/><path d="m376.9 91.3l-0.1 0.4 5.8 0.8 0.1-0.4-5.8-0.8z" class="o"/><path d="m377 90.6l-0.1 0.4 5.8 0.8 0.1-0.4-5.8-0.8z" class="o"/><path d="m361.6 116.5c-3.4 2.5-7.4 14.4-7.4 14.4l3 1.7 4.8-6.6s0.5 7.7-0.7 13.6c0.5 2.2 3 2 7.1 1.2 4.1-0.8 6.7-2.5 6.7-2.5s0.2-10.7 0.7-16.3c0.5-5.7-0.5-6.3 0.9-6.1 3.2-1.8 8.4-7.6 8.4-7.6l-4.8-0.9-10.4 6.1c0 0-5.1 1.3-8.3 3.1z" class="h"/><path d="m367.5 102.4l2.5 2.5c1.1 1.1 1.5 2.6 1.2 4l-0.3 1.3-3.4-7.9z" class="k"/><path d="m364.5 101.4c-6.1 0-3.5 11.7-3.5 11.7s1.1 7.6 3.5 10.6c2.1 2.6 6.2 1.8 8.2 0.6 1-0.6 2-1 3.2-1.2 1.7-0.2 3.6-0.9 3.6-3.9 0-2.8-3.4-5-5.6-6.6-1.4-1-2.5-2.5-2.9-4.2-0.7-2.9-2.5-7-6.6-7z" class="l"/><path d="m372.8 180.3l4.7 0c0.6 0.1 1.3 0.3 1.4 1.1 0 0 0.1 0.5 0.1 1-0.2 0.3-6.5 0-6.5 0l0 0c-0.7-1.1 0.2-1.9 0.2-1.9z" class="c"/><path d="m379.1 182.3l-6.4 0 0 0.3h6.4l0-0.3z" class="e"/><path d="m374.7 180.3l0.4 0-0.1 0.8h-0.4l0.1-0.8z" class="a"/><path d="m375.6 180.3l0.4 0-0.1 0.8h-0.4l0.1-0.8z" class="a"/><path d="m372.5 178.2l0.3 2.1c0.4 0.3 0.9 0.3 1.3 0l0.1 0 0.2-2.1h-1.9v0z" class="k"/><path d="m378.9 92c-0.8-0.3-1.1 0.4-1.1 0.4l2.1 1.1c0 0 0.1 0 0.1 0 0.3-0.1 1.1-0.4 1.4-0.5-0.2-0.2-2.1-0.7-2.5-0.9z" class="k"/><path d="m285.9 298.9l7 0c0.9 0.1 2 0.4 2.1 1.2 0 0 0.1 0.5 0.1 1.1-0.2 0.3-9.5 0-9.5 0l0 0c-1-1.2 0.3-2.1 0.3-2.1z" class="m"/><path d="m295.1 301.2l-9.5 0 0.1 0.4h9.4l0-0.3z" class="l"/><path d="m288.6 298.9l0.6 0-0.2 0.9h-0.6l0.2-0.9z" class="a"/><path d="m290 298.9l0.6 0-0.2 0.9h-0.6l0.2-0.9z" class="a"/><path d="m285.4 296.6l0.5 2.3c0.6 0.3 1.3 0.3 1.9 0l0.1 0 0.3-2.3h-2.8v0z" class="k"/><path d="m269.5 298.9l7 0c0.9 0.1 2 0.4 2.1 1.2 0 0 0.1 0.5 0.1 1.1-0.2 0.3-9.5 0-9.5 0l0 0c-1-1.2 0.3-2.1 0.3-2.1z" class="l"/><path d="m278.7 301.2l-9.5 0 0.1 0.4h9.5l0-0.3z" class="l"/><path d="m272.3 298.9l0.6 0-0.2 0.9h-0.6l0.2-0.9z" class="a"/><path d="m273.6 298.9l0.6 0-0.2 0.9h-0.6l0.2-0.9z" class="a"/><path d="m269.8 296.6l-0.3 2.3c0.6 0.3 1.3 0.3 1.9 0l0.1 0 1.1-2.3h-2.8v0z" class="k"/><path d="m280.3 218.4l-5.8 3.8 1.8 4.5c0 0.1 0.1 0.1 0.1 0.2 0.1 0 0.3 0 0.4 0h0.1 0.1c1.5 0 2.9 0.9 3.7 2.2 0.9-0.1 1.9-0.3 2.7-0.7 0.6-0.3 1.1-0.6 1.3-1 0.6-3.2-4.3-9-4.3-9z" class="k"/><path d="m287.6 219.5s0.7 6.7-0.7 10.9c0.7 0.6 3.1 3.2 3.8-0.2 0.8-3.4-0.9-11.9-0.9-11.9l-2.3 1.2z" class="k"/><path d="m284.1 219.1l-1.3 0.9 0.5 1 1.5-0.6-0.6-1.2z" class="l"/><path d="m283.3 220.3c0.1 0.3 0.1 0.6 0 0.7-0.1 0.1-0.3-0.2-0.5-0.5-0.1-0.3-0.1-0.6 0-0.7 0.1-0.1 0.3 0.1 0.5 0.5z" class="l"/><path d="m300.5 214.1c0 0 0 0 0 0-0.3-0.6-0.7-1.5-1.3-2.4-1-1.4-1.3-2.1-1.3-2.1l-14 9.2 0.9 1.7 15.6-5.8c0-0.2 0-0.4 0-0.6z" class="e"/><path d="m279 229l-0.5 3.1h4.5l0.3-3.8-4.3 0.7z" class="k"/><path d="m290.5 236.8s5.3-1.7 6.9-3.9c1.6-2.2-1.1-14.6-1.1-14.6l0.4-2.2c0.2-1.3-0.8-2.4-2-2.4l-1.4 0c-0.6 0-1 0.6-0.7 1.1l1.8 4.2s1.4 9.3-0.6 10c-2.3 0.8-4.9 1-4.9 1l1.7 6.8z" class="k"/><path d="m280.6 229l-1.3-3 0.9-0.5c0.6-0.4 0.9-1.2 0.7-1.9l-1-2.8s2.7-0.3 2.7-2.9c0-1.3-1.8-1.3-1.8-1.3s-0.5 1.2-2.2 1.3c-0.7-0.1-2.7 0.2-4 2.5-0.9 1.6-0.5 4 0.3 5.9 0.7 1.7 2.5 2.6 4.3 2.8h1.6v0z" class="m"/><path d="m275.3 254.2s0.3 6.4 1.7 13.3c0.4 2 0.3 4.2-0.4 6.1-3.1 9.3-7.5 23.3-7.5 23.3h3.9s8.9-16.6 11.2-24.8c2.3-8.2 2.7-10.8 2.7-10.8l-2.7-7.2h-8.7z" class="l"/><path d="m278.5 224.7c-0.2 0.5 0.2 1.1 0.7 1.4 0.6 0.3 1.2 0.2 1.3-0.3 0.2-0.5-0.2-1.1-0.7-1.4-0.6-0.3-1.1-0.2-1.3 0.3z" class="k"/><path d="m288 254.2h-12.8v-16.4c0-3.6 2.7-6.6 6.3-6.9l8.9-1.1s1 1.6 4 5.3c-3.5 2.2-7.5 3.2-7.5 3.2l1.2 15.9z" class="a"/><path d="m275.3 254.2s1.8 6.5 8.5 13.8c1.1 1.1 2.7 3.4 2.5 6.6l-1.4 22.3h4s4.8-18.5 3.8-27.6-4.6-15.1-4.6-15.1h-12.8z" class="e"/><path d="m298.3 212.6c0.7 1.4 1.6 2.4 2.1 2.2 0.5-0.2 0.3-1.6-0.4-3s-1.6-2.4-2.1-2.2c-0.5 0.2-0.3 1.6 0.4 3z" class="b"/><path d="m287 216.8l0.1 0.1c0.4 0.2 0.9 0.2 1.3 0.1l0.1 0c0.7-0.2 1.3-0.8 1.5-1.5 0.1-0.3-0.2-0.6-0.5-0.6l-0.9 0.2c-0.3 0.1-0.6 0.3-0.8 0.6l-0.8 1.2z" class="k"/><path d="m514.2 298.6h0.9c-1.6-10.6-3.2-21.3-4.7-31.7-1-7-2.1-14.2-3.1-21.3l-0.9 0.1c1.1 7.1 2.1 14.4 3.1 21.3 1.5 10.3 3.1 21 4.6 31.6z" class="l"/><path d="m489.1 298.6h0.9c-1.6-10.6-3.2-21.3-4.7-31.7-1-7-2.1-14.2-3.1-21.3l-0.9 0.1c1.1 7.1 2.1 14.4 3.1 21.3 1.5 10.3 3.1 21 4.6 31.6z" class="l"/><path d="m514.3 266.1c-7.3-15-7.3-44.3-7.3-44.3l-6.9 44.3h14.2z" fill="#E4CDE5"/><path d="m467.2 300.4c2.7-17.2 5-33.8 7.5-51.3l0.8-1.9-0.8-0.1-0.8 1.9c-2.5 17.6-4.9 34.2-7.6 51.4h0.9z" class="l"/><path d="m494.9 300.4c1.6-10.7 3.2-21.5 4.7-31.9 1-7 2.1-14.2 3.1-21.3l-0.9-0.1c-1.1 7.1-2.1 14.4-3.1 21.3-1.5 10.5-3.1 21.3-4.7 32h0.9z" class="l"/><path d="m510.3 266.9l-5.1-33.7-6.8 31.3 0.9 2.4h11.1z" class="l"/><path d="m475.6 220c6.7-1.1 31.4 0.5 31.4 0.5s0.7 33.8-7.2 45.1c-8.1 0-33.2 0-33.2 0s10-21.7 9-45.6z" fill="url(#a)"/><path d="m467.5 265.6l1.2 2.1 30.9 0 0.4-2.1h-32.5z" class="l"/><path d="m475.7 219.3l0.3 2.1 30.9 0 0.1-2.1h-31.4z" class="l"/><path d="m504.7 220.3c0 0.8 0.7 1.5 1.5 1.5s1.5-0.7 1.5-1.5-0.7-1.5-1.5-1.5c-0.8 0-1.5 0.7-1.5 1.5z" class="l"/><path d="m474.1 220.3c0 0.8 0.7 1.5 1.5 1.5s1.5-0.7 1.5-1.5-0.7-1.5-1.5-1.5-1.5 0.7-1.5 1.5z" class="l"/><path d="m480.8 256.5h-3.9l0.2-13.2h4.2l-0.5 13.2z" class="b"/><path d="m487.4 256.5h-4.3l-0.6-19.8h4.9v19.8z" class="c"/><path d="m493.4 240.3h-4.3v16.3h4.3v-16.3z" fill="#EB5768"/><path d="m493.4 256.5h-4.3v-16.3h4.7l-0.5 16.3z" class="b"/><path d="m499.4 256.5h-4.3v-25.7h5.5l-1.2 25.7z" class="h"/><path d="m520.9 295.9s0.9 0.5 0.9 1.3c0 0.8 0.1 2.7 0.1 2.7l-0.8 0.1-0.3-1.7c0-0.1-1.5 1.8-2.5 2.8l-3.6 0.1s-0.5-1.1 2-2c2.5-0.8 4.2-3.4 4.2-3.4z" class="d"/><path d="m517.9 281.5c0-0.6-0.1-1.6-0.2-2.2-0.4-2.1-1.3-3.7-1.8-4.5-0.9-0.3-1.7-0.7-2.6-1.1-0.9-0.4-2-0.6-3.2-0.9 0 0.1 0.1 0.2 0.1 0.4 5.3 14 8.3 20.3 8.7 21.9 0.1 0.2 0.1 0.5 0.1 0.7-0.1 0.7-0.4 2.3-2.5 3.8 2.3 0.6 4.4-3.5 4.4-3.5s-2.8-9.7-3-14.5z" class="k"/><path d="m507 224.8l0.2 3.8 3.7-0.8-0.4-5.2-3.5 2.1z" class="k"/><path d="m506.1 224.9c-0.5 0-1-0.1-1.3-0.3-1.6-2.5 0.2-9.2 0.2-9.2l5.7 1 0.2 4.5c0 1.2-0.5 2.4-1.4 3.1-1 0.6-2.2 1-3.4 0.9z" class="k"/><path d="m509.8 297.2s0.8 0.6 0.6 1.4c-0.1 0.8-0.3 2.6-0.3 2.6h-0.8l0-1.7c0-0.1-1.7 1.7-2 1.7h-4.3s-0.3-1.2 2.2-1.5c2.5-0.4 4.5-2.5 4.5-2.5z" class="d"/><path d="m511.9 282.8c0.2-0.6 0.5-1.5 0.6-2.1 0.3-2.1 0.4-5.1 0.2-6-0.7-0.6-1.7-0.1-2.4-0.8-0.8-0.7-1.6-1.3-2.7-2v0.4c0.1 15 0.7 22 0.6 23.5 0 0.2-0.7 3.3-3.2 4 1.9 1.3 4.8-2.5 4.8-2.5s0.6-9.9 2.2-14.4z" class="k"/><path d="m507.2 228l-3.6 5.8c-0.4 0.9-0.6 2-0.3 3l2.3 10c0.1 0.6 0.2 1.2 0.2 1.8l0.5 26.1h11.4s-1.4-5.1-2.2-11.8 1.4-9.5 0.8-12.4c-0.3-1.7-1.4-3.9-2.8-5.7-0.8-0.9-1.2-2.1-1.2-3.3-0.1-4.9 5-18.6 0.1-15.2-4.9 3.3-5.3 1.9-5.3 1.9z" class="d"/><path d="m507 242.7l-0.3 1c-0.1 0.5-0.3 0.7-0.8 1.4-1.3 2.1-5.5 7.2-5.5 7.2l-3.4 1.9s0.1 0.5 0.9 0.4c0.8-0.1 1.3-0.6 1.3-0.6s0.1 0.6-0.6 1.7c-0.5 0.8-2.2 2.3-1.1 2.5 1.1-0.5 2.4-1.3 2.4-1.3 0.6-0.3 1-0.9 1.1-1.6l0.3-1.8 7.3-5.9c0.8-0.7 1.4-1.5 1.7-2.5l0-0.1-3.5-2.3z" class="k"/><path d="m487.2 236.8c-0.2 0-0.8 0-1.8-0.6-0.9-0.6-2.4-2.3-2.7-1.1 0.5 1.1 0.9 2.4 0.9 2.4 0.3 0.6 1.4 1.1 2.2 1.2l2.4 0.1s0.8-0.8 0.9-0.9l-0.2-0.4c-0.6-0.1-1.1-0.4-1.6-0.7z" class="k"/><path d="m510.5 245.4l-3.8-2.5 1.4-10 0.4 0-1.4 9.8 3.2 2.1 2.3-8 0.3 0.1-2.5 8.4z" class="c"/><path d="m509 218c-1.1 0.6-2.2 0.7-3.1 0.7-1.1 0-2.5-1-3-2-0.4-0.9-0.5-1.7 0.8-2.8 0.9-0.7 2-0.3 2.5 0.2 0.4 0.3 0.9 0.4 1.3 0 0.7-0.6 2-1.3 3.9-1.3 2 0 1.9 1.9 1.6 3.3-0.2 0.8 0.2 1.7 0.9 2.1 1.2 0.7 2.7 1.9 2.4 3.1-0.2 0.9-0.8 1.8-1.3 2.5-0.5 0.6-0.5 1.5 0 2.1 0.7 1 1.6 2.4 1.3 3.4-0.2 1-1 2.2-1.5 3.1-0.4 0.6-0.4 1.4 0 2.1 0.3 0.5 0.6 1.2 0.4 1.9-0.1 0.6-0.4 1.1-0.7 1.6-0.5 0.8-1.7 0.7-2.1-0.2-1.3-2.6-3.6-8-2.8-12 0.4-2 0.9-5.7 0.9-5.7s0.6-3-1.5-2.1z" class="l"/><path d="m506.1 240.1l-4.4 2.3c-0.5 0.3-1.2 0.3-1.8 0.2l-12-3.8v-1.5l11.7 1.4 3.6-1.9 2.8 3.4z" class="k"/><path d="m511.2 219.1c-0.3-0.3-0.9-0.2-1.3 0.1-0.4 0.4-0.5 0.9-0.2 1.2 0.3 0.3 0.9 0.2 1.3-0.1 0.4-0.4 0.5-0.9 0.2-1.2z" class="k"/><path d="m507 239.7l-1.2-7.4-5.2 5.9 1.4 4.6 4.9-2.5c-0.1-0.6 0 0 0-0.6z" class="d"/><path d="m504.8 243.6c0.1-0.1 0.1-0.1 0.3-0.2l-1.6-6.7c-0.2-0.9-0.1-2 0.3-2.8l3.5-5.8c-0.1-0.1-0.1-0.1-0.1-0.2 0 0-0.2 0-0.2 0l-3.6 5.8c-0.5 1-0.6 2.1-0.3 3.1" class="c"/><path d="m486.6 237s-0.1 0-0.2 0c0.1 0.1 0.1 0.3 0.2 0.4 0.4 0.3 0.9 0.7 1.3 1 0.2-0.3 0.4-0.7 0.4-0.7l-2.3-2.9s-0.5 0.2-0.2 0.9c0.3 0.8 0.8 1.2 0.8 1.2z" class="k"/></g><defs><linearGradient x1="466.6" x2="507" y1="242.6" y2="242.6" gradientUnits="userSpaceOnUse"><stop stop-color="#E0F0EB" offset="0"/><stop stop-color="#C0E4EF" offset="1"/></linearGradient><clipPath><rect width="489" height="243" class="a"/></clipPath></defs></svg>