<svg width="862" height="148" viewBox="0 0 862 148" fill="none" xmlns="http://www.w3.org/2000/svg">
<path d="M832.213 126.906V68.0022H818.325V49.996H806.641V65.9909H789.688V74.8024H784.133V62.3513H774.746V54.4976H757.028V69.1516C757.028 69.1516 752.047 69.1516 751.76 69.1516C752.143 69.1516 751.76 58.8076 751.76 58.8076H738.734C738.734 58.8076 738.734 65.6078 738.734 66.6613C738.734 65.3204 703.201 66.6613 703.201 66.6613V111.773H691.228V118.19H675.425V64.65H647.362V69.1516H640.753V32.3729H635.39V22.3162H624.375V16.4738H602.442L600.048 1.43667H585.49V59.2864H565.759V52.8693H543.347V116.37H535.972V85.4338H533.003V79.2082L517.966 73.9404L501.78 77.7716V81.4111H495.267V83.8056H488.946V55.2638H464.522V103.057H456.573V0H427.839V2.49022H430.425V5.93822H391.731V9.67356H394.7V59.5738H378.61V63.5007H375.64V67.7149H369.128V70.5882H357.922V75.9518L351.409 78.8251V85.1464H347.099V68.4811H342.884V64.9373H344.992V62.7344H321.813V69.4389H315.971V63.5007H302.562V68.6727H291.164V73.1742H284.652V109.282H279.096V134.28H244.712V142.134H239.061V110.24H220.289V42.238H217.703V18.6767H172.783V24.6149C172.783 24.6149 166.366 24.6149 166.27 24.6149C166.174 24.6149 166.27 27.2967 166.27 27.2967H169.144V30.7447H163.014V115.7H160.907V85.8169H151.999V92.9044H148.743V70.7798L144.05 66.0867V62.064H129.108V65.7036H125.756V80.6449H119.435V86.0084H117.04V97.5018H113.592V79.2082H96.7356V69.4389L93.7664 64.8416L90.2227 69.4389L86.3916 64.8416L82.3689 69.4389L79.5913 64.8416L76.3349 69.4389L72.9827 64.8416L70.1093 69.4389V55.0722H67.0444V40.514H43.7704V37.2576H53.9229V34.6716H26.8178V102.291H11.9722V123.936H0V147.977H862V126.906H832.213ZM44.9198 52.1989H43.1958V47.7931H44.9198V52.1989ZM44.9198 46.3564H43.1958V41.9507H44.9198V46.3564ZM46.3564 52.1989H45.4944V47.7931H46.3564V52.1989ZM46.3564 46.3564H45.4944V41.9507H46.3564V46.3564ZM55.0722 52.1989H47.2184V47.7931H55.0722V52.1989ZM55.0722 46.3564H47.2184V41.9507H55.0722V46.3564ZM65.6078 52.1989H57.754V47.7931H65.6078V52.1989ZM65.6078 46.3564H57.754V41.9507H65.6078V46.3564ZM591.332 22.5078H587.022V5.65089H591.332V22.5078ZM595.834 16.1864L592.96 5.55511H596.791L595.834 16.1864Z" fill="#00b53f"/>
</svg>
