<svg xmlns="http://www.w3.org/2000/svg" width="560" height="424" viewBox="0 0 560 424" fill="none"><style>.a{fill:gray-200;}.b{fill:#043C5E;}.c{fill:#01898C;}.d{fill:#FFD247;}.e{fill:#00666A;}.f{fill:#441C1C;}.g{fill:#212B53;}.h{fill:#63C1C5;}.i{fill:#FFDB71;}</style><rect width="560" height="424" class="a"/><g clip-path="url(#clip0)"><path d="M508.6 173.6H328.7C328.7 173.6 319 161.3 328.7 153 334.1 148.4 340.5 148.8 345.1 150.2 348.1 151.1 351.1 149 351.7 146 352.8 140.9 356.2 134.3 365.9 130.3 375.4 126.5 381.4 132.4 384.9 138.4 386.1 140.4 389.1 140.1 389.8 137.9 392.8 128.4 403.4 115.7 437.9 115.7 481.9 115.7 477 139.1 473.1 148.8 472.4 150.5 473.9 152.2 475.6 151.8 482.4 150.4 495 148.5 500.7 152.9 508.6 159.2 508.6 173.6 508.6 173.6Z" fill="url(#paint0_linear)"/><path d="M51 130.9H230.9C230.9 130.9 240.6 118.6 230.9 110.3 225.5 105.7 219.1 106.1 214.5 107.5 211.5 108.4 208.5 106.3 207.8 103.3 206.7 98.2 203.4 91.6 193.7 87.6 184.2 83.8 178.1 89.7 174.6 95.7 173.5 97.7 170.4 97.4 169.8 95.2 166.7 85.7 156.2 73 121.7 73 77.7 73 82.6 96.4 86.5 106.1 87.2 107.8 85.7 109.5 84 109.1 77.2 107.7 64.6 105.8 58.9 110.2 51 116.5 51 130.9 51 130.9Z" fill="url(#paint1_linear)"/><path d="M138.1 255.4L152.2 245.1C152.8 243.3 153.4 241.5 154 239.8 160.1 222.1 168.1 205.1 177.7 189.2 181.7 182.6 187.1 177.6 193.3 174.2 187.5 145.9 173.4 109.7 138.5 94.5 57.6 176.1 138.1 255.4 138.1 255.4Z" class="b"/><path d="M164.6 213.6C165.1 212.6 165.6 211.7 166 210.7L157.1 171.3 183.7 143.1C183.4 142.5 183.2 141.8 182.9 141.1L156.5 169 139.7 95C139.3 94.8 138.9 94.6 138.5 94.5 138.2 94.7 138 95 137.7 95.3L161.6 200 102.5 168.3C102.5 169.1 102.5 169.8 102.5 170.6L162.1 202.6 164.6 213.6Z" class="c"/><path d="M154 239.8C158.8 225.8 164.9 212.2 172 199.3 154 179.6 110.8 139.5 62.8 146.8 35.8 218.8 111.5 261.1 111.5 261.1L147.4 265.3C149 256.7 151 248.2 154 239.8Z" class="d"/><path d="M154.9 237.1C155.2 236.4 155.4 235.7 155.7 235L125.6 205.9 133.3 165.8C132.7 165.4 132.1 165 131.5 164.6L123.9 204.2 64.3 146.6C63.8 146.7 63.3 146.7 62.8 146.8 62.7 147.1 62.6 147.3 62.5 147.6L94.4 178.5 57.1 181.5C57.1 181.9 57.1 182.2 57.2 182.6L57.2 183.5 96.3 180.4 149.5 231.8 84.2 239.2C84.8 239.8 85.3 240.4 85.9 241L151.4 233.6 154.9 237.1Z" class="a"/><path d="M126.4 300.6C130.8 293.1 137 288.1 144.4 284.5 144.5 284.2 144.5 283.9 144.6 283.6 146.5 269.1 148.9 254.8 153.6 240.8 137 236.5 81.1 225.3 54.2 258.9 67.2 295.8 93.3 313.5 120.8 321.4 120.9 314 123 306.4 126.4 300.6Z" class="c"/><path d="M123 308.3L110.7 318C111.4 318.3 112.1 318.6 112.9 318.8L122 311.6C122.3 310.5 122.6 309.4 123 308.3Z" class="e"/><path d="M145.2 279.1L118.3 272.9 95.6 236.9C94.9 237 94.2 237.1 93.5 237.2L115.5 272.2 54.9 258.1C54.6 258.3 54.4 258.6 54.2 258.9 54.3 259.3 54.4 259.7 54.6 260L144.9 281.1C145 280.5 145.1 279.8 145.2 279.1Z" class="e"/><path d="M361.7 185.4C369.6 190 379 200.4 380.5 209.9 382.9 225.2 389.3 239.2 394.9 253.6 396.3 257.2 397.5 260.8 398.6 264.5L399.7 265.4C399.7 265.4 469.7 199.1 402.1 128.2 377 138.6 364 161.8 357.3 183.2 358.8 183.9 360.3 184.6 361.7 185.4Z" class="d"/><path d="M382.3 218.8L431.5 193.7C431.5 193.1 431.5 192.4 431.5 191.8L381.9 217.1C382.1 217.7 382.2 218.3 382.3 218.8Z" class="a"/><path d="M385 193.4L380.6 210.8C380.9 212.2 381.1 213.5 381.4 214.8L402.8 129C402.6 128.7 402.4 128.5 402.1 128.2 401.8 128.4 401.5 128.5 401.2 128.6L385.5 191.4 363.5 167.2C363.3 167.8 363 168.3 362.8 168.9L385 193.4Z" class="a"/><path d="M476.2 165.9C433.8 158.6 395.1 194.8 380.6 210.5 383.1 225.6 389.4 239.4 394.9 253.6 396.4 257.6 397.8 261.7 399 265.8L432.7 262.5C432.7 262.5 497.9 227.8 476.2 165.9Z" class="b"/><path d="M448.7 192.4L476.4 166.7C476.3 166.4 476.2 166.2 476.2 165.9 475.7 165.9 475.3 165.8 474.9 165.7L423.1 213.8 417.4 180C416.8 180.3 416.3 180.6 415.8 180.9L421.6 215.2 391 243.7C391.2 244.3 391.4 244.8 391.6 245.4L399.2 238.4 454.8 245.8C455.3 245.3 455.8 244.8 456.4 244.3L400.8 236.9 447 194 480.3 197.3 480.4 196.5C480.4 196.2 480.4 195.9 480.4 195.6L448.7 192.4Z" class="e"/><path d="M394 251.4C394.3 252.1 394.6 252.8 394.9 253.6 398.2 262.2 400.7 270.7 402 279.8 402.5 283.3 402.6 286.9 402.7 290.4 409.9 291.9 416.6 294.3 423.9 297.9 430.7 301.3 435.8 307.4 439.3 314.2 456.6 306 471.9 291.9 480.8 268 456.9 237 404.2 248.8 394 251.4Z" class="e"/><path d="M480.8 268C480.6 267.7 480.4 267.5 480.2 267.3L428.3 278.3 447.7 248.8C447.1 248.7 446.5 248.6 445.9 248.5L426 278.8 402.4 283.8C402.4 284.3 402.5 284.9 402.5 285.5L480.5 269C480.6 268.6 480.7 268.3 480.8 268Z" class="c"/><path d="M120.2 263.3C118.8 267.9 112.1 270.4 112.1 270.4L51.7 296 64 314.7C74.2 330.1 93.3 336.9 111 331.4L153.1 318.4C153.1 318.4 165.2 314.6 173.5 299.9 183.3 282.5 222.6 190.4 222.6 190.4 222.6 190.4 225.9 175.4 210.1 183.1 194.3 190.8 174 235.4 174 235.4 174 235.4 171.7 238.9 171.7 237 171.8 232.5 190.7 194.3 200.7 186 210.7 177.8 266.4 159.5 270.8 138 272.6 129.3 170.6 170.2 170.6 170.2 170.6 170.2 158.9 173.1 153.2 187.7 147.4 202.4 121.5 258.7 120.2 263.3Z" class="f"/><path d="M425.9 263.3C427.2 267.9 433.9 270.4 433.9 270.4L494.4 296 482 314.7C471.8 330.1 452.7 336.9 435 331.4L392.9 318.4C392.9 318.4 380.8 314.6 372.5 299.9 362.7 282.5 323.4 190.4 323.4 190.4 323.4 190.4 320.2 175.4 336 183.1 351.8 190.8 372 235.4 372 235.4 372 235.4 374.3 238.9 374.3 237 374.2 232.5 355.4 194.3 345.3 186 335.3 177.8 279.6 159.5 275.2 138 273.4 129.3 375.4 170.2 375.4 170.2 375.4 170.2 387.1 173.1 392.9 187.7 398.6 202.4 424.5 258.7 425.9 263.3Z" class="f"/><path d="M309.5 212.8L310 219.5 316.6 219.8 313.9 209.4 309.5 212.8Z" class="f"/><path d="M306.7 214C305.8 214 305.1 213.9 304.7 213.5 302.3 210 305 200.6 305 200.6L308.8 199 313.7 202 314 208.4C314.1 210 313.3 211.7 311.8 212.7 310.3 213.6 308.5 214.1 306.7 214Z" class="f"/><path d="M313 205.6C312.7 204.6 312.8 202.1 311.8 202.3 311 202.4 308.3 202.5 307.4 202.5 305.2 202.5 301.3 201.7 301.3 198.4 301.3 196.7 302.9 195.3 303.9 194.9 304.9 194.5 306.1 194.5 307.1 194.8 309.5 195.7 312.6 197.5 313.9 197.3 316 196.8 318.1 198.1 318.1 199.9 318.1 201.8 317.1 204.7 316.1 206.5 315.6 207.6 314.8 208.6 313.9 209.4L313 205.6Z" class="g"/><path d="M315.2 205.9C314.7 205.4 313.8 205.5 313.1 206 312.5 206.6 312.4 207.3 312.9 207.8 313.3 208.2 314.3 208.1 314.9 207.6 315.5 207.1 315.6 206.3 315.2 205.9Z" class="f"/><path d="M291 218C290.9 217.7 290.4 216.6 288.6 215.2 286.9 213.9 282.7 212.3 284.5 211 286.8 211.2 289.5 211.2 289.5 211.2 290.8 211.4 292.4 213.1 293.2 214.3L295.2 218.4C295.2 218.4 294.3 220.4 294.2 220.5L293.3 220.3C292.6 219.4 291.9 218.7 291 218Z" class="f"/><path d="M290.9 216.8C290.9 216.8 290.9 216.7 290.8 216.5 291.1 216.6 291.4 216.6 291.7 216.6 292.6 217.2 293.6 217.7 294.5 218.3 294.1 218.8 293.6 219.5 293.5 219.5L286.7 217.1C286.7 217.1 286.6 216.2 288.1 216.2 289.6 216.2 290.9 216.8 290.9 216.8Z" class="f"/><path d="M301.3 231.9L290.8 222.1 294.4 216.6 308.8 223.5 302.6 234.5 301.3 231.9Z" class="c"/><path d="M313 215.5C328.1 212.4 325.5 262.3 325.5 262.3H301.6C301.6 262.3 301.3 253.6 300.4 242.6 299.7 233.2 304.9 222.7 313 215.5Z" class="h"/><path d="M305.2 344.7C305.2 344.7 302.8 346.9 297.5 348.3 296.3 348.6 295 348.2 295 350.1 297.5 350.1 301.5 350.1 301.5 350.1L306.9 349.2V350.1H309.9C309.9 350.1 310.7 345.3 309 344.7 307.4 344.7 305.2 344.7 305.2 344.7Z" class="g"/><path d="M305.5 341.3L305.2 344.7C306.3 345.5 307.7 345.5 308.8 344.9L309 344.7 309.6 341.3H305.5Z" class="f"/><path d="M271.4 231.1C271.1 231.1 270 230.9 268.2 229.4 266.6 228.1 264 224.4 263.2 226.4 263.9 228.6 264.4 231.2 264.4 231.2 265 232.5 267 233.6 268.4 234.1L272.8 235.1C272.8 235.1 274.5 233.8 274.6 233.7L274.2 232.9C273.2 232.4 272.3 231.8 271.4 231.1Z" class="f"/><path d="M270.3 231.3C270.3 231.3 270.2 231.3 269.9 231.3 270.1 231.6 270.2 231.9 270.3 232.1 271 232.9 271.8 233.7 272.5 234.5 272.9 234 273.5 233.3 273.5 233.3L269.6 227.1C269.6 227.1 268.7 227.3 269 228.7 269.4 230.2 270.3 231.3 270.3 231.3Z" class="f"/><path d="M328.1 339.9C328.1 339.9 325.8 342.1 320.4 343.5 319.2 343.8 318 343.4 318 345.3 320.5 345.3 324.5 345.3 324.5 345.3L329.9 344.4V345.3H332.8C332.8 345.3 333.6 340.5 331.9 339.9 330.3 339.9 328.1 339.9 328.1 339.9Z" class="g"/><path d="M328.4 336.5L328.1 339.9C329.2 340.7 330.6 340.7 331.7 340.1L331.9 339.9 332.5 336.5H328.4Z" class="f"/><path d="M325.5 262.2C325.5 262.2 323.6 272.3 325.3 293.2 325.6 296.9 326.4 300.6 327.8 304 332.3 315.8 333 337.5 333 337.5H327.7L309.2 284.6 325.5 262.2Z" class="g"/><path d="M316.6 232C316.6 232 312.5 247.3 301.3 248.7 290.2 250.1 271.8 236 271.8 236L273.8 232 293.2 237.4C296.1 238.2 299.3 236.9 300.7 234.2L306.6 223.4 316.6 232Z" class="h"/><path d="M301.7 262.2L305.1 342.2H309.8C309.8 342.2 315.1 323.6 314.7 308.9 314.6 304.2 315.3 299.6 317.1 295.3 324.2 277.5 325.5 262.3 325.5 262.3H301.7V262.2Z" class="b"/><path d="M260.7 223.5L277.5 236.1 296.8 221.1 281.1 209.4 260.7 223.5Z" class="i"/><path d="M283.1 239.3C283.1 237.7 283.5 236.2 284.1 234.9L273.8 232 271.8 236C271.8 236 277 240 283.5 243.6 283.2 242.1 283 240.7 283.1 239.3Z" class="h"/><path d="M316.3 231.9C316.3 232 312.1 247.1 301.3 248.4 291.2 249.7 274.8 237.9 272.3 236 272.2 236.2 272 236.3 271.9 236.5 274.3 238.3 289.2 249.1 299.7 249.1 300.2 249.1 300.8 249.1 301.4 249 312.6 247.6 316.9 232.2 316.9 232.1L316.3 231.9Z" class="c"/><path d="M268.6 234.2L272.2 235C272.5 234.1 273 233.3 273.5 232.5 272.8 232.1 272.1 231.7 271.4 231.1 271.1 231.1 270 230.9 268.2 229.4 268.5 230.7 268.7 232.1 268.6 233.4 268.6 233.7 268.6 233.9 268.6 234.2Z" class="f"/><path d="M273.3 232.9L269.6 227.1C269.6 227.1 268.7 227.3 269 228.7 269.4 230.2 270.3 231.3 270.3 231.3 270.3 231.3 270.2 231.3 269.9 231.3 270.1 231.6 270.2 231.9 270.3 232.1 271 232.9 271.7 233.7 272.4 234.4 272.7 233.9 272.9 233.4 273.3 232.9Z" class="f"/><path d="M289.8 214.7C289.8 214.7 289.7 214.7 289.7 214.7 290.7 215.7 291 216.4 291.1 216.6 291.5 217 291.9 217.3 292.3 217.7 292.4 217.3 292.4 216.9 292.5 216.6 291.5 216.1 290.6 215.4 289.8 214.7Z" class="f"/><path d="M290.5 215.3C290 215.1 289.2 214.9 288.3 214.8 286.7 214.8 286.8 215.7 286.8 215.7L292.3 217.7C292.4 217.3 292.4 217 292.5 216.6 291.8 216.2 291.1 215.8 290.5 215.3Z" class="f"/><path d="M309.5 219.1V215.8L315 213.5 317 216 309.5 219.1Z" class="a"/><path d="M238.7 228.7L246.6 240.9C248.3 243.5 250.9 246.5 253.9 247.2L270.1 251.2V253.6C270.1 253.6 254 255.1 246.6 251.2 239.3 247.2 234 237.8 234 237.8L238.7 228.7Z" class="f"/><path d="M219.7 231.3C219.7 231.3 223.7 223.7 229 222.4 233.5 222.4 234.6 223 234.6 223 234.6 223 240.4 230.2 242.4 234.9 243.2 236.6 243.2 238.6 242.4 240.4 238.8 248.1 239.3 262.9 239.3 262.9H221.5C221.5 262.9 224.6 240.7 224 236.3 223.4 231.9 219.7 231.3 219.7 231.3Z" class="c"/><path d="M252.2 340.8L253.3 343.5C253.6 344.3 254.1 344.9 254.7 345.3 255.5 345.8 256.6 346.4 258.3 346.9 256.2 348.7 252.9 346.9 251 345.6 250 344.9 249.4 343.9 249.1 342.8L248.6 340.8H252.2Z" class="f"/><path d="M248.9 342.2C248.9 342.2 247.5 343.3 247.7 344.7 248 346.2 248.3 349.5 248.3 349.5H249.8L249.8 346.4C249.8 346.2 252.9 349.5 253.4 349.5H261.2C261.2 349.5 261.7 347.4 257.2 346.7 252.6 346.1 248.9 342.2 248.9 342.2Z" class="b"/><path d="M239.3 262.9L252.7 340.9 248.4 341C248.4 341 238.8 324.6 237.4 311 237.2 308.8 237.1 306.5 235.6 304.8 224.4 291.6 227.6 270.9 227.6 270.9L233.7 262.9H239.3Z" class="g"/><path d="M218.6 340.8L219.7 343.5C219.9 344.3 220.4 344.9 221.1 345.3 221.8 345.8 223 346.4 224.7 346.9 222.6 348.7 219.3 346.9 217.3 345.6 216.4 344.9 215.7 343.9 215.5 342.8L215 340.8H218.6Z" class="f"/><path d="M215.3 342.2C215.3 342.2 213.8 343.3 214.1 344.7 214.4 346.2 214.7 349.5 214.7 349.5H216.2L216.1 346.4C216.1 346.2 219.3 349.5 219.8 349.5H227.6C227.6 349.5 228.1 347.4 223.5 346.7 219 346.1 215.3 342.2 215.3 342.2Z" class="b"/><path d="M235.3 219.3L235.3 228 230.1 222.3 230.6 214.2 235.3 219.3Z" class="f"/><path d="M236.1 206.6C232.5 207.1 230.7 211.7 230.7 211.7L230.8 225.4 224.5 220C224.5 220 224.1 213.8 225.6 207.1 226.9 202.8 232.3 201.7 236.1 203.8 238 204.8 239.1 206.8 239.7 208.7 240.6 211.4 240.7 214.2 240.1 216.9L237.9 227 235.3 224.3C235.3 224.3 234.6 221.7 235.3 219.3 236.6 214.2 238.6 206.3 236.1 206.6Z" class="g"/><path d="M229.7 211.9C230.1 211.5 230.8 211.6 231.4 212.1 231.9 212.6 232 213.3 231.6 213.7 231.2 214 230.4 214 229.9 213.5 229.4 213 229.3 212.3 229.7 211.9Z" class="f"/><path d="M236.8 219.4C237.5 219.4 238.1 219.3 238.5 219 240.5 215.7 238.2 207.1 238.2 207.1L235 205.6 230.9 208.4 230.6 214.2C230.6 215.7 231.3 217.2 232.5 218.2 233.8 219 235.2 219.4 236.8 219.4Z" class="f"/><path d="M236.8 206.1C237.6 208.7 230.7 211.7 230.7 211.7L229 208.5 232.2 204.6 236.1 205.3C236.1 205.3 236.7 205.7 236.8 206.1Z" class="g"/><path d="M236.9 206.7C237 207.7 238.6 208.9 238.6 208.9L238.7 207.7 238.4 206.8 237.6 206.4C237.6 206.4 236.7 205.6 236.9 206.7Z" class="g"/><path d="M222.5 262.9C222.5 262.9 209.9 268.3 216.5 302.3 216.9 304.3 216.6 306.4 216.1 308.3 213.3 317.8 214.9 341 214.9 341H219.2C219.2 341 233.8 280.5 234.8 262.9 226 262.9 222.5 262.9 222.5 262.9Z" class="b"/><path d="M272.3 251C272.6 251.1 273.5 251.3 275.3 250.8 276.9 250.4 280 248.5 279.9 250.4 278.7 251.8 277.5 253.6 277.5 253.6 276.6 254.4 274.8 254.5 273.6 254.4L270 253.5C270 253.5 269.1 251.8 269.1 251.8L269.7 251.2C270.6 251.3 271.5 251.2 272.3 251Z" class="f"/><path d="M273.1 251.5C273.1 251.5 273.2 251.6 273.3 251.6 273.2 251.8 273 252 272.8 252.2 272 252.5 271.2 252.8 270.4 253.1 270.3 252.6 270.1 251.9 270.1 251.8L275 248.6C275 248.6 275.6 249 274.9 250 274.1 251 273.1 251.5 273.1 251.5Z" class="f"/><path d="M226.9 223.1L226.6 223.6C226.7 223.6 233.8 228.4 233.8 236.1V267.8H220.8L221.2 243.4C221 243.5 220.9 243.7 220.7 243.8L220.3 268.3H234.3V236.1C234.3 228.1 227 223.2 226.9 223.1Z" class="h"/><path d="M219.7 231.3C219.7 231.3 210.8 254.3 216.9 256.4 222.9 258.4 234 241.9 234 241.9L231.9 240.3 221.8 248.9C221.8 248.9 224 245.7 225.2 238.6 226.3 231.4 219.7 231.3 219.7 231.3Z" class="f"/><path d="M231.6 240.7L232.3 235.9C232.3 235.9 233.9 234.1 235.2 233.7 235.6 233.6 235.9 233.8 236.2 234.1 236.7 234.9 237.9 236.6 237.9 237.1 237.9 237.4 237.8 237.7 237.6 237.8L236.1 239.2 234 241.9 231.6 240.7Z" class="f"/><path d="M233.8 274.6H220.9C219.8 274.6 218.9 273.7 218.9 272.6V264C218.9 262.9 219.8 262 220.9 262H233.8C234.9 262 235.8 262.9 235.8 264V272.6C235.8 273.7 234.9 274.6 233.8 274.6Z" class="h"/><path d="M235.8 268V264.2C235.8 263 234.8 262 233.6 262H221.1C219.9 262 218.9 263 218.9 264.2V268H235.8Z" class="i"/><path d="M234 274.6C232.9 274.6 232.1 274.2 232.1 273.1V263.5C232.1 262.4 232.9 262 234 262 235 262 235.9 262.8 235.9 263.5V272.7C235.9 274.2 235 274.6 234 274.6Z" class="c"/><path d="M225.4 270.1C225.1 270.1 224.8 269.9 224.8 269.5V266.6C224.8 266.3 225.1 266 225.4 266 225.7 266 226 266.3 226 266.6V269.5C226 269.9 225.7 270.1 225.4 270.1Z" class="b"/><path d="M438.3 229.2L431.6 241.9 439 241.5 439.5 228.8 438.3 229.2Z" class="f"/><path d="M448.8 223.6L442.6 223.6 440.1 263.7H451.2L448.8 223.6Z" class="a"/><path d="M460.3 341.5C460.3 341.5 461.8 342.7 461.5 344.2 461.2 345.8 460.8 349.4 460.8 349.4H459.2L459.3 346C459.3 345.8 455.9 349.4 455.3 349.4H447C447 349.4 446.4 347.1 451.3 346.4 456.2 345.7 460.3 341.5 460.3 341.5Z" class="b"/><path d="M456.6 340L455.5 342.9C455.2 343.7 454.7 344.4 454 344.9 453.2 345.4 451.9 346.1 450.1 346.6 452.3 348.6 455.9 346.5 458 345.1 459 344.4 459.7 343.4 460 342.2L460.5 340H456.6Z" class="f"/><path d="M444.3 341.5C444.3 341.5 445.9 342.7 445.6 344.2 445.3 345.8 444.9 349.4 444.9 349.4H443.3L443.4 346C443.4 345.8 440 349.4 439.4 349.4H431.1C431.1 349.4 430.5 347.1 435.4 346.4 440.3 345.7 444.3 341.5 444.3 341.5Z" class="b"/><path d="M440.7 340L439.6 342.9C439.3 343.7 438.8 344.4 438 344.9 437.2 345.4 436 346.1 434.1 346.6 436.4 348.6 440 346.5 442.1 345.1 443.1 344.4 443.8 343.4 444.1 342.2L444.6 340H440.7Z" class="f"/><path d="M453.6 263.7C453.6 263.7 454.7 269.7 448.7 299.3 453.5 314.6 445.7 340.4 445.7 340.4H440.1L436.2 263.8H453.6V263.7Z" class="c"/><path d="M443.3 223.6L441.3 272.3 434.6 269.5C434.6 269.5 437.6 260.3 437.3 247.6 438.4 238.4 433.1 243.3 439.5 225.6 441.9 223.6 443.3 223.6 443.3 223.6Z" class="i"/><path d="M442.4 218.6L443.2 222.7C443.6 224.5 445.6 225.4 447.2 224.4L449.9 222.7 445 211.6 442.4 218.6Z" class="f"/><path d="M459.1 263.7C459.1 263.7 466.5 269.7 460.5 299.3 465.4 314.6 461.1 340.4 461.1 340.4H456L441.7 263.8H459.1V263.7Z" class="h"/><path d="M448.8 219.5C448.8 219.5 455.1 223 457.1 226.1 458.9 229.1 459.6 236 459.7 242 460 250.4 464 272.3 464 272.3H447.2L446.8 224.6 448.8 219.5Z" class="i"/><path d="M436.5 206.2C440.3 205.3 443.9 209.2 443.9 209.2L446.8 224.6 451.2 217.8C451.2 217.8 451.4 208.6 447.2 202.5 444.1 198.8 438.3 199.9 435.3 203.4 433.9 205.2 433.6 207.6 433.7 209.8 433.9 212.8 434.8 229.9 434.8 229.9L443.5 223.5C443.5 223.5 443.3 221.7 442.4 218.6 441 213.1 433.9 206.9 436.5 206.2Z" class="g"/><path d="M445.1 208.9C444.5 208.7 443.8 209.1 443.4 209.8 443.1 210.5 443.3 211.2 443.9 211.5 444.4 211.7 445.1 211.3 445.5 210.6 445.8 209.9 445.6 209.2 445.1 208.9Z" class="f"/><path d="M441 219.3C440.3 219.5 439.6 219.7 439.1 219.5 435.8 217.1 434.6 207.6 434.6 207.6L437.2 204.8 442.5 205.9 445 211.6C445.7 213.1 445.6 214.9 444.8 216.4 443.8 217.7 442.5 218.7 441 219.3Z" class="f"/><path d="M435.6 206C435.9 208.9 443.9 209.2 443.9 209.2L444.3 205.2 439.6 202.7 435.9 204.9C435.9 204.9 435.6 205.6 435.6 206Z" class="g"/><path d="M435.8 206.6C436 207.7 434.9 209.6 434.9 209.6L434.3 208.4 434.3 207.4 435 206.6C435 206.6 435.5 205.5 435.8 206.6Z" class="g"/><path d="M455.4 226.1C463.5 227.1 459.6 248.1 457.9 256.7 457.5 258.8 455.3 260.1 453.2 259.5 446.2 257.2 435.8 247.9 435.8 247.9L437.5 245.9 451.2 249.1C451.2 249.1 445.9 225 455.4 226.1Z" class="f"/><path d="M439.1 241L441.7 257.4C441.8 257.9 441.4 258.3 441 258.3H430.4C430.1 258.3 429.7 258 429.7 257.7L427.1 241.2C427 240.7 427.4 240.3 427.8 240.3H438.3C438.7 240.3 439 240.6 439.1 241Z" fill="url(#paint2_linear)"/><path d="M427.4 248.2C427.3 247.7 427.4 247.3 427.6 246.1 427.8 244.5 427.8 242.1 429.3 243.3 430.8 245.2 431 247.2 431 247.2 431.3 248.3 430.7 249.9 430 250.7L428.9 253.1C428.9 253.1 427.1 250.9 427.4 248.2Z" class="f"/><path d="M434.3 246.7C434.3 247.1 433.9 247.5 433.5 247.5 433 247.5 432.7 247.1 432.7 246.7 432.7 246.3 433 245.9 433.5 245.9 433.9 245.9 434.3 246.3 434.3 246.7Z" class="a"/><path d="M109 227.9L121.8 260H127.2C128.8 260 129.3 260.4 130.6 261.2L134.1 263.8H120C120 263.8 104.7 245.7 103 234.4 108.1 229.4 109 227.9 109 227.9Z" class="f"/><path d="M88.2 217.8L91.9 211.7 96.7 214.2 95.1 219.5C95 219.5 95 219.5 94.9 219.5 93.4 217.8 90.4 218.7 88.2 217.8Z" class="f"/><path d="M92.5 202.2L91.1 209.5C91.9 209.7 92.1 210.5 91.8 211.2 91.8 211.4 91.8 211.5 91.8 211.7 92.8 212.9 94.8 214.6 97.9 214.7 102.7 214.9 102 205.5 102 205.5L92.5 202.2Z" class="f"/><path d="M88.9 207.1C89 206.6 88.5 205.3 88.2 204.8 86.1 202 88.8 200.9 89.8 200.6 90.8 200.2 91 198.5 92.4 197.8 94.6 196.9 96 198.7 97.2 198.8 98.4 198.8 99.4 197.5 100.9 198.7 102.4 199.9 101.9 201.2 102.3 201.8 102.7 202.5 104.1 201.2 105.3 203.3 107.1 206.6 102 206.6 102 206.6 102 206.6 99.1 207.1 95.9 204.9 95.4 204.6 94.8 204.5 94.4 204.9 93.3 205.8 91.9 211.8 91.9 211.8L90.9 210.6C90.9 210.6 88.5 209.6 88.9 207.1Z" class="g"/><path d="M91.5 208.3C91.6 208.9 92.2 209.4 92.8 209.3 93.4 209.2 93.9 208.6 93.8 208 93.7 207.3 93.1 206.9 92.4 207 91.8 207.1 91.4 207.7 91.5 208.3Z" class="f"/><path d="M80.3 256.5H103.7V234.4L109 227.9C109 227.9 103.1 217 92 217 80.8 217 73.5 227.9 73.5 227.9L80.3 237.4V256.5Z" class="h"/><path d="M103.9 256.5V229.4L104 229.4H103.4V256.5H103.9Z" class="h"/><path d="M72.7 342.5C72.7 342.5 72.2 346 78.8 349.1 80.1 349.8 79.6 350.1 79.8 350.8 77.5 350.4 71.8 349.5 71.8 349.5L69.3 345.5 68.2 346.2 66.3 343.6C66.3 343.6 67.8 340.6 69.5 340.8 70.9 341.5 72.7 342.5 72.7 342.5Z" class="g"/><path d="M74.5 339.7L72.7 342.5C71.5 342.7 70.3 342.1 69.6 341L69.5 340.8 71 337.9 74.5 339.7Z" class="f"/><path d="M84.1 343.1C84.1 343.1 86.3 345.2 91.5 346.5 92.6 346.8 93.8 346.4 93.8 348.3 91.4 348.3 87.6 348.3 87.6 348.3L82.4 347.4V348.3H79.6C79.6 348.3 78.9 343.7 80.5 343.1 82 343.1 84.1 343.1 84.1 343.1Z" class="g"/><path d="M83.6 339.9L84.1 343.2C83.1 343.9 81.8 343.9 80.7 343.3L80.5 343.2 80.8 339.9H83.6Z" class="f"/><path d="M87.4 217.6L90.1 214.7 96.1 216 96.7 217.8 87.4 217.6Z" class="a"/><path d="M80.3 256.5C76 292.7 80.3 340.6 80.3 340.6H84.3C84.3 340.6 96.7 289.4 94.6 256.5 87.4 256.5 90.9 256.5 80.3 256.5Z" class="g"/><path d="M103.9 256.5C103.9 256.5 108.1 293.2 103 304.1 98 315 74.9 340.3 74.9 340.3L70.3 338.7C70.3 338.7 78.9 313.1 90.6 299.4 91.3 276.1 90.5 256.5 90.5 256.5H103.9Z" class="g"/><path d="M91 270C90.8 269.9 90.6 269.9 90.4 269.9 90.6 278 90.6 288.9 90.3 300.6 76.9 314.9 70.4 338.3 70.3 338.6L70.3 338.6C70.5 338.6 70.7 338.6 70.9 338.5 71.5 336.6 78 314.5 90.8 300.9L90.9 300.8V300.7C91.2 289 91.2 278.1 91 270Z" class="b"/><path d="M73.5 227.9C73.5 227.9 65.2 237.2 65.2 243.4 65.2 249.7 80.1 266.6 80.1 266.6L82.6 261.8 72.9 244.7 80.3 237.4 73.5 227.9Z" class="f"/><path d="M80 267.3L79.6 267 83.1 260.5 83.6 260.7 80 267.3Z" class="b"/></g><defs><linearGradient x1="508.6" y1="144.6" x2="324.4" y2="144.6" gradientUnits="userSpaceOnUse"><stop stop-color="#E0F0EB"/><stop offset="1" stop-color="#C0E4EF"/></linearGradient><linearGradient x1="51" y1="101.9" x2="235.2" y2="101.9" gradientUnits="userSpaceOnUse"><stop stop-color="#E0F0EB"/><stop offset="1" stop-color="#C0E4EF"/></linearGradient><linearGradient x1="427" y1="249.3" x2="441.7" y2="249.3" gradientUnits="userSpaceOnUse"><stop stop-color="#E0F0EB"/><stop offset="1" stop-color="#C0E4EF"/></linearGradient><clipPath><rect width="457.6" height="277.8" class="a"/></clipPath></defs></svg>
