<svg width="237" height="125" viewBox="0 0 237 125" fill="none" xmlns="http://www.w3.org/2000/svg">
<g clip-path="url(#clip0)">
<path d="M19.2405 125L18.269 124.844C18.2855 124.761 19.7016 116.176 23.6369 106.289C25.9503 100.469 28.6836 95.3409 31.738 91.0439C35.5746 85.6438 39.9462 81.5444 44.7378 78.8526C53.7857 73.7653 64.3814 73.6171 76.2285 78.4245C90.7925 84.3349 100.203 88.0392 108.04 89.6445C116.051 91.2826 121.954 90.6158 128.417 87.3313C136.337 83.306 142.355 74.8848 146.01 68.5299C149.987 61.6151 152.103 55.573 152.127 55.5154L153.058 55.8364C153.033 55.894 150.901 62.0103 146.875 69.0073C144.512 73.1232 141.968 76.737 139.309 79.7498C135.975 83.5365 132.459 86.3847 128.853 88.2121C125.486 89.9243 122.209 90.9368 118.85 91.3073C115.541 91.6777 111.935 91.4472 107.835 90.6076C99.9145 88.9859 90.4714 85.2651 75.8498 79.3382C64.2991 74.6543 53.9915 74.7778 45.2153 79.7087C34.636 85.6603 28.1403 97.6458 24.5507 106.66C20.6483 116.447 19.2488 124.918 19.2405 125Z" fill="#01888B"/>
<path d="M237 24.2344L176.069 22.8679L149.41 30.6717L132.574 42.8959L237 24.2344Z" fill="url(#paint0_linear)"/>
<path d="M237 24.2344L136.559 47.7856L132.574 42.8959" fill="#63C0C4"/>
<path d="M141.984 64.2986L142.19 64.4221L149.6 72.4317L236.778 24.3579L141.984 64.2986Z" fill="#01888B"/>
<path d="M120.859 65.0888L128.129 48.2301L236.35 24.3826L153.51 64.6279L120.859 65.0888Z" fill="url(#paint1_linear)"/>
<path d="M40.1931 95.8759L30.1984 95.0692L29.9267 85.973L18.0796 96.057L28.0661 96.8555L28.346 105.96L40.1931 95.8759Z" fill="#6ABEC2"/>
<path d="M81.7525 85.7343L75.9648 77.5436L82.7816 71.5015L67.452 68.8673L73.2314 77.0497L66.4229 83.0919L81.7525 85.7343Z" fill="#6ABEC2"/>
<path d="M85.3503 26.8192H2.00882C2.00882 26.8192 -2.51103 21.1064 2.00882 17.2539C4.50339 15.1301 7.45076 15.3523 9.59131 15.9779C10.9827 16.3813 12.374 15.4429 12.6786 14.027C13.1891 11.6809 14.7451 8.60224 19.232 6.78301C23.6448 4.99671 26.4358 7.72144 28.0494 10.5285C28.5846 11.4504 29.9924 11.3105 30.3135 10.298C31.7213 5.86928 36.5952 0 52.6164 0C72.9927 0 70.7287 10.8331 68.9092 15.3359C68.5964 16.1179 69.2632 16.9246 70.0865 16.7517C73.2315 16.0767 79.0604 15.2124 81.6784 17.2621C85.3503 20.1432 85.3503 26.8192 85.3503 26.8192Z" fill="url(#paint2_linear)"/>
<path d="M218.649 95.7771C220.378 94.5176 221.242 93.1265 220.6 91.6118C217.735 84.8617 209.14 89.5703 209.14 89.5703C209.14 89.5703 210.218 84.4748 195.589 81.108C180.959 77.7412 181.016 88.9529 181.016 88.9529C181.016 88.9529 168.008 81.7583 165.473 92.8054C165.218 93.9085 165.325 94.8963 165.72 95.7771H218.649Z" fill="url(#paint3_linear)"/>
</g>
<defs>
<linearGradient id="paint0_linear" x1="139.254" y1="55.6671" x2="228.91" y2="8.76363" gradientUnits="userSpaceOnUse">
<stop stop-color="#DFEFEA"/>
<stop offset="1" stop-color="#BFE3EE"/>
</linearGradient>
<linearGradient id="paint1_linear" x1="122.226" y1="67.6939" x2="229.616" y2="11.5128" gradientUnits="userSpaceOnUse">
<stop stop-color="#DFEFEA"/>
<stop offset="1" stop-color="#BFE3EE"/>
</linearGradient>
<linearGradient id="paint2_linear" x1="85.3502" y1="13.411" x2="0" y2="13.411" gradientUnits="userSpaceOnUse">
<stop stop-color="#DFEFEA"/>
<stop offset="1" stop-color="#BFE3EE"/>
</linearGradient>
<linearGradient id="paint3_linear" x1="165.338" y1="88.1258" x2="220.812" y2="88.1258" gradientUnits="userSpaceOnUse">
<stop stop-color="#DFEFEA"/>
<stop offset="1" stop-color="#BFE3EE"/>
</linearGradient>
<clipPath id="clip0">
<rect width="237" height="125" fill="white"/>
</clipPath>
</defs>
</svg>
