<svg xmlns="http://www.w3.org/2000/svg" width="560" height="424" viewBox="0 0 560 424" fill="none"><style>.a{fill:gray-200;}.b{fill:#01898C;}.c{fill:#00666A;}.d{fill:#FFD247;}.e{fill:#043C5E;}.f{fill:#B0D9C8;}.g{fill:#63C1C5;}.h{fill:#F7A605;}</style><rect width="560" height="424" class="a"/><g clip-path="url(#clip0)"><path d="M476.3 172.2H312.2C312.2 172.2 303.3 160.9 312.2 153.3 317.1 149.1 322.9 149.6 327.1 150.8 329.8 151.6 332.6 149.8 333.2 147 334.2 142.3 337.2 136.3 346.1 132.7 354.8 129.2 360.3 134.5 363.4 140.1 364.5 141.9 367.3 141.6 367.9 139.6 370.7 130.9 380.3 119.3 411.8 119.3 451.9 119.3 447.5 140.7 443.9 149.5 443.3 151.1 444.6 152.7 446.2 152.3 452.4 151 463.9 149.3 469 153.3 476.3 159 476.3 172.2 476.3 172.2Z" fill="url(#paint0_linear)"/><path d="M261.4 83.5H97.3C97.3 83.5 88.4 72.3 97.3 64.7 102.2 60.5 108 61 112.2 62.2 114.9 63 117.7 61.1 118.3 58.3 119.3 53.7 122.3 47.7 131.2 44.1 139.9 40.6 145.4 45.9 148.6 51.5 149.6 53.3 152.4 53 153 51 155.8 42.3 165.4 30.7 196.9 30.7 237 30.7 232.6 52.1 229 60.9 228.4 62.5 229.7 64 231.3 63.7 237.5 62.4 249 60.7 254.1 64.7 261.4 70.4 261.4 83.5 261.4 83.5Z" fill="url(#paint1_linear)"/><path d="M340.8 288.2C340.8 288.2 343.3 215.1 393.6 196.7 454.2 266.1 385.8 325.6 385.8 325.6L340.8 288.2Z" class="b"/><path d="M393.6 196.7C393.8 197 394 197.2 394.2 197.5L369.8 280.1 418.6 257.7C418.6 258.3 418.6 258.9 418.6 259.5L369.2 282.1 362.2 306 360.9 304.9 374.9 257.3 354.9 233.4C355.2 232.9 355.5 232.4 355.7 231.9L375.4 255.5 392.6 197.1C392.9 197 393.2 196.9 393.6 196.7Z" class="c"/><path d="M364 279.6C364 279.6 411.5 224.3 461.6 235.2 479.7 294.1 416.9 324.2 416.9 324.2L353.3 327.6 364 279.6Z" class="d"/><path d="M405.8 246L409.9 278.1 460.5 234.9C460.9 235 461.3 235.1 461.7 235.1 461.7 235.4 461.8 235.6 461.9 235.8L434.8 258.9 464.5 263.2C464.5 263.5 464.4 263.8 464.4 264.1L464.3 264.8 433.1 260.3 388 298.9 439.9 308C439.4 308.5 438.9 308.9 438.4 309.4L386.4 300.2 354.4 327.6 353.3 327.6 353.6 326.1 408.4 279.3 404.3 246.9C404.8 246.6 405.3 246.3 405.8 246Z" class="a"/><path d="M370.2 313.9C370.2 313.9 429.3 299.2 452.8 332.6 420.2 409.4 320.2 373.3 320.2 373.3L370.2 313.9Z" class="e"/><path d="M452.8 332.6C452.7 332.9 452.6 333.2 452.5 333.5L371.2 347.2 404.6 377.1C404 377.3 403.4 377.4 402.8 377.6L369.2 347.5 337.4 352.9 339 351 400.8 340.6 420.7 312.9C421.3 313 421.9 313.1 422.4 313.3L403.1 340.2 452.3 331.9C452.5 332.1 452.7 332.4 452.8 332.6Z" class="c"/><path d="M205.7 237.1C205.7 237.1 222.6 164.9 178.2 133.5 100.3 185.3 151.5 261.8 151.5 261.8L205.7 237.1Z" class="d"/><path d="M178.2 133.5C178 133.7 177.7 133.9 177.4 134L179.3 221.5 137.4 186.5C137.3 187.1 137.2 187.7 137 188.3L179.4 223.6 179.9 248.9 181.5 248.1 180.4 197.8 206.3 179.7C206.2 179.1 206.1 178.6 206 178L180.4 195.9 179.1 134.1C178.8 133.9 178.5 133.7 178.2 133.5Z" class="a"/><path d="M185.1 222.5C185.1 222.5 153.3 155.7 101.3 153 67.9 206 121.4 252.2 121.4 252.2L182.9 272.5 185.1 222.5Z" class="b"/><path d="M153.1 178.5L140.6 208.8 102.5 153.1C102.1 153.1 101.7 153 101.3 153 101.2 153.2 101 153.4 100.9 153.6L121.3 183.5 91 179.8C91 180.1 91 180.3 90.9 180.6L90.8 181.4 122.5 185.3 156.5 235.1 103.2 230.2C103.6 230.8 103.9 231.4 104.3 231.9L157.7 236.8 181.9 272.1 182.9 272.5 183 270.9 141.7 210.5 154.4 179.8C154 179.3 153.6 178.9 153.1 178.5Z" class="c"/><path d="M169.9 254.5C169.9 254.5 116 224.4 84 250.9 95.6 334.8 203.1 326 203.1 326L169.9 254.5Z" class="e"/><path d="M84 250.9C84 251.2 84.1 251.5 84.1 251.8L160.1 286.8 119.4 307.3C120 307.6 120.5 307.9 121 308.3L162 287.7 191.7 301.4 190.6 299.1 132.9 272.5 120.7 240.1C120.1 240 119.5 240 118.9 240L130.8 271.5 84.7 250.3C84.5 250.5 84.2 250.7 84 250.9Z" class="c"/><path d="M101.7 103.8L99.2 111.2 106.3 108.4 130.1 96.9 101.7 103.8Z" class="f"/><path d="M99.2 111.2L111.5 108.6 108.3 107.5 99.2 111.2Z" class="g"/><path d="M101.7 103.8L98.6 97.5 130.1 96.9 101.7 103.8Z" fill="url(#paint2_linear)"/><path d="M130.1 96.9L106.3 108.4 111.4 117.5 130.1 96.9Z" fill="url(#paint3_linear)"/><path d="M103 117.6C102.9 117.6 102.8 117.6 102.8 117.5 102.5 117.3 102.5 116.9 102.7 116.7 103.4 115.9 104.1 115.2 104.9 114.6 105.2 114.3 105.5 114.4 105.7 114.6 105.9 114.9 105.9 115.3 105.7 115.5 104.9 116.1 104.2 116.7 103.6 117.5 103.5 117.6 103.2 117.7 103 117.6Z" class="g"/><path d="M120.7 180.3C120.7 180.3 120.7 180.3 120.6 180.3 118.8 179.6 117.1 178.5 115.5 177 115.2 176.8 115.2 176.5 115.4 176.2 115.7 176 116 176 116.3 176.2 117.8 177.5 119.4 178.6 121.1 179.3 121.4 179.4 121.5 179.7 121.4 180 121.3 180.3 121 180.4 120.7 180.3ZM113.3 174.5C113.2 174.5 113.1 174.4 113 174.3 111.7 172.7 110.7 171 109.9 169.1 109.8 168.8 109.9 168.4 110.2 168.3 110.5 168.2 110.9 168.3 111 168.6 111.7 170.4 112.7 172.1 113.9 173.6 114.1 173.9 114.1 174.3 113.8 174.5 113.7 174.6 113.4 174.6 113.3 174.5ZM109.2 166C109 165.9 108.9 165.8 108.8 165.6L108.8 165.3C108.4 163.5 108.2 161.5 108.2 159.5 108.2 159.2 108.5 158.9 108.8 158.9 109.2 158.9 109.4 159.2 109.4 159.5 109.4 161.4 109.6 163.3 109.9 165.1L110 165.3C110.1 165.6 109.9 165.9 109.5 166 109.4 166 109.3 166 109.2 166ZM108.9 156.5C108.6 156.4 108.4 156.2 108.5 155.9 108.7 154 109 152 109.6 150 109.7 149.6 110 149.5 110.3 149.5 110.6 149.6 110.8 149.9 110.7 150.3 110.2 152.3 109.8 154.2 109.6 156 109.6 156.4 109.3 156.6 109 156.6 108.9 156.6 108.9 156.5 108.9 156.5ZM111 147.3C110.6 147.2 110.5 146.8 110.6 146.5 110.6 146.4 110.7 146.2 110.7 146.1 109.8 145.8 108.8 145.5 108 145.1 107.7 144.9 107.5 144.6 107.7 144.3 107.8 144 108.2 143.9 108.5 144 109.3 144.4 110.2 144.7 111.1 145 111.6 143.7 112.1 142.4 112.6 140.9 112.8 140.6 113.1 140.4 113.4 140.6 113.7 140.7 113.9 141 113.7 141.3 113.2 142.7 112.7 144 112.3 145.3 112.8 145.4 113.4 145.5 114 145.6 114.3 145.6 114.5 145.9 114.5 146.3 114.5 146.6 114.2 146.8 113.8 146.8 113.2 146.7 112.5 146.6 111.9 146.4 111.8 146.6 111.8 146.7 111.7 146.9 111.6 147.2 111.3 147.4 111 147.3ZM105 143.2C104.9 143.2 104.9 143.2 104.8 143.1 103.8 142.4 102.9 141.5 102.1 140.5 101.6 139.9 101.1 139.2 100.7 138.5 100.6 138.3 100.7 137.9 100.9 137.7 101.2 137.6 101.6 137.7 101.7 137.9 102.1 138.6 102.5 139.2 103 139.7 103.7 140.6 104.6 141.5 105.5 142.2 105.8 142.4 105.8 142.8 105.6 143 105.5 143.2 105.2 143.3 105 143.2ZM117.3 146.8C117.1 146.8 116.9 146.6 116.9 146.3 116.9 146 117.1 145.7 117.4 145.7 119.4 145.6 121.3 145.2 123 144.4 123.3 144.3 123.7 144.5 123.8 144.8 123.9 145.1 123.8 145.4 123.5 145.5 121.6 146.3 119.6 146.8 117.5 146.9 117.4 146.9 117.4 146.9 117.3 146.8ZM99.6 135.6C99.4 135.5 99.3 135.4 99.2 135.2 98.6 133.3 98.3 131.2 98.3 129.2 98.3 128.8 98.5 128.6 98.8 128.6 99.2 128.6 99.4 128.8 99.4 129.2 99.4 131.1 99.7 133 100.3 134.8 100.4 135.1 100.3 135.5 100 135.6 99.8 135.6 99.7 135.6 99.6 135.6ZM126.2 143.8C126.1 143.8 126 143.7 125.9 143.6 125.7 143.3 125.8 143 126 142.8 126.4 142.5 126.8 142.2 127.2 141.8 128.2 140.9 129.1 139.8 129.7 138.6 129.9 138.3 130.3 138.2 130.5 138.3 130.8 138.5 130.9 138.8 130.8 139.1 130.1 140.5 129.1 141.7 128 142.7 127.6 143.1 127.1 143.4 126.7 143.7 126.5 143.8 126.4 143.9 126.2 143.8ZM114.4 138.4C114.4 138.4 114.3 138.4 114.3 138.3 114 138.2 113.9 137.9 114 137.6 115 135.3 116 133.7 117.1 132.3 117.3 132.1 117.7 132 118 132.2 118.2 132.5 118.3 132.8 118 133.1 117 134.3 116.1 135.9 115.1 138 115 138.3 114.7 138.5 114.4 138.4ZM99 126.2C98.7 126.1 98.5 125.8 98.6 125.5 98.8 124.6 99 123.7 99.3 122.8 99.7 121.7 100.1 120.7 100.6 119.7 100.8 119.4 101.1 119.3 101.4 119.5 101.7 119.6 101.8 120 101.7 120.3 101.2 121.2 100.7 122.2 100.4 123.2 100.1 124 99.9 124.8 99.8 125.7 99.7 126 99.4 126.2 99.1 126.2 99 126.2 99 126.2 99 126.2ZM131.1 136C130.9 135.9 130.7 135.7 130.7 135.4 130.9 133.9 130.6 132.7 129.8 131.6 129.5 131.2 129.2 130.9 128.8 130.6 128.6 130.4 128.5 130.1 128.7 129.8 128.9 129.5 129.3 129.5 129.6 129.7 130 130 130.4 130.4 130.8 130.9 131.7 132.2 132.1 133.8 131.9 135.5 131.9 135.8 131.6 136 131.3 136 131.2 136 131.2 136 131.1 136ZM120 130.9C119.9 130.8 119.8 130.7 119.7 130.6 119.6 130.4 119.6 130 119.9 129.8 121.7 128.7 123.9 128.1 126 128.3 126.3 128.4 126.5 128.6 126.5 129 126.5 129.3 126.2 129.5 125.8 129.5 124.1 129.3 122.1 129.8 120.6 130.8 120.4 130.9 120.2 130.9 120 130.9Z" class="g"/><path d="M124.2 181.3C123.9 181.2 123.8 180.9 123.8 180.6 123.8 180.3 124.1 180.1 124.4 180.1 125.4 180.3 126.3 180.3 127.3 180.2 127.6 180.2 127.9 180.4 127.9 180.7 127.9 181 127.7 181.3 127.4 181.4 126.3 181.5 125.3 181.4 124.3 181.3 124.3 181.3 124.2 181.3 124.2 181.3Z" class="g"/><path d="M445.8 89.5L448.3 96.8 441.3 94.1 417.5 82.5 445.8 89.5Z" class="f"/><path d="M448.3 96.8L436 94.2 439.3 93.1 448.3 96.8Z" class="g"/><path d="M445.8 89.5L449 83.1 417.5 82.5 445.8 89.5Z" fill="url(#paint4_linear)"/><path d="M417.5 82.5L441.3 94.1 436.1 103.1 417.5 82.5Z" fill="url(#paint5_linear)"/><path d="M444.6 103.3C444.6 103.3 444.7 103.2 444.8 103.2 445 103 445 102.6 444.8 102.3 444.2 101.6 443.4 100.8 442.6 100.2 442.4 100 442 100.1 441.8 100.3 441.6 100.6 441.6 100.9 441.9 101.1 442.6 101.7 443.3 102.4 443.9 103.1 444.1 103.3 444.3 103.4 444.6 103.3Z" class="g"/><path d="M426.1 165.7C426 165.4 426.2 165 426.5 164.9 428.2 164.2 429.8 163.2 431.3 161.8 431.5 161.6 431.9 161.6 432.1 161.9 432.3 162.1 432.3 162.5 432.1 162.7 430.5 164.1 428.7 165.2 426.9 166 426.9 166 426.9 166 426.9 166 426.6 166.1 426.3 166 426.1 165.7ZM433.7 160.1C433.5 159.9 433.4 159.5 433.6 159.3 434.8 157.8 435.8 156.1 436.5 154.3 436.7 154 437 153.8 437.3 154 437.6 154.1 437.8 154.4 437.6 154.7 436.9 156.6 435.8 158.4 434.6 160 434.5 160.1 434.4 160.2 434.3 160.2 434.1 160.3 433.9 160.2 433.7 160.1ZM438 151.7C437.7 151.6 437.5 151.3 437.6 151L437.6 150.7C438 149 438.1 147.1 438.1 145.2 438.1 144.9 438.4 144.6 438.7 144.6 439.1 144.6 439.3 144.9 439.3 145.2 439.3 147.2 439.1 149.1 438.8 151L438.7 151.2C438.7 151.4 438.5 151.6 438.3 151.7 438.2 151.7 438.1 151.7 438 151.7ZM438.6 142.2C438.3 142.3 438 142 437.9 141.7 437.7 139.9 437.4 137.9 436.8 135.9 436.8 135.6 437 135.3 437.3 135.2 437.6 135.1 437.9 135.3 438 135.6 438.5 137.7 438.9 139.7 439.1 141.6 439.1 141.8 439 142.1 438.7 142.2 438.7 142.2 438.6 142.2 438.6 142.2ZM436.6 132.9C436.3 133 436 132.8 435.9 132.5 435.8 132.4 435.8 132.2 435.7 132.1 435.1 132.2 434.4 132.3 433.7 132.4 433.4 132.5 433.1 132.2 433.1 131.9 433 131.6 433.2 131.3 433.6 131.2 434.2 131.2 434.7 131.1 435.3 130.9 434.9 129.7 434.4 128.4 433.8 127 433.7 126.7 433.9 126.3 434.2 126.2 434.5 126.1 434.8 126.2 434.9 126.5 435.5 128 436 129.4 436.5 130.6 437.4 130.4 438.3 130 439.1 129.6 439.4 129.5 439.7 129.6 439.9 129.9 440 130.2 439.9 130.6 439.6 130.7 438.7 131.1 437.8 131.5 436.9 131.8 436.9 131.9 436.9 132 437 132.2 437.1 132.5 436.9 132.8 436.6 132.9 436.6 132.9 436.6 132.9 436.6 132.9ZM441.9 128.7C441.7 128.4 441.8 128.1 442 127.9 443 127.1 443.8 126.3 444.6 125.4 445 124.8 445.4 124.2 445.8 123.6 446 123.3 446.3 123.2 446.6 123.4 446.9 123.6 447 123.9 446.8 124.2 446.4 124.9 446 125.5 445.5 126.1 444.7 127.1 443.8 128 442.8 128.8 442.7 128.8 442.6 128.9 442.6 128.9 442.3 129 442.1 128.9 441.9 128.7ZM430 132.5C427.9 132.4 425.9 132 424.1 131.2 423.8 131 423.6 130.7 423.8 130.4 423.9 130.1 424.2 130 424.5 130.1 426.3 130.8 428.1 131.2 430.1 131.4 430.4 131.4 430.7 131.7 430.7 132 430.6 132.2 430.5 132.4 430.3 132.5 430.2 132.5 430.1 132.5 430 132.5ZM447.6 121.2C447.3 121.1 447.1 120.8 447.2 120.5 447.8 118.7 448.1 116.8 448.1 114.8 448.1 114.5 448.4 114.2 448.7 114.2 449 114.2 449.3 114.5 449.3 114.8 449.3 116.9 449 118.9 448.4 120.9 448.3 121 448.2 121.2 448 121.2 447.9 121.3 447.7 121.3 447.6 121.2ZM420.8 129.4C420.4 129.1 420 128.7 419.6 128.4 418.4 127.4 417.5 126.1 416.8 124.8 416.6 124.5 416.7 124.1 417 124 417.3 123.8 417.7 123.9 417.8 124.2 418.4 125.5 419.3 126.6 420.4 127.5 420.7 127.8 421.1 128.1 421.5 128.4 421.8 128.6 421.9 129 421.7 129.3 421.6 129.4 421.5 129.4 421.4 129.5 421.2 129.5 421 129.5 420.8 129.4ZM432.5 123.7C431.5 121.6 430.6 120 429.5 118.7 429.3 118.5 429.3 118.1 429.6 117.9 429.8 117.7 430.2 117.7 430.4 118 431.5 119.3 432.5 121 433.5 123.2 433.7 123.5 433.5 123.9 433.2 124 433.2 124 433.2 124 433.2 124 432.9 124.1 432.6 124 432.5 123.7ZM448.5 111.8C448.2 111.9 447.9 111.7 447.8 111.4 447.6 110.5 447.4 109.6 447.1 108.8 446.8 107.8 446.4 106.9 445.9 106 445.7 105.7 445.8 105.3 446.1 105.2 446.4 105 446.8 105.1 446.9 105.4 447.5 106.4 447.9 107.4 448.3 108.5 448.5 109.3 448.8 110.2 449 111.2 449 111.4 448.8 111.7 448.6 111.8 448.5 111.8 448.5 111.8 448.5 111.8ZM416.3 121.7C416 121.7 415.7 121.5 415.6 121.2 415.5 119.4 415.9 117.9 416.8 116.6 417.1 116.1 417.5 115.7 418 115.4 418.3 115.2 418.6 115.2 418.8 115.5 419 115.7 419 116.1 418.7 116.3 418.4 116.6 418 116.9 417.8 117.3 417 118.3 416.7 119.6 416.8 121 416.9 121.3 416.7 121.6 416.4 121.7 416.4 121.7 416.3 121.7 416.3 121.7ZM427 116.5C425.5 115.5 423.5 115 421.7 115.2 421.4 115.2 421.1 115 421.1 114.6 421 114.3 421.3 114 421.6 114 423.7 113.8 425.9 114.3 427.7 115.5 427.9 115.6 428 116 427.8 116.3 427.8 116.4 427.7 116.5 427.5 116.5 427.4 116.6 427.2 116.6 427 116.5Z" class="g"/><path d="M423.4 166.9C423.6 166.9 423.8 166.6 423.8 166.3 423.7 166 423.4 165.8 423.1 165.8 422.2 165.9 421.2 165.9 420.3 165.9 420 165.8 419.7 166.1 419.7 166.4 419.6 166.7 419.9 167 420.2 167 421.2 167.1 422.2 167.1 423.3 167 423.3 167 423.3 167 423.4 166.9Z" class="g"/><path d="M335 25.8C353.9 25.8 369.2 40.4 369.2 58.4V363C369.2 381 353.9 395.6 335 395.6H214.4C195.5 395.6 180.2 381 180.2 363V58.4C180.2 40.4 195.5 25.8 214.4 25.8H335Z" class="g"/><path d="M338.9 31.6C356.8 31.6 364 45.4 364 62.5V359C364 376 356.8 389.8 338.9 389.8H212.9C195.1 389.8 185.4 378.2 185.4 361.2V60.3C185.4 43.2 195.1 31.6 212.9 31.6H338.9V31.6Z" class="a"/><path d="M356.9 76H192.4V343.6H356.9V76Z" class="e"/><path d="M276.3 380.3C282.8 380.3 288 375.1 288 368.6 288 362.1 282.8 356.9 276.3 356.9 269.9 356.9 264.6 362.1 264.6 368.6 264.6 375.1 269.9 380.3 276.3 380.3Z" class="g"/><path d="M307.2 56.3C307.6 56.3 307.9 55.7 307.9 55 307.9 54.4 307.6 53.8 307.2 53.8H243.1C242.7 53.8 242.4 54.4 242.4 55 242.4 55.7 242.7 56.3 243.1 56.3H307.2Z" class="b"/><path d="M320.2 115.7V126.1H304.9V140.6H305.3V246.8C305.3 255.1 298.5 261.9 290.2 261.9 288.9 261.9 208.7 262 208.7 262V139.9C208.7 126.5 219.6 115.7 233 115.7H320.2Z" fill="url(#paint6_linear)"/><path d="M267.8 211.9V220.7H254.7V232.7H253V321.2C253 328.1 246.2 333.8 237.9 333.8 236.5 333.8 156.4 333.8 156.4 333.8V232.2C156.4 221 167.2 211.9 180.7 211.9H267.8Z" fill="url(#paint7_linear)"/><path d="M266.3 211.3C271.4 211.3 275.6 215.5 275.6 220.7V250.4C275.6 256.8 279.4 260.4 284.1 262H252.7V226.4C252.7 218.1 258.8 211.3 266.3 211.3Z" class="g"/><path d="M212.6 284.6V293.4H200.5V305.4H197.7V393.9C197.7 400.8 190.9 406.5 182.6 406.5 181.3 406.5 101.1 406.5 101.1 406.5V304.9C101.1 293.7 112 284.6 125.4 284.6H212.6Z" fill="url(#paint8_linear)"/><path d="M211.1 283.2C216.3 283.2 220.5 287.4 220.5 292.5V322.2C220.5 328.6 224.2 332.2 229 333.8H197.6V298.3C197.6 290 203.7 283.2 211.1 283.2Z" class="g"/><path d="M319.7 114.1C325.7 114.1 330.7 119.1 330.7 125.1V216.9C330.7 223.3 336.1 231.3 342.4 233.4V234.4H304.6V129.1C304.5 120.8 311.4 114.1 319.7 114.1Z" class="g"/><path d="M169.5 313.4H117.3V315.6H169.5V313.4Z" class="b"/><path d="M169.5 322.2H117.3V324.4H169.5V322.2Z" class="b"/><path d="M229.5 232.7H177.4V234.9H229.5V232.7Z" class="b"/><path d="M229.5 241.4H177.4V243.6H229.5V241.4Z" class="b"/><path d="M229.5 251.3H177.4V253.5H229.5V251.3Z" class="b"/><path d="M229.5 260.1H177.4V262.2H229.5V260.1Z" class="b"/><path d="M282.5 134.8H230.4V137H282.5V134.8Z" class="b"/><path d="M282.5 143.6H230.4V145.7H282.5V143.6Z" class="b"/><path d="M282.5 153.4H230.4V155.6H282.5V153.4Z" class="b"/><path d="M282.5 162.2H230.4V164.4H282.5V162.2Z" class="b"/><path d="M282.5 171.7H230.4V173.9H282.5V171.7Z" class="b"/><path d="M282.5 180.5H230.4V182.7H282.5V180.5Z" class="b"/><path d="M282.5 190.3H230.4V192.5H282.5V190.3Z" class="b"/><path d="M282.5 199.1H230.4V201.3H282.5V199.1Z" class="b"/><path d="M285.2 18H175.2C175.2 56.3 147.9 92.3 147.9 92.3H285.2V18Z" class="d"/><path d="M148.7 91.6C149.5 99.5 156.2 105.7 164.3 105.7 172.4 105.7 179.1 99.5 179.9 91.6H148.7Z" class="h"/><path d="M179.2 91.6C180 99.5 186.7 105.7 194.8 105.7 202.9 105.7 209.6 99.5 210.4 91.6H179.2Z" class="h"/><path d="M210.5 91.6C211.2 99.5 217.9 105.7 226 105.7 234.1 105.7 240.8 99.5 241.6 91.6H210.5Z" class="h"/><path d="M241 91.6C241.8 99.5 248.4 105.7 256.5 105.7 264.6 105.7 271.3 99.5 272.1 91.6H241Z" class="h"/><path d="M285.2 91.6H272.5C273.2 98.6 278.4 104.2 285.2 105.4V91.6Z" class="h"/><path d="M260.2 18H370.3C370.3 56.3 397.6 92.3 397.6 92.3H260.2V18Z" class="d"/><path d="M396.7 91.6C396 99.5 389.3 105.7 381.2 105.7 373.1 105.7 366.4 99.5 365.6 91.6H396.7Z" class="h"/><path d="M366.2 91.6C365.4 99.5 358.8 105.7 350.7 105.7 342.6 105.7 335.9 99.5 335.1 91.6H366.2Z" class="h"/><path d="M335 91.6C334.2 99.5 327.6 105.7 319.5 105.7 311.3 105.7 304.7 99.5 303.9 91.6H335Z" class="h"/><path d="M304.5 91.6C303.7 99.5 297.1 105.7 288.9 105.7 280.8 105.7 274.2 99.5 273.4 91.6H304.5Z" class="h"/><path d="M260.2 91.6H273C272.3 98.6 267 104.2 260.2 105.4V91.6Z" class="h"/><path d="M340.1 150.3C352.7 175.3 340.1 188.6 340.1 188.6 340.1 188.6 397.9 179.9 455 188.6 443.9 168.5 455 150.1 455 150.1 455 150.1 419.2 146.3 340.1 150.3Z" class="e"/><path d="M381.2 170.6C381.2 172.4 380.7 173.8 379.7 174.9 378.1 176.7 375.5 177.5 371.8 177.5 370.7 177.5 369.8 177.5 369.1 177.4 368.2 177.2 367.4 177 366.8 176.9H366.6V171C367.8 171.2 368.7 171.4 369.5 171.5 370.3 171.6 371.1 171.6 371.8 171.6 372.5 171.6 373 171.6 373.3 171.5 374 171.3 374.3 171 374.3 170.5 374.3 170.2 374.2 169.9 373.9 169.7 373.8 169.6 373.1 169.3 371.6 168.8 369.5 168 368.1 167.1 367.4 166 366.7 165.1 366.4 164 366.4 162.6 366.4 160.7 367 159.2 368.1 158 369.5 156.6 371.7 155.8 374.5 155.8 375.5 155.8 376.4 155.9 377.2 155.9 378 156 378.9 156.1 380 156.4V162.3C378.9 162 378.1 161.8 377.4 161.7 376.7 161.6 376.1 161.6 375.5 161.6 374.6 161.6 374 161.7 373.6 161.8 373.2 162 373 162.2 373 162.6 373 163 373.4 163.3 374.2 163.6 374.5 163.8 374.9 163.9 375.3 164 377.3 164.9 378.7 165.6 379.5 166.4 380.6 167.5 381.2 168.9 381.2 170.6Z" class="a"/><path d="M403.1 177.1L396 177.5 395 173.9H389.3L388.2 177.5 381.4 177.1 388.2 156.3H396.1L403.1 177.1ZM393.7 168.8L392.1 162.2 390.4 168.8H393.7Z" class="a"/><path d="M417.6 170.9L416.2 177H403.9V156.3L410.5 155.8V170.9H417.6Z" class="a"/><path d="M432.5 171.3L431.1 177H419.2V156.3H430.7L432 161.9H425.7V163.9H429.8V169.1H425.7V171.3H432.5Z" class="a"/></g><defs><linearGradient x1="476.3" y1="145.7" x2="308.2" y2="145.7" gradientUnits="userSpaceOnUse"><stop stop-color="#E0F0EB"/><stop offset="1" stop-color="#C0E4EF"/></linearGradient><linearGradient x1="261.4" y1="57.1" x2="93.3" y2="57.1" gradientUnits="userSpaceOnUse"><stop stop-color="#E0F0EB"/><stop offset="1" stop-color="#C0E4EF"/></linearGradient><linearGradient x1="130" y1="96.3" x2="99" y2="100.8" gradientUnits="userSpaceOnUse"><stop offset="6.3e-07" stop-color="#F1F8F8"/><stop offset="1" stop-color="#C0E4EF"/></linearGradient><linearGradient x1="131.4" y1="105.6" x2="106.4" y2="109.3" gradientUnits="userSpaceOnUse"><stop offset="6.3e-07" stop-color="#F1F8F8"/><stop offset="1" stop-color="#C0E4EF"/></linearGradient><linearGradient x1="417.6" y1="81.9" x2="448.5" y2="86.5" gradientUnits="userSpaceOnUse"><stop offset="6.3e-07" stop-color="#F1F8F8"/><stop offset="1" stop-color="#C0E4EF"/></linearGradient><linearGradient x1="416.2" y1="91.3" x2="441.1" y2="94.9" gradientUnits="userSpaceOnUse"><stop offset="6.3e-07" stop-color="#F1F8F8"/><stop offset="1" stop-color="#C0E4EF"/></linearGradient><linearGradient x1="262.4" y1="113.9" x2="267" y2="282.9" gradientUnits="userSpaceOnUse"><stop stop-color="#E0F0EB"/><stop offset="1" stop-color="#C0E4EF"/></linearGradient><linearGradient x1="212.4" y1="204.4" x2="210.5" y2="337.4" gradientUnits="userSpaceOnUse"><stop stop-color="#EBF5F4"/><stop offset="1" stop-color="#C0E4EF"/></linearGradient><linearGradient x1="157.2" y1="289.5" x2="151.7" y2="429.8" gradientUnits="userSpaceOnUse"><stop offset="0.2784" stop-color="#EBF5F4"/><stop offset="1" stop-color="#C0E4EF"/></linearGradient><clipPath><rect width="392.3" height="388.5" class="a"/></clipPath></defs></svg>
