<svg xmlns="http://www.w3.org/2000/svg" width="560" height="424" viewBox="0 0 560 424" fill="none"><style>.a{fill:gray-200;}.b{fill:#63C1C5;}.c{fill:#FFD247;}.d{fill:#01898C;}.e{fill:#00666A;}.f{fill:#11375B;}.g{fill:#B0D9C8;}.h{fill:#043C5E;}.i{fill:#212B53;}.j{fill:#3F3B3B;}.k{fill:#93CFC7;}.l{fill:#F59C42;}.m{fill:#FAB746;}.n{fill:#F7A605;}</style><rect width="560" height="424" class="a"/><g clip-path="url(#clip0)"><path d="M362.5 137.3H102.1C102.1 137.3 88 119.4 102.1 107.4 109.9 100.7 119.1 101.4 125.8 103.4 130.1 104.6 134.5 101.7 135.4 97.3 137 89.9 141.9 80.3 155.9 74.6 169.7 69.1 178.4 77.6 183.5 86.4 185.1 89.2 189.6 88.8 190.6 85.6 194.9 71.8 210.2 53.5 260.2 53.5 323.9 53.5 316.8 87.3 311.1 101.4 310.1 103.8 312.2 106.3 314.8 105.8 324.6 103.7 342.8 101 351 107.4 362.5 116.4 362.5 137.3 362.5 137.3Z" fill="url(#paint0_linear)"/><path d="M181.5 231.3C181.5 231.3 133 146.3 64.2 147.9 25.5 221 100.4 276.6 100.4 276.6L183.4 297.3 181.5 231.3Z" class="b"/><path d="M135 176.4L121.5 217.6 65.9 147.9C65.3 147.9 64.8 147.9 64.2 147.9 64.1 148.2 64 148.5 63.8 148.7L93.6 186.1 53.4 184.1C53.3 184.5 53.3 184.9 53.3 185.3L53.2 186.3 95.4 188.3 145 250.6 74.3 249.4C74.8 250.1 75.4 250.8 75.9 251.6L146.8 252.7 182 296.9 183.4 297.3 183.3 295.2 123.1 219.6 136.8 177.9C136.2 177.4 135.6 176.9 135 176.4Z" class="a"/><path d="M164.6 274.9C164.6 274.9 90.5 240.5 51 278.5 74.4 387.9 215.3 365.9 215.3 365.9L164.6 274.9Z" class="c"/><path d="M51 278.5C51.1 278.9 51.2 279.3 51.3 279.7L154.8 318.5 103.2 349.3C103.9 349.7 104.7 350.1 105.4 350.5L157.4 319.4 197.8 334.6 196.2 331.7 117.5 302.2 98.3 260.7C97.5 260.7 96.8 260.7 96 260.8L114.6 301.1 51.9 277.7C51.6 277.9 51.3 278.2 51 278.5Z" class="a"/><path d="M347.2 169.3C347.2 169.3 326.5 81.7 380.4 43.6 474.9 106.4 412.9 199.2 412.9 199.2L347.2 169.3Z" class="c"/><path d="M380.4 43.6C380.7 43.8 381 44 381.4 44.2L379.1 150.3 429.9 107.9C430.1 108.6 430.2 109.3 430.4 110L379.1 152.9 378.4 183.5 376.4 182.6 377.7 121.6 346.3 99.7C346.4 99 346.6 98.3 346.8 97.6L377.8 119.2 379.4 44.3C379.7 44.1 380 43.8 380.4 43.6Z" class="a"/><path d="M372.1 151.6C372.1 151.6 410.6 70.5 473.7 67.2 514.2 131.5 449.4 187.5 449.4 187.5L374.8 212.1 372.1 151.6Z" class="d"/><path d="M410.9 98.2L426.1 134.9 472.2 67.3C472.7 67.3 473.2 67.2 473.7 67.2 473.9 67.4 474 67.7 474.2 68L449.5 104.2 486.2 99.6C486.2 100 486.3 100.3 486.3 100.7L486.4 101.6 448 106.4 406.8 166.7 471.4 160.8C471 161.5 470.6 162.3 470.1 162.9L405.3 168.9 376.1 211.7 374.8 212.2 374.7 210.2 424.7 136.9 409.3 99.7C409.8 99.2 410.3 98.7 410.9 98.2Z" class="e"/><path d="M390.5 190.4C390.5 190.4 456 153.8 494.8 185.9 480.8 287.7 350.3 277.1 350.3 277.1L390.5 190.4Z" class="f"/><path d="M494.8 185.9C494.7 186.3 494.6 186.7 494.6 187L402.4 229.6 451.8 254.3C451.2 254.7 450.5 255.1 449.9 255.5L400.1 230.6 364.1 247.3 365.4 244.5 435.5 212.1 450.2 172.8C450.9 172.8 451.6 172.7 452.4 172.7L438.1 211 493.9 185.2C494.2 185.4 494.5 185.6 494.8 185.9Z" class="e"/><path d="M318.3 323.2L122.9 323.4 62.4 372.1H318.3V323.2Z" class="b"/><path d="M318.3 372.1H62.4C62.4 380.6 68.2 387.5 75.5 387.5H318.3V372.1Z" class="d"/><path d="M233.5 323.2L429 323.4 489.4 372.1H233.5V323.2Z" class="b"/><path d="M233.5 372.1H489.4C489.4 380.6 483.6 387.5 476.4 387.5H233.5V372.1Z" class="d"/><path d="M430.6 327.7H124.3C121.2 327.7 118.7 325.2 118.7 322.1V131.3C118.7 128.2 121.2 125.7 124.3 125.7H430.6C433.7 125.7 436.2 128.2 436.2 131.3V322.1C436.2 325.1 433.7 327.7 430.6 327.7Z" class="d"/><path d="M418.2 311.7H136.6C132.5 311.7 129.1 308.4 129.1 304.2V144.7C129.1 140.6 132.5 137.3 136.6 137.3H418.2C422.3 137.3 425.6 140.6 425.6 144.7V304.2C425.6 308.4 422.3 311.7 418.2 311.7Z" class="a"/><path d="M348.5 362.9H342.3C341.8 362.9 341.2 362.5 341 362L339.1 358.3C338.6 357.3 339.4 356.1 340.5 356.1H346.4C346.9 356.1 347.4 356.4 347.7 356.9L349.8 360.6C350.4 361.6 349.7 362.9 348.5 362.9Z" class="a"/><path d="M361.4 362.9H355.4C354.9 362.9 354.4 362.6 354.1 362.1L351.9 358.4C351.3 357.4 352 356.1 353.2 356.1H358.9C359.4 356.1 359.9 356.4 360.1 356.8L362.7 360.5C363.3 361.5 362.6 362.9 361.4 362.9Z" class="a"/><path d="M188.4 337.3H174.6C173.9 337.3 173.5 336.4 174 335.9L176.8 333.2C177 333 177.2 332.9 177.4 332.9H190.7C191.5 332.9 191.8 333.8 191.4 334.3L189 337.1C188.9 337.2 188.7 337.3 188.4 337.3Z" class="a"/><path d="M328.4 362.9H209.2C208.2 362.9 207.5 361.8 208 360.9L210.2 356.8C210.5 356.4 210.9 356.1 211.4 356.1H326.8C327.3 356.1 327.8 356.5 328 357L329.7 361C330 361.9 329.4 362.9 328.4 362.9Z" class="a"/><path d="M165.4 337.3H151.8C151 337.3 150.7 336.4 151.3 335.9L154.7 333.1C154.8 333 155 332.9 155.2 332.9H168.3C169.1 332.9 169.4 333.9 168.9 334.4L165.9 337.1C165.8 337.3 165.6 337.3 165.4 337.3Z" class="a"/><path d="M235.7 337.3H221.5C220.8 337.3 220.4 336.7 220.7 336.1L222.3 333.4C222.4 333.1 222.7 332.9 223 332.9H236.8C237.4 332.9 237.8 333.5 237.6 334.1L236.5 336.8C236.4 337.1 236.1 337.3 235.7 337.3Z" class="a"/><path d="M212.7 337.3H198.7C198 337.3 197.6 336.5 198 336L200.1 333.3C200.3 333.1 200.5 333 200.8 333H214.4C215.1 333 215.5 333.7 215.1 334.2L213.4 337C213.3 337.2 213 337.3 212.7 337.3Z" class="a"/><path d="M282.7 337.3H268.7C268.1 337.3 267.6 336.8 267.7 336.2L267.9 333.9C267.9 333.3 268.4 332.9 268.9 332.9H282.5C283.1 332.9 283.5 333.4 283.6 333.9L283.7 336.3C283.7 336.8 283.3 337.3 282.7 337.3Z" class="a"/><path d="M260 337.3H245.6C245 337.3 244.6 336.8 244.8 336.3L245.7 333.5C245.8 333.2 246.1 332.9 246.5 332.9H260.4C260.9 332.9 261.3 333.4 261.2 333.9L260.8 336.6C260.7 337 260.4 337.3 260 337.3Z" class="a"/><path d="M178.7 348.7H163.1C162.3 348.7 162 347.8 162.5 347.3L166.3 343.5C166.4 343.4 166.7 343.3 166.9 343.3H181.9C182.6 343.3 183 344.1 182.5 344.7L179.3 348.4C179.1 348.6 178.9 348.7 178.7 348.7Z" class="a"/><path d="M153.1 348.7H137.8C137 348.7 136.7 347.7 137.3 347.2L141.9 343.5C142 343.4 142.2 343.3 142.4 343.3H157.1C157.9 343.3 158.2 344.2 157.7 344.7L153.7 348.5C153.5 348.6 153.3 348.7 153.1 348.7Z" class="a"/><path d="M231.2 348.7H215.2C214.5 348.7 214.1 348 214.4 347.5L216.5 343.7C216.7 343.5 216.9 343.3 217.2 343.3H232.7C233.3 343.3 233.7 343.9 233.4 344.4L231.9 348.2C231.8 348.5 231.5 348.7 231.2 348.7Z" class="a"/><path d="M205.6 348.7H189.8C189.1 348.7 188.7 347.9 189.2 347.4L192.1 343.6C192.2 343.4 192.5 343.3 192.7 343.3H208C208.6 343.3 209 344 208.7 344.6L206.4 348.3C206.2 348.6 205.9 348.7 205.6 348.7Z" class="a"/><path d="M283.3 348.7H267.6C267 348.7 266.5 348.2 266.6 347.6L266.9 344.2C266.9 343.7 267.4 343.3 267.9 343.3H283.2C283.7 343.3 284.1 343.7 284.2 344.3L284.4 347.6C284.4 348.2 283.9 348.7 283.3 348.7Z" class="a"/><path d="M258.1 348.7H242C241.4 348.7 241 348.2 241.2 347.6L242.4 343.9C242.5 343.5 242.8 343.3 243.2 343.3H258.7C259.2 343.3 259.6 343.8 259.5 344.3L258.9 348C258.8 348.4 258.5 348.7 258.1 348.7Z" class="a"/><path d="M363.3 337.3H377.1C377.8 337.3 378.2 336.4 377.6 335.9L374.9 333.2C374.7 333 374.5 332.9 374.3 332.9H360.9C360.2 332.9 359.8 333.8 360.3 334.3L362.6 337.1C362.8 337.2 363 337.3 363.3 337.3Z" class="a"/><path d="M386.3 337.3H399.8C400.6 337.3 401 336.4 400.4 335.9L397 333.1C396.8 333 396.6 332.9 396.5 332.9H383.3C382.6 332.9 382.2 333.9 382.8 334.4L385.7 337.1C385.9 337.3 386.1 337.3 386.3 337.3Z" class="a"/><path d="M316 337.3H330.2C330.8 337.3 331.2 336.7 330.9 336.1L329.4 333.4C329.3 333.1 329 332.9 328.7 332.9H314.9C314.3 332.9 313.9 333.5 314.1 334.1L315.2 336.8C315.3 337.1 315.6 337.3 316 337.3Z" class="a"/><path d="M339 337.3H353C353.7 337.3 354.1 336.5 353.7 336L351.5 333.3C351.4 333.1 351.1 333 350.9 333H337.3C336.6 333 336.2 333.7 336.5 334.2L338.2 337C338.4 337.2 338.7 337.3 339 337.3Z" class="a"/><path d="M291.7 337.3H306.1C306.6 337.3 307.1 336.8 306.9 336.3L306 333.5C305.9 333.2 305.6 332.9 305.2 332.9H291.3C290.8 332.9 290.4 333.4 290.4 333.9L290.9 336.6C291 337 291.3 337.3 291.7 337.3Z" class="a"/><path d="M373 348.7H388.6C389.3 348.7 389.7 347.8 389.2 347.3L385.4 343.5C385.2 343.4 385 343.3 384.8 343.3H369.8C369.1 343.3 368.7 344.1 369.2 344.7L372.4 348.4C372.5 348.6 372.8 348.7 373 348.7Z" class="a"/><path d="M398.6 348.7H413.9C414.7 348.7 415 347.7 414.4 347.2L409.8 343.5C409.6 343.4 409.5 343.3 409.3 343.3H394.5C393.8 343.3 393.4 344.2 394 344.7L398 348.5C398.2 348.6 398.4 348.7 398.6 348.7Z" class="a"/><path d="M320.5 348.7H336.5C337.1 348.7 337.5 348 337.2 347.5L335.2 343.7C335 343.5 334.7 343.3 334.4 343.3H319C318.4 343.3 318 343.9 318.2 344.4L319.7 348.2C319.9 348.5 320.2 348.7 320.5 348.7Z" class="a"/><path d="M346 348.7H361.8C362.5 348.7 362.9 347.9 362.5 347.4L359.6 343.6C359.4 343.4 359.2 343.3 358.9 343.3H343.7C343.1 343.3 342.7 344 343 344.6L345.3 348.3C345.5 348.6 345.7 348.7 346 348.7Z" class="a"/><path d="M293.6 348.7H309.7C310.3 348.7 310.7 348.2 310.5 347.6L309.3 343.9C309.2 343.5 308.9 343.3 308.5 343.3H293C292.5 343.3 292.1 343.8 292.1 344.3L292.8 348C292.8 348.4 293.2 348.7 293.6 348.7Z" class="a"/><path d="M142.9 305.7L412.7 305.1 412.7 144.8 142.9 145.1 142.9 156.7V305.7Z" class="f"/><path d="M142.9 143.7V165.5H412.9L413 144.1 142.9 143.7Z" class="c"/><path d="M388.4 154.4C388 157.3 390 159.6 392.9 159.5 395.7 159.5 398.3 157.2 398.6 154.3 399 151.4 397 149.1 394.1 149.1 391.3 149.2 388.7 151.5 388.4 154.4Z" class="a"/><path d="M373.7 154.6C373.4 157.4 375.4 159.7 378.2 159.7 381 159.7 383.6 157.3 383.9 154.5 384.3 151.6 382.3 149.3 379.5 149.3 376.7 149.3 374.1 151.7 373.7 154.6Z" fill="#222C53"/><path d="M202 50.1L178.7 38.7 167 37 158.3 38.7 202 50.1Z" fill="url(#paint1_linear)"/><path d="M202 50.1L159 41.3 158.3 38.7" class="g"/><path d="M158.1 48.7L158.2 48.8 160.3 55.3 201.9 50.1 158.1 48.7Z" class="b"/><path d="M149.9 45.2L155.7 40 201.7 50.1 162.5 50.9 149.9 45.2Z" fill="url(#paint2_linear)"/><path d="M58.5 134.1C59.9 133.5 61.2 132.8 62.5 132.1 62.8 131.9 63.2 132 63.4 132.3 63.5 132.6 63.4 133 63.1 133.2 61.8 133.9 60.4 134.6 59 135.2 58.5 135.4 58 135.6 57.4 135.8 57.3 135.9 57.1 135.8 56.9 135.7 56.8 135.7 56.7 135.5 56.7 135.4 56.5 135.1 56.7 134.7 57 134.6 57.5 134.5 58 134.3 58.5 134.1Z" class="b"/><path d="M137.2 41.2C139.2 41.4 141.2 41.6 143.4 41.9 143.7 41.9 144 42.3 143.9 42.6 143.9 42.9 143.6 43.2 143.2 43.1 141 42.8 139 42.6 137.1 42.5 137 42.4 136.9 42.4 136.8 42.4 136.6 42.2 136.5 42 136.6 41.8 136.6 41.5 136.9 41.2 137.2 41.2Z" class="b"/><path d="M127 42.2C126.8 42.1 126.7 41.9 126.7 41.7 126.7 41.4 126.9 41.1 127.3 41.1 129.2 41 131.3 40.9 133.5 41 133.8 41 134.1 41.3 134.1 41.7 134.1 42 133.8 42.3 133.5 42.3 131.3 42.2 129.3 42.2 127.3 42.3 127.2 42.3 127.1 42.3 127 42.2Z" class="b"/><path d="M70.1 126C70.3 125.8 70.7 125.8 70.9 126 71.2 126.2 71.2 126.6 71 126.9 69.5 128.4 68 129.8 66.3 131.1 66.1 131.2 65.8 131.2 65.6 131.1 65.5 131.1 65.5 131 65.4 130.9 65.2 130.7 65.3 130.3 65.6 130.1 67.2 128.9 68.7 127.5 70.1 126Z" class="b"/><path d="M72.5 124.1C72.2 123.9 72.2 123.5 72.4 123.2 72.7 122.8 73 122.4 73.3 121.9 74.1 120.7 74.9 119.4 75.5 118.1 75.7 117.8 76 117.6 76.3 117.8 76.6 117.9 76.8 118.3 76.6 118.6 76 120 75.2 121.3 74.4 122.6 74 123.1 73.7 123.5 73.4 124 73.2 124.2 72.8 124.3 72.5 124.1 72.5 124.1 72.5 124.1 72.5 124.1Z" class="b"/><path d="M77.3 115.5C77.2 115.5 77.2 115.5 77.2 115.4 76.9 115.3 76.8 115 76.9 114.7 77.6 112.9 78.1 111 78.5 108.8 78.6 108.5 78.9 108.3 79.2 108.4 79.6 108.4 79.8 108.7 79.7 109.1 79.3 111.3 78.7 113.3 78.1 115.1 78 115.4 77.6 115.6 77.3 115.5Z" class="b"/><path d="M91 62.1C90.6 62.7 90.1 63.4 89.6 64 89 65.1 88.3 66.1 87.7 67.2 87.6 67.5 87.2 67.6 86.9 67.4 86.9 67.4 86.9 67.4 86.8 67.4 86.6 67.2 86.5 66.8 86.7 66.6 87.3 65.5 87.9 64.4 88.6 63.4 89.1 62.7 89.6 62 90.1 61.3 90.3 61 90.6 60.9 90.9 61.2 91.2 61.4 91.2 61.8 91 62.1Z" class="b"/><path d="M86.1 70.4C85.2 72.3 84.5 74.2 83.9 76.1 83.8 76.4 83.4 76.6 83.1 76.5 83.1 76.5 83 76.5 83 76.4 82.7 76.3 82.6 76 82.7 75.8 83.3 73.8 84.1 71.8 84.9 69.9 85.1 69.6 85.4 69.5 85.8 69.6 86.1 69.7 86.2 70.1 86.1 70.4Z" class="b"/><path d="M97.6 54.8C96.1 56.2 94.6 57.7 93.3 59.2 93.1 59.4 92.8 59.5 92.5 59.3 92.5 59.3 92.5 59.3 92.4 59.3 92.2 59 92.2 58.6 92.4 58.4 93.7 56.8 95.2 55.3 96.7 53.9 97 53.7 97.4 53.7 97.6 54 97.8 54.2 97.8 54.6 97.6 54.8Z" class="b"/><path d="M108.6 47.3C108.4 47.4 108.2 47.3 108 47.2 107.9 47.2 107.8 47.1 107.8 47 107.6 46.7 107.7 46.3 108 46.1 109.9 45.2 111.8 44.4 113.8 43.7 114.1 43.6 114.5 43.8 114.6 44.1 114.7 44.4 114.5 44.7 114.2 44.9 112.3 45.5 110.4 46.3 108.6 47.3Z" class="b"/><path d="M80.6 96.1C80.4 96.1 80.3 96 80.3 96 80.1 95.9 80 95.6 80 95.4L80 94.6C80.2 92.8 80.3 91 80.4 89.3 80.4 88.9 80.7 88.7 81.1 88.7 81.4 88.7 81.7 89 81.6 89.4 81.5 91.2 81.4 92.9 81.3 94.7L81.2 95.5C81.2 95.8 80.9 96.1 80.6 96.1Z" class="b"/><path d="M100.4 52.5C100.2 52.6 99.9 52.6 99.6 52.5 99.6 52.5 99.5 52.4 99.5 52.4 99.3 52.1 99.3 51.7 99.6 51.5 101.3 50.2 103 49 104.8 48 105.1 47.8 105.4 47.9 105.6 48.2 105.8 48.5 105.7 48.8 105.4 49 103.7 50.1 102 51.2 100.4 52.5Z" class="b"/><path d="M80.4 98.5C80.7 98.6 81 98.9 81 99.2 80.8 101.6 80.6 103.6 80.3 105.4 80.3 105.7 80 106 79.6 105.9 79.5 105.9 79.4 105.9 79.4 105.8 79.2 105.7 79.1 105.5 79.1 105.2 79.3 103.4 79.5 101.5 79.7 99.1 79.7 98.8 80 98.5 80.4 98.5Z" class="b"/><path d="M53.5 135.7C53.9 135.6 54.2 135.8 54.3 136.1 54.4 136.5 54.2 136.8 53.8 136.9 51.9 137.4 49.9 137.7 47.7 138 47.5 138 47.4 138 47.3 137.9 47.1 137.8 47 137.6 47 137.4 47 137.1 47.2 136.8 47.5 136.8 49.7 136.5 51.7 136.1 53.5 135.7Z" class="b"/><path d="M82.5 78.9C82.8 79 83.1 79.3 83 79.6 82.6 81.5 82.3 83.5 82 85.7 82 86 81.6 86.3 81.3 86.2 81.2 86.2 81.1 86.2 81 86.1 80.9 86 80.7 85.8 80.8 85.5 81 83.3 81.4 81.3 81.8 79.4 81.8 79.1 82.2 78.8 82.5 78.9Z" class="b"/><path d="M121.4 41.7C122.1 41.6 122.8 41.5 123.5 41.4 123.9 41.4 124.2 41.6 124.2 42 124.3 42.3 124 42.6 123.7 42.7 123 42.7 122.3 42.8 121.6 43 120.3 43.2 119 43.5 117.7 43.8 117.5 43.9 117.3 43.8 117.2 43.7 117.1 43.6 117 43.5 116.9 43.4 116.9 43 117.1 42.7 117.4 42.6 118.7 42.3 120 42 121.4 41.7Z" class="b"/><path d="M243 149.1H152.8V159.7H243V149.1Z" class="a"/><path d="M279 96.1V111.2H301.1V132.1H300.4V285.5C300.4 297.5 310.2 307.3 322.2 307.3 324.1 307.3 440 307.4 440 307.4V131.2C440 111.8 424.2 96.1 404.9 96.1H279Z" fill="url(#paint3_linear)"/><path d="M263.9 125.2V111.2C263.9 102.5 271 95.3 279.8 95.3 291.8 95.3 301.6 105 301.6 116.9V125.2H263.9V125.2Z" class="b"/><path d="M422.5 180.8H318.6V183.9H422.5V180.8Z" class="d"/><path d="M422.5 190.2H318.6V193.4H422.5V190.2Z" class="d"/><path d="M422.5 200.1H318.6V203.3H422.5V200.1Z" class="d"/><path d="M422.5 209.6H318.6V212.7H422.5V209.6Z" class="d"/><path d="M445.6 307.4C421.6 307.4 328.6 307.4 328.6 307.4 328.6 307.4 352.3 302.5 344.4 273.4 380.6 273.4 468.9 273.4 468.9 273.4 468.9 273.4 476.8 307.4 445.6 307.4Z" class="b"/><path d="M504.2 166.6L508.1 174.2 499.9 172.4 471.8 163.5 504.2 166.6Z" class="g"/><path d="M508.1 174.2L494.1 173.4 497.6 171.6 508.1 174.2Z" class="b"/><path d="M504.2 166.6L506.6 159.1 471.8 163.5 504.2 166.6Z" fill="url(#paint4_linear)"/><path d="M471.8 163.5L499.9 172.4 495.7 183.2 471.8 163.5Z" fill="url(#paint5_linear)"/><path d="M505 182C505.1 181.9 505.2 181.9 505.2 181.8 505.5 181.6 505.4 181.1 505.2 180.9 504.3 180.2 503.4 179.5 502.4 178.9 502.1 178.7 501.7 178.8 501.5 179.2 501.3 179.5 501.4 179.9 501.7 180.1 502.6 180.6 503.5 181.2 504.3 181.9 504.5 182.1 504.8 182.1 505 182Z" class="b"/><path d="M494.8 253.7C494.6 253.3 494.7 252.9 495 252.8 496.8 251.7 498.4 250.3 499.8 248.6 500.1 248.3 500.5 248.3 500.8 248.5 501 248.7 501.1 249.1 500.9 249.4 499.3 251.3 497.6 252.8 495.7 253.9 495.7 253.9 495.7 253.9 495.7 253.9 495.4 254.1 495 254 494.8 253.7ZM502.3 246.3C502 246.1 501.9 245.7 502 245.4 503.1 243.5 503.9 241.5 504.4 239.4 504.5 239.1 504.9 238.9 505.2 239 505.6 239.1 505.8 239.4 505.7 239.8 505.1 242 504.3 244.1 503.2 246.1 503.1 246.2 503 246.3 502.9 246.3 502.7 246.4 502.5 246.4 502.3 246.3ZM505.6 236.3C505.3 236.3 505 236 505 235.6L505 235.3C505.1 233.3 505 231.3 504.7 229.2 504.7 228.8 504.9 228.5 505.3 228.4 505.6 228.4 506 228.6 506 229 506.3 231.1 506.5 233.3 506.4 235.4L506.3 235.7C506.3 236 506.2 236.2 506 236.3 505.9 236.3 505.7 236.3 505.6 236.3ZM504.7 225.8C504.4 225.9 504 225.7 503.9 225.3 503.4 223.4 502.7 221.3 501.8 219.2 501.6 218.8 501.8 218.4 502.1 218.3 502.5 218.2 502.9 218.3 503 218.7 503.9 220.8 504.6 223 505.2 225 505.3 225.3 505.1 225.6 504.8 225.8 504.8 225.8 504.8 225.8 504.7 225.8ZM501 215.9C500.7 216.1 500.3 215.9 500.1 215.6 500.1 215.4 500 215.3 499.9 215.1 499.2 215.4 498.5 215.6 497.8 215.8 497.4 215.9 497.1 215.7 497 215.4 496.9 215 497.1 214.6 497.4 214.5 498.1 214.4 498.7 214.2 499.3 213.9 498.6 212.6 497.9 211.3 497 209.8 496.8 209.5 496.9 209.1 497.3 208.9 497.6 208.7 498 208.8 498.2 209.1 499 210.7 499.8 212.1 500.5 213.4 501.5 213 502.4 212.5 503.2 211.9 503.5 211.7 504 211.8 504.2 212.1 504.4 212.4 504.3 212.8 504 213 503.1 213.6 502.1 214.1 501.1 214.6 501.2 214.7 501.3 214.9 501.3 215 501.5 215.3 501.4 215.7 501 215.9ZM506.2 210.4C505.9 210.1 505.9 209.7 506.2 209.4 507.1 208.5 507.9 207.4 508.6 206.3 509 205.6 509.4 204.9 509.7 204.2 509.8 203.8 510.2 203.7 510.5 203.8 510.9 203.9 511 204.3 510.9 204.7 510.6 205.5 510.2 206.3 509.7 207 509 208.2 508.1 209.3 507.1 210.4 507.1 210.4 507 210.5 507 210.5 506.7 210.6 506.4 210.6 506.2 210.4ZM493.8 216.5C491.4 216.7 489.1 216.6 487 216 486.6 215.9 486.4 215.6 486.5 215.2 486.6 214.9 486.9 214.6 487.3 214.7 489.3 215.3 491.5 215.4 493.7 215.2 494 215.2 494.3 215.5 494.4 215.8 494.4 216.1 494.2 216.3 494 216.5 493.9 216.5 493.8 216.5 493.8 216.5ZM511.3 201.2C510.9 201.2 510.7 200.8 510.7 200.5 511.1 198.4 511.1 196.3 510.8 194.1 510.7 193.7 511 193.4 511.3 193.3 511.7 193.3 512 193.5 512.1 193.9 512.4 196.2 512.4 198.5 512 200.7 512 200.9 511.9 201.1 511.7 201.2 511.5 201.2 511.4 201.3 511.3 201.2ZM483.1 214.6C482.6 214.3 482.1 214 481.6 213.7 480.2 212.7 478.9 211.5 477.9 210.1 477.7 209.8 477.7 209.4 478 209.2 478.3 209 478.7 209.1 478.9 209.4 479.8 210.6 481 211.7 482.3 212.6 482.7 212.9 483.2 213.1 483.7 213.4 484 213.6 484.2 213.9 484 214.3 483.9 214.4 483.8 214.5 483.7 214.6 483.5 214.7 483.3 214.7 483.1 214.6ZM495 206.4C493.6 204.2 492.3 202.7 490.9 201.4 490.7 201.2 490.6 200.8 490.9 200.5 491.1 200.2 491.5 200.2 491.8 200.5 493.2 201.8 494.6 203.4 496.1 205.7 496.3 206 496.2 206.4 495.9 206.6 495.9 206.6 495.8 206.6 495.8 206.7 495.5 206.8 495.2 206.7 495 206.4ZM510.7 190.8C510.4 190.9 510 190.7 509.9 190.4 509.6 189.4 509.2 188.5 508.7 187.7 508.2 186.6 507.6 185.6 506.9 184.7 506.7 184.4 506.7 184 507 183.8 507.3 183.6 507.7 183.6 507.9 183.9 508.7 184.9 509.3 186 509.9 187.1 510.4 188 510.8 188.9 511.1 189.9 511.2 190.2 511.1 190.6 510.8 190.7 510.8 190.7 510.7 190.8 510.7 190.8ZM476.8 206.8C476.5 206.9 476.1 206.7 476 206.3 475.6 204.5 475.8 202.7 476.6 201.1 476.9 200.5 477.3 200 477.7 199.6 478 199.3 478.4 199.3 478.6 199.6 478.9 199.8 478.9 200.2 478.6 200.5 478.3 200.9 478 201.3 477.7 201.7 477.1 203 476.9 204.5 477.3 206 477.4 206.3 477.2 206.6 477 206.8 476.9 206.8 476.9 206.8 476.8 206.8ZM487.8 199.3C486 198.5 483.7 198.3 481.8 198.8 481.4 198.8 481.1 198.6 481 198.3 480.9 197.9 481.1 197.6 481.4 197.5 483.7 196.9 486.2 197.2 488.3 198.1 488.7 198.3 488.8 198.7 488.7 199 488.6 199.1 488.5 199.2 488.4 199.3 488.2 199.4 488 199.4 487.8 199.3Z" class="b"/><path d="M492 255.5C492.2 255.4 492.4 255 492.3 254.7 492.2 254.4 491.8 254.2 491.5 254.3 490.5 254.6 489.4 254.8 488.4 254.8 488 254.8 487.8 255.1 487.8 255.5 487.8 255.9 488.1 256.1 488.5 256.1 489.6 256.1 490.7 255.9 491.8 255.6 491.9 255.5 491.9 255.5 492 255.5Z" class="b"/><path d="M356.1 113.9H318.5V165.4H356.1V113.9Z" class="b"/><path d="M356.1 165.3C356.1 164.8 356.1 164.4 356.1 163.9 356.1 153 347.7 144.1 337.3 144.1 327 144.1 318.6 153 318.6 163.9 318.6 164.4 318.6 164.8 318.6 165.3H356.1Z" class="h"/><path d="M339.8 143.2C345.7 141.8 349.3 136 347.9 130.1 346.5 124.3 340.7 120.6 334.8 122 329 123.4 325.4 129.3 326.8 135.1 328.1 141 334 144.6 339.8 143.2Z" class="h"/><path d="M420.9 129.8H371.7C370.2 129.8 369 128.6 369 127.1 369 125.6 370.2 124.4 371.7 124.4H420.9C422.4 124.4 423.6 125.6 423.6 127.1 423.6 128.6 422.4 129.8 420.9 129.8Z" class="d"/><path d="M420.9 140.5H371.7C370.2 140.5 369 139.3 369 137.8 369 136.4 370.2 135.2 371.7 135.2H420.9C422.4 135.2 423.6 136.4 423.6 137.8 423.6 139.3 422.4 140.5 420.9 140.5Z" class="b"/><path d="M420.9 151.2H371.7C370.2 151.2 369 150 369 148.6 369 147.1 370.2 145.9 371.7 145.9H420.9C422.4 145.9 423.6 147.1 423.6 148.6 423.6 150 422.4 151.2 420.9 151.2Z" class="b"/><path d="M345.9 226.9H319.2V250.5H345.9V226.9Z" class="g"/><path d="M384.7 226.9H358V250.5H384.7V226.9Z" class="b"/><path d="M423.6 226.9H396.9V250.5H423.6V226.9Z" class="d"/><path d="M295.6 328.9C295.6 328.9 296.4 330.1 300.5 331.1 301.4 331.3 302.4 331.5 302.4 333 300.5 333 298.4 333 298.4 333L294.3 332.3V333H292.1C292.1 333 291.4 329.3 292.7 328.9 293.9 328.9 295.6 328.9 295.6 328.9Z" class="i"/><path d="M295.8 326.3L295.6 328.9C294.8 329.4 293.7 329.5 292.9 329L292.7 328.9V326.3H295.8Z" class="j"/><path d="M275.1 329.4C275.1 329.4 275.9 330.6 280 331.6 280.9 331.8 281.8 332 281.8 333.5 279.9 333.5 277.8 333.5 277.8 333.5L273.7 332.8V333.5H271.5C271.5 333.5 270.9 329.9 272.2 329.4 273.4 329.4 275.1 329.4 275.1 329.4Z" class="i"/><path d="M275.3 326.8L275.1 329.4C274.2 330 273.2 330 272.3 329.5L272.2 329.4V326.8H275.3Z" class="j"/><path d="M297.4 262.5L296.4 327.7H291.7C291.7 327.7 284.4 275 286 262.5 287.5 249.9 297.4 262.5 297.4 262.5Z" class="i"/><path d="M292.4 262.4C292.4 262.4 290.8 282.5 287 293.6 283.2 304.7 276.3 327.7 276.3 327.7H271.4C271.4 327.7 279.6 279.6 277.7 262.4H292.4Z" class="i"/><path d="M296.7 229.2C296.7 229.2 302.5 242.9 304 242.9 305.2 242.9 303.6 231.8 303.6 231.8H308.5C308.5 231.8 314.7 250.9 309.7 254.4 304.8 257.9 294.1 244.5 294.1 244.5L296.7 229.2Z" class="d"/><path d="M279.2 264.2L281 268.6C281.9 270.3 285 270.3 287.1 269.8 287.4 269.7 287.5 269.3 287.3 269.1 286.1 267.8 283.2 264.6 282.1 263.9L279.2 264.2Z" class="j"/><path d="M294.1 226.4C294.1 226.4 297.1 228.5 297.1 230.9 297.1 233.3 297.1 262.4 297.1 262.4H279.2V232.9C279.2 232.9 279.6 226.4 286 226.4 292.4 226.4 294.1 226.4 294.1 226.4Z" class="d"/><path d="M296.8 262.5V234.1L297.4 234.1V262.5H296.8Z" class="k"/><path d="M287.6 219.4V226.8C287.6 226.8 288.8 228.5 291 228.5 293.3 228.5 293.3 226.9 293.3 226.9V222.1L290 221.3 287.6 219.4Z" class="j"/><path d="M293.6 223.5C294.3 223.5 294.9 223.4 295.2 223.1 297.2 220 295 211.4 295 211.4L287.7 212.7 287.5 218.4C287.5 220 288.1 221.4 289.3 222.4 290.6 223.2 292.1 223.6 293.6 223.5Z" class="j"/><path d="M291.1 212.9C291.1 212.9 293.5 213.3 296 212.9 298.6 212.4 297 209.6 297 209.6 297 209.6 295.1 210.5 291.8 210 289.6 209.7 289 209.2 287.5 210 285.6 211 286 214.6 286 214.6L287.1 222H287.5C287.5 222 287.6 217.6 287.6 216.1 288 215.4 288.5 215.4 288.8 215.6 289.2 215.8 289.4 216.2 289.4 216.6V224.3C289.4 224.3 294.4 226.4 295.6 226.1 296.9 225.7 296 219.9 296 219.9 296 219.9 294.6 219.3 293.5 220.6 292.4 221.8 291 220.5 291 220.5L291.1 212.9Z" class="i"/><path d="M307.5 231.7L307.4 230.8C307 228.7 305 226.1 303 225.4H300.9L301.6 229.9 304.5 231.7H307.5Z" class="j"/><path d="M288.2 215.4C288.8 215.3 289.3 215.8 289.4 216.5 289.5 217.2 289.1 217.8 288.6 217.9 288 217.9 287.5 217.4 287.4 216.7 287.3 216 287.7 215.4 288.2 215.4Z" class="j"/><path d="M302.4 229.4L306.5 231.8C306.5 231.8 303.9 231.7 303.9 231.8L299.6 228.2C299.6 228.2 299.9 227.5 300.9 228.1 301.8 228.6 302.4 229.4 302.4 229.4Z" class="j"/><path d="M281.1 228.3C281.1 228.3 271 239.6 271 246.3 271 253.1 279.2 265 279.2 265L283.3 263.8C283.3 263.8 279.6 249.1 279.6 245.2 279.6 241.3 287.1 235.5 287.1 235.5" class="d"/><path d="M279.9 245.2C279.9 248.5 282.9 260.9 283.6 263.7 283.4 263.8 283.3 263.8 283 263.9 282.1 260.3 279.3 248.5 279.3 245.2 279.3 241.1 286.6 235.5 287 235.3L287.3 235.7C287.2 235.8 279.9 241.4 279.9 245.2Z" class="k"/><path d="M299.7 222C299.7 222 298.9 226.4 301.6 229.9 301.7 230.1 302 230.3 302.3 230.3 302.9 230.4 303.4 230.2 303.7 230.1 304.2 229.9 304.4 229.7 304.6 229.5 304.7 229.3 304.6 229.1 304.5 228.9 304 228.1 302.3 225.3 303 222.8 301.6 221.6 299.7 222 299.7 222Z" class="l"/><path d="M304.1 229.9C304.4 229.8 304.5 229.7 304.6 229.5 304.7 229.3 304.6 229.1 304.5 228.9 303.9 228.1 302.3 225.3 303 222.8 302.5 222.4 302 222.2 301.4 222.1 301.4 224.8 301.9 226.6 304.1 229.9Z" class="m"/><path d="M302.1 225.6C302.2 226.2 302.5 226.7 302.8 226.7 303 226.6 303.1 226.1 303 225.4 302.9 224.8 302.6 224.4 302.3 224.4 302.1 224.5 302 225 302.1 225.6Z" class="l"/><path d="M302.3 224.4L302.5 224.4 302.5 224.5 302.3 224.6 302.3 224.4Z" class="l"/><path d="M302.7 226.7L303 226.6 302.7 226.6 302.7 226.7Z" fill="#E8375E"/><path d="M302.3 225.6C302.4 226.2 302.7 226.7 303 226.6 303.2 226.6 303.3 226 303.2 225.4 303.1 224.8 302.8 224.3 302.5 224.4 302.3 224.4 302.2 225 302.3 225.6Z" class="c"/><path d="M298.6 218.4H298.1C297.2 218.4 296.5 219.1 296.5 219.9V221.2C296.5 222.1 297.2 222.8 298.1 222.8H298.6V218.4Z" class="c"/><path d="M313.3 219.6C313.3 223.1 312.5 225.8 311.5 225.8 310.5 225.8 309.7 223 309.7 219.6 309.7 216.2 310.5 213.4 311.5 213.4 312.5 213.4 313.3 216.2 313.3 219.6Z" class="i"/><path d="M309.7 217.3L311.1 218.2V220.2L309.6 221.5 309.1 218.9 309.7 217.3Z" class="a"/><path d="M309.7 219.6C309.7 216.7 310.3 214.3 311.1 213.6 305.2 217.8 298.3 218.4 298.3 218.4V222.8C298.3 222.8 307.6 222.3 311.1 225.6 311.1 225.6 311.1 225.6 311.1 225.6 310.3 224.9 309.7 222.5 309.7 219.6Z" class="n"/><path d="M311.3 219.2C311.3 219.8 311.2 220.2 311.1 220.2 311 220.2 310.9 219.8 310.9 219.2 310.9 218.7 311 218.2 311.1 218.2 311.2 218.2 311.3 218.7 311.3 219.2Z" class="c"/><path d="M305.3 228.5C305.2 228.6 304.6 228.9 303 228.9 301.8 228.9 301.3 227.4 301.1 226.6 301 226.4 301 226 301.3 225.8L303.2 225.5 305.3 228.5Z" class="j"/><path d="M417 257.5L404.4 275.4 408.7 276.9 420.7 268.2 420.2 262.1 417 257.5Z" class="j"/><path d="M419.7 249C414 253 418.4 288.1 418.4 288.1L441.2 283.7C441.2 283.7 439.4 248.1 419.7 249Z" class="d"/><path d="M422.6 249.1L420.4 245.8 416.5 247.9 417.8 252.2C417.9 252.2 417.9 252.3 417.9 252.3 419.2 250.9 420.9 249.8 422.6 249.1Z" class="j"/><path d="M420 238L421.1 244C420.5 244.1 420.3 244.8 420.5 245.4 420.5 245.5 420.5 245.7 420.5 245.8 419.7 246.8 418 248.2 415.5 248.3 411.6 248.5 412.1 240.6 412.1 240.6L420 238Z" class="j"/><path d="M422.9 242C422.9 241.6 423.2 240.5 423.5 240.1 425.2 237.8 423 236.9 422.2 236.6 421.3 236.3 421.2 234.9 420 234.4 418.3 233.6 417.1 235.1 416.1 235.1 415.1 235.2 414.3 234.1 413 235 411.8 236 412.2 237.1 411.9 237.6 411.5 238.2 410.4 237.1 409.4 238.9 407.9 241.6 412.1 241.6 412.1 241.6 412.1 241.6 414.5 242 417.2 240.1 417.5 239.9 418 239.9 418.4 240.1 419.3 240.9 420.5 245.9 420.5 245.9L421.2 244.9C421.2 244.9 423.3 244 422.9 242Z" class="i"/><path d="M420.8 243C420.7 243.5 420.2 243.9 419.7 243.8 419.2 243.7 418.8 243.2 418.9 242.7 419 242.2 419.5 241.9 420 241.9 420.5 242 420.9 242.5 420.8 243Z" class="j"/><path d="M461.4 324.7C461.4 324.7 463.2 326.7 464.3 331.1 464.6 332.1 464.2 333.1 465.8 333.1 465.8 331.1 465.8 327.7 465.8 327.7L465.1 323.3H465.8V320.8C465.8 320.8 461.9 320.2 461.4 321.6 461.4 322.9 461.4 324.7 461.4 324.7Z" class="i"/><path d="M458.5 324.2L461.4 324.7C462 323.8 462 322.7 461.5 321.7L461.4 321.6 458.5 320.9V324.2Z" class="j"/><path d="M424.3 345.8C424.3 345.8 424.3 348.8 418.2 350.6 417 351 417.4 351.4 417.1 351.9 419.1 351.9 424.1 351.9 424.1 351.9L426.9 348.8 427.7 349.5 429.7 347.6C429.7 347.6 428.8 344.8 427.2 344.8 426 345.2 424.3 345.8 424.3 345.8Z" class="i"/><path d="M423.2 343.2L424.3 345.8C425.3 346.1 426.4 345.7 427.1 344.9L427.3 344.8 426.3 342.1 423.2 343.2Z" class="j"/><path d="M440.7 291.5C440.7 291.5 440.4 300.5 437 308.3 435.9 310.7 437.3 313.5 439.9 314 452.3 316.6 459.3 320.8 459.3 320.8V325.1L430.4 321.1C425.7 320.5 422.1 316.8 421.6 312.1L420.7 303.1 440.7 291.5Z" class="i"/><path d="M419.8 290.2C419.8 290.2 409.8 309 409.8 314.8 409.8 320.6 423.3 343.3 423.3 343.3H427.1C427.1 343.3 426.5 328.9 423.9 317 423.3 314.7 424.1 312.2 425.8 310.6 434 302.9 441.2 290.2 441.2 290.2H419.8Z" class="h"/><path d="M361.2 268.5C360.4 270.6 361.6 270.3 363.7 273.7L473 311C475.1 311.7 477.4 310.6 478.1 308.5L480.5 301.5C481.2 299.4 480.1 297.1 478 296.3L368.7 259C366.6 258.3 366.6 261.6 365.9 263.8L361.2 268.5Z" class="c"/><path d="M479.2 305.4L478.1 308.5C477.4 310.6 475.1 311.7 473 311L363.7 273.7C361.6 272.9 362.2 265.4 362.2 265.4L479.2 305.4Z" class="m"/><path d="M462.7 303.2L465.1 296.2C465.8 294.1 468.1 293 470.3 293.7L478 296.3C480.1 297.1 481.2 299.4 480.5 301.5L479.2 305.4 478.1 308.5C477.4 310.6 475.1 311.7 473 311L465.2 308.4C463.1 307.6 462 305.3 462.7 303.2Z" class="h"/><path d="M464.1 308L458.7 306.1 463.7 291.5 469.1 293.3 464.1 308Z" fill="url(#paint6_linear)"/><path d="M355.8 261.6L352.3 261.9 355 264.3 356.4 263.4 355.8 261.6Z" class="i"/><path d="M355 264.3C355.3 264 355.5 263.6 355.7 263.2 355.7 263.1 355.7 263.1 355.7 263 355.8 262.8 355.8 262.6 355.8 262.3 355.8 262.3 355.8 262.3 355.8 262.3 355.8 262.2 355.8 262.1 355.8 262 355.8 261.9 355.8 261.7 355.8 261.6L368.2 258.8 365.6 266.4 363.2 273.5 355 264.3Z" class="n"/><path d="M435.7 260.7L427.8 265.6 433.5 272.1 434.3 290.7 437.4 290.1C437.4 290.1 442.2 275.8 441.2 270.8 440.3 265.9 435.7 260.7 435.7 260.7Z" class="j"/><path d="M434.3 290.7L434.3 294.4C434.3 295 434.5 295.6 434.8 296.1 435.5 297 436.6 298.4 437.6 298.2 439.1 297.9 440.9 294.4 440.9 294.4L437.4 290.1 434.3 290.7Z" class="j"/><path d="M191.6 169.8L192.2 173C191.2 173.7 189.9 173.7 188.9 173.1L188.7 173 187.9 169.8H191.6Z" class="j"/><path d="M166.4 97C169.2 106.3 178.6 120.4 178.6 120.4L171.2 117.4 165.9 105.3C165.9 105.3 163.6 87.8 166.4 97Z" class="n"/><path d="M186.5 134.1L192.4 170.1H187.2C187.2 170.1 175.5 137.7 174.3 128.2 174.3 122.8 186.1 128.2 186.1 128.2L186.5 134.1Z" class="i"/><path d="M167.2 82.5L165.3 87.5 161.1 84.5 163.9 78.5 167.2 82.5Z" class="j"/><path d="M168.8 83.3C169.4 83.4 170 83.5 170.4 83.3 172.8 80.9 172.3 73.2 172.3 73.2L169.5 71.3 165.3 72.9 164 77.7C163.7 79 164 80.4 165 81.5 166 82.4 167.4 83.1 168.8 83.3Z" class="j"/><path d="M166 74.5C166.4 73.7 167.3 73.4 168.1 73.7 168.7 73.9 169.4 74.1 170.1 74.3 171.8 74.6 174.9 74.6 175.5 72 176 69.5 172.7 69.7 172.7 69.7L168.3 70C166.9 70.1 165.6 69.8 164.4 69.3 163.4 68.8 162.4 69.8 162.2 70.5 161.7 71.9 162.2 74.4 162.7 76 162.9 76.9 163.3 77.8 163.9 78.5L166 74.5Z" class="i"/><path d="M163.5 75.6C164 75.4 164.6 75.6 165.1 76.1 165.5 76.6 165.4 77.2 165 77.5 164.5 77.7 163.9 77.5 163.4 77 163 76.5 163.1 75.9 163.5 75.6Z" class="j"/><path d="M192.3 172.7C192.3 172.7 192.3 176 199 178 200.4 178.4 199.9 178.8 200.2 179.4 198 179.4 192.4 179.4 192.4 179.4L189.4 176 188.5 176.8 186.3 174.7C186.3 174.7 186.7 171.6 188.3 171.5 189.7 172 192.3 172.7 192.3 172.7Z" class="i"/><path d="M173.2 168.9L171.9 171.8C170.8 172.1 169.5 171.7 168.8 170.8L168.6 170.6 169.6 167.7 173.2 168.9Z" class="j"/><path d="M166.2 86.1C166.2 86.1 166.7 85.3 162 82.8 154.8 90 152.4 117.4 152.4 117.4 152.4 117.4 169.2 117.4 171.2 117.4 171.8 101.7 166.2 86.1 166.2 86.1Z" class="e"/><path d="M184.7 116.7C184.8 116.3 184.6 115.9 184.3 115.8L181.2 114C180.5 113.5 179.6 113.4 178.7 113.6L175.4 113.7 175 114.2 174.3 117.2C175 117 175.4 116.9 175.4 116.9L177.5 117C177.5 117 181.4 120.6 183.4 117.4 183.5 120.9 184.5 120.6 184.5 120.6L184.7 116.7Z" class="j"/><path d="M152.4 117.4L152.2 119.7C152.2 119.7 152.2 119.8 152.2 119.8 151.7 124.2 154.6 128.4 158.9 129.6 158.9 129.6 167.4 132.4 178.2 133 171.1 142 169.1 167.5 169.1 167.5L173.7 169.1 191.3 127.3C192.4 124.6 190.8 121.6 188 120.9L171.2 117.4H152.4V117.4Z" class="f"/><path d="M164.2 95C164.2 95 160.7 98.2 158.6 101.5 158 102.4 158.1 103.6 158.8 104.4 162.7 108.9 176.6 113.2 176.6 113.2L175.7 118.3C175.7 118.3 156 114.4 149 107.4 141.9 100.2 160.4 85.2 160.4 85.2" class="e"/><path d="M158.8 101.7C158.3 102.5 158.4 103.5 159 104.2 160.8 106.3 165.6 108.5 169.7 110.1 169.7 110.3 169.7 110.3 169.7 110.6 165.4 109 160.6 106.8 158.6 104.6 157.8 103.7 157.7 102.4 158.4 101.4 160.4 98.1 163.9 94.9 164 94.8L164.3 95.2C164.3 95.3 160.9 98.5 158.8 101.7Z" class="d"/><path d="M153.1 110.2C160.7 114.3 171.8 117.2 175.8 118.1 175.7 118.3 175.7 118.5 175.7 118.6 171.8 117.8 160.8 115 153.1 110.9 153.1 110.6 153.1 110.4 153.1 110.2Z" class="d"/><path d="M192.1 122.8L197.9 101.9 196.8 101.6 191.3 121.5 174.5 118.6 174.3 119.7 192.1 122.8Z" class="d"/><path d="M172.2 171.1C172.2 171.1 171.9 174.5 178.6 176.5 180 176.9 179.6 177.3 179.8 177.9 177.6 177.9 172.1 177.9 172.1 177.9L169.1 174.5 168.1 175.3 165.9 173.2C165.9 173.2 167 170.1 168.6 170 170 170.5 172.2 171.1 172.2 171.1Z" class="i"/><path d="M243.1 201.7L235.2 222.3 230.2 218.6 241.3 199.9 243.1 201.7Z" class="j"/><path d="M242.1 195.5C241.6 196.1 241.4 196.9 241.4 197.6L241.1 200.6 241.5 201.1 242.9 202.3C242.8 201.7 242.7 202.3 242.7 202.3L245 198.4C245 198.4 247.7 196.7 244.3 194.1 244 193.9 243.5 193.8 243.2 194 242.3 194.6 242.1 195.5 242.1 195.5Z" class="j"/><path d="M225.7 237.2C231.3 229.6 235.2 222.3 235.2 222.3L230.9 217.5 225.7 223.6V237.2Z" class="e"/><path d="M213.3 326.6L215.8 327.1C216.4 323.9 224.2 309.2 224.8 301.5 225.5 293 227.5 283.5 227.5 283.5L219.1 281C219.1 281 217 281 219.3 298.4 214.1 305.2 212.6 320.9 213.3 326.6Z" class="j"/><path d="M219.5 274.7C219.5 274.7 221.5 286.5 224.2 299.2 221.4 306.9 225.7 328.3 225.8 328.3 226.2 327.9 227.7 329.8 227.7 329.8 227.7 329.8 230.9 310.9 231.6 302.4 232.3 293.9 232.4 283.5 232.4 283.5L219.5 274.7Z" class="j"/><path d="M225.5 327.1C225.5 327.1 224.3 328.1 224.5 329.4 224.7 330.7 225 333.7 225 333.7H226.3L226.2 330.9C226.2 330.7 228.9 333.7 229.3 333.7H235.8C235.8 333.7 236.2 331.8 232.4 331.2 228.6 330.6 225.5 327.1 225.5 327.1Z" class="h"/><path d="M216.1 324.9L216 327.6C215.9 328.2 216.1 328.7 216.4 329.2 216.8 329.7 217.4 330.4 218.4 331.2 216.5 331.9 214.8 329.7 213.9 328.3 213.4 327.6 213.3 326.8 213.4 326L213.7 323.9 216.1 324.9Z" class="j"/><path d="M213.3 326.4C213.3 326.4 211.7 326.5 211.4 327.8 211.1 329.1 210.3 331.6 210.3 331.6L211.2 332.3 212.5 329.8C212.5 329.8 215.3 333.5 215.7 333.7H222.8C222.8 333.7 222.8 331.3 218.4 331.2 214.3 331.1 213.3 326.4 213.3 326.4Z" class="i"/><path d="M227.5 226.4H222.4L224.5 220.4 228.4 222.8 227.5 226.4Z" class="j"/><path d="M261.1 148.2L246.5 185.7 253.3 188.4 267.9 150.8 261.1 148.2Z" class="b"/><path d="M247.8 186.3L247.6 186.2C247.6 186.2 260 150.8 262.2 148.6 264.4 146.4 268.8 145.2 264.6 149.5 260.3 153.9 247.8 186.3 247.8 186.3Z" style="fill:white;opacity:0.3"/><path d="M264.8 64.6C273.4 64.5 282 64.3 290.6 65.4 292 65.5 297.8 65.7 293.9 65.7 294.9 66 295.9 66.3 296.9 66.7 300 69 302.7 71.8 306.1 73.8 309.2 75.7 312.5 77.1 315.8 78 326.8 90.8 330.6 109 324.1 125.8 316.1 146.2 295.5 157.8 274.7 155.3 273.2 154.3 271.5 153.5 269.7 152.9 269.1 152.5 268.5 152.3 267.9 152.1 265.5 150.7 263.1 149.3 260.6 148.3 257.9 147.2 255.2 146.6 252.4 146.4 235.9 134.1 228.9 111.9 236.7 91.8 241.8 78.5 252.3 69 264.8 64.6Z" class="b"/><path d="M281.1 154.3C278.1 152.6 274.8 151.6 271.3 151.3 269 151.3 266.7 151.1 264.4 150.8 264.3 150.7 264.2 150.7 264.1 150.7L297.3 65.2C319.5 75.6 330.1 101.5 321.1 124.6 314.4 141.9 298.5 153 281.1 154.3Z" class="g"/><path d="M236.7 91.8C227.3 115.9 239.2 143.1 263.4 152.4 287.5 161.8 314.7 149.9 324.1 125.8 333.5 101.6 321.5 74.5 297.4 65.1 273.2 55.7 246.1 67.6 236.7 91.8ZM241.6 93.7C249.9 72.2 274.1 61.6 295.5 70 316.9 78.3 327.5 102.4 319.2 123.8 310.8 145.3 286.7 155.9 265.3 147.5 243.9 139.2 233.3 115.1 241.6 93.7Z" class="i"/><path d="M232.5 223.8L248.6 175.8C249 174.6 250.3 174 251.4 174.5L257.2 176.7C258.3 177.1 258.9 178.5 258.4 179.7L245.5 212.7C243.6 209.7 236.6 224.7 232.5 223.8Z" class="d"/><path d="M227.1 228.5L248.6 175.9C249 174.7 250.1 174.1 251.2 174.4 251.1 175.5 237.5 215.3 231.9 232.6 230.7 232 228.6 228.8 227.1 228.5Z" class="e"/><path d="M272.3 89.4C271.1 92.5 267.6 94.1 264.5 92.9 261.4 91.7 259.8 88.2 261 85.1 262.2 82 265.7 80.4 268.9 81.6 272 82.8 273.5 86.3 272.3 89.4Z" class="a"/><path d="M260.4 96.5C259.9 98 258.2 98.8 256.7 98.2 255.2 97.6 254.5 95.9 255.1 94.5 255.7 93 257.3 92.2 258.8 92.8 260.3 93.4 261 95.1 260.4 96.5Z" class="a"/><path d="M234.3 232.8C234.2 232.7 234.2 232.5 234.2 232.4 239.2 225.9 243.5 221.3 243.5 221.3L239.2 216.5 229.5 225.7 226.6 225.7C226.6 225.7 222.8 223.2 219.4 226.6 218.2 227.9 217.3 231.4 218.2 235 220.4 245 218.7 250.3 218.7 250.3L231.8 255.2C231.8 255.2 232.1 246.5 232.3 240.4 232.3 240.4 232.3 240.4 232.3 240.4 232.3 239.2 232.7 238 233.3 237 234.1 235.8 234.5 234.4 234.3 232.8Z" class="b"/><path d="M251.4 200.7L243.5 221.3 238.5 217.6 249.6 198.9 251.4 200.7Z" class="j"/><path d="M250.4 194.5C249.9 195.1 249.7 195.9 249.7 196.6L249.3 199.6 249.8 200.1 251.2 201.3C251.1 200.7 251 201.3 251 201.3L253.3 197.4C253.3 197.4 256 195.7 252.6 193.1 252.2 192.9 251.8 192.8 251.4 193 250.6 193.6 250.4 194.5 250.4 194.5Z" class="j"/><path d="M232.1 250C232.1 250 233.8 258.9 233.8 264.2 233.8 267.1 233.1 285.4 233.1 285.4 233.1 285.4 220.6 286.3 218.2 286.3 217.6 271.3 214.2 270.9 214.2 263.9 214.2 260.8 215.7 257.4 216.9 255.2 217.8 253.6 218.3 252.5 218.7 250.3L218.8 250 232.1 250Z" class="c"/><path d="M229.3 209.7L221 212.6 221.8 218.8C221.8 218.9 221.8 219 221.8 219.1 222 219.1 222.1 219.1 222.3 219.2 222.3 219.2 222.4 219.2 222.4 219.2 222.4 219.2 222.4 219.2 222.5 219.2 224.4 219.7 225.8 221.3 226.4 223.1 227.6 223.3 228.8 223.3 230 223.1 230.8 222.9 231.5 222.6 231.9 222.2 233.6 218.4 229.3 209.7 229.3 209.7Z" class="j"/><path d="M229.1 215C226.9 216.1 227.4 227.6 227 235.5 226.8 239.7 223.6 243.2 219.4 243.9 216.5 244.4 213.2 244.4 211.2 243.3 212.5 242.3 219.5 231.9 217.3 218.3 217 216.5 217 211.5 220 208.7 223.4 205.7 230.3 209.7 230.3 209.7 230.3 209.7 232.2 213.5 229.1 215Z" class="i"/><path d="M153.1 349.3L162.9 349.3C164.2 349.4 165.7 349.8 165.9 350.9 165.9 350.9 166.1 351.7 166.1 352.4 165.7 352.8 152.7 352.4 152.7 352.4L152.7 352.3C151.3 350.6 153.1 349.3 153.1 349.3Z" class="f"/><path d="M166.1 352.4L152.7 352.3 152.8 352.9H166.1L166.1 352.4Z" class="i"/><path d="M157 349.3H157.9L157.6 350.5H156.8L157 349.3Z" class="a"/><path d="M158.9 349.3H159.8L159.5 350.5H158.7L158.9 349.3Z" class="a"/><path d="M152.5 346L153.1 349.3C153.9 349.7 154.9 349.7 155.8 349.3L155.9 349.3 156.4 346H152.5V346Z" class="j"/><path d="M130.2 349.3L140 349.3C141.3 349.4 142.8 349.8 143 350.9 143 350.9 143.2 351.7 143.1 352.4 142.8 352.8 129.8 352.4 129.8 352.4L129.7 352.3C128.4 350.6 130.2 349.3 130.2 349.3Z" class="i"/><path d="M143.1 352.4L129.8 352.3 129.9 352.9H143.2L143.1 352.4Z" class="i"/><path d="M134.1 349.3H135L134.7 350.5H133.8L134.1 349.3Z" class="a"/><path d="M136 349.3H136.9L136.6 350.5H135.7L136 349.3Z" class="a"/><path d="M130.6 346L130.2 349.3C131 349.7 132 349.7 132.8 349.3L133 349.3 134.5 346H130.6V346Z" class="j"/><path d="M145.3 236.1L137.2 241.3 139.7 247.7C139.7 247.8 139.8 247.9 139.8 248 140 248 140.1 248 140.3 248 140.4 248 140.4 248 140.4 248 140.4 248 140.5 248 140.5 248 142.7 248 144.5 249.3 145.6 251.1 147 251 148.3 250.7 149.5 250.1 150.3 249.7 151 249.2 151.3 248.7 152.1 244.2 145.3 236.1 145.3 236.1Z" class="j"/><path d="M155.5 237.7C155.5 237.7 156.5 247.1 154.5 253.1 155.5 253.9 158.9 257.5 159.9 252.8 161 248.1 158.7 236.1 158.7 236.1L155.5 237.7Z" class="j"/><path d="M150.7 237.1L148.8 238.3 149.5 239.7 151.5 238.8 150.7 237.1Z" class="i"/><path d="M149.6 238.8C149.8 239.2 149.8 239.6 149.6 239.7 149.4 239.8 149.1 239.5 148.9 239 148.8 238.6 148.7 238.2 148.9 238.1 149.1 238 149.4 238.3 149.6 238.8Z" class="i"/><path d="M173.6 230.1C173.6 230.1 173.6 230.1 173.6 230.1 173.3 229.3 172.7 228 171.8 226.8 170.4 224.9 170 223.9 170 223.9L150.4 236.8 151.7 239.2 173.6 231C173.6 230.7 173.6 230.4 173.6 230.1Z" class="c"/><path d="M143.5 251.1L142.8 255.5H149L149.5 250.1 143.5 251.1Z" class="j"/><path d="M159.6 262C159.6 262 167 259.7 169.3 256.5 171.6 253.4 167.7 236.1 167.7 236.1L168.2 233C168.5 231.2 167.2 229.6 165.4 229.6L163.4 229.6C162.6 229.6 162 230.4 162.4 231.2L165 237C165 237 166.9 250.1 164.2 251.1 160.9 252.3 157.3 252.5 157.3 252.5L159.6 262Z" class="j"/><path d="M145.7 251.1L143.8 246.9 145.1 246.1C146 245.5 146.4 244.4 146 243.4L144.7 239.4C144.7 239.4 148.5 239 148.4 235.4 148.4 233.5 145.9 233.5 145.9 233.5 145.9 233.5 145.1 235.2 142.8 235.4 141.8 235.2 139 235.6 137.1 238.9 135.8 241.1 136.4 244.5 137.5 247.1 138.5 249.4 141 250.7 143.5 251.1H145.7V251.1Z" class="i"/><path d="M138.2 286.5C138.2 286.5 138.6 295.4 140.6 305.2 141.1 308 140.9 311 140 313.8 135.6 326.9 129.4 346.6 129.4 346.6H134.9C134.9 346.6 147.4 323.3 150.6 311.7 153.8 300.2 154.3 296.5 154.3 296.5L150.5 286.5H138.2V286.5Z" class="i"/><path d="M142.8 244.9C142.6 245.6 143.1 246.5 143.8 246.9 144.6 247.3 145.5 247.1 145.7 246.4 145.9 245.8 145.5 244.9 144.7 244.5 143.9 244.1 143.1 244.3 142.8 244.9Z" class="j"/><path d="M156.2 286.5H138.2V263.5C138.2 258.4 142.1 254.2 147.1 253.8L159.6 252.3C159.6 252.3 161 254.5 165.1 259.7 160.2 262.7 154.5 264.1 154.5 264.1L156.2 286.5Z" class="d"/><path d="M138.2 286.5C138.2 286.5 140.8 295.6 150.1 305.9 151.7 307.4 153.9 310.7 153.6 315.2L151.7 346.6H157.2C157.2 346.6 164 320.6 162.6 307.7 161.1 294.9 156.2 286.5 156.2 286.5H138.2V286.5Z" class="f"/><path d="M170.6 228C171.6 230 172.9 231.4 173.5 231.1 174.2 230.8 173.9 228.9 173 226.9 172 224.9 170.7 223.5 170.1 223.8 169.4 224.1 169.7 226 170.6 228Z" class="a"/><path d="M154.8 233.9L154.9 234C155.5 234.3 156.2 234.3 156.8 234.1L156.9 234.1C157.9 233.7 158.7 232.9 159 231.9 159.2 231.5 158.8 231 158.3 231.1L157.1 231.4C156.6 231.5 156.2 231.8 155.9 232.2L154.8 233.9Z" class="j"/></g><defs><linearGradient x1="362.5" y1="95.4" x2="95.8" y2="95.4" gradientUnits="userSpaceOnUse"><stop stop-color="#E0F0EB"/><stop offset="1" stop-color="#C0E4EF"/></linearGradient><linearGradient x1="158.6" y1="44.8" x2="201.6" y2="42.7" gradientUnits="userSpaceOnUse"><stop offset="6.3e-07" stop-color="#F1F8F8"/><stop offset="1" stop-color="#C0E4EF"/></linearGradient><linearGradient x1="149.9" y1="46.5" x2="201.4" y2="43.9" gradientUnits="userSpaceOnUse"><stop offset="6.3e-07" stop-color="#F1F8F8"/><stop offset="1" stop-color="#C0E4EF"/></linearGradient><linearGradient x1="362.4" y1="93.5" x2="355.8" y2="337.6" gradientUnits="userSpaceOnUse"><stop stop-color="white"/><stop offset="0.1412" stop-color="#E0F0EB"/><stop offset="1" stop-color="#C0E4EF"/></linearGradient><linearGradient x1="471.8" y1="162.8" x2="506.6" y2="162.8" gradientUnits="userSpaceOnUse"><stop offset="6.3e-07" stop-color="#F1F8F8"/><stop offset="1" stop-color="#C0E4EF"/></linearGradient><linearGradient x1="471.8" y1="173.3" x2="499.9" y2="173.3" gradientUnits="userSpaceOnUse"><stop offset="6.3e-07" stop-color="#F1F8F8"/><stop offset="1" stop-color="#C0E4EF"/></linearGradient><linearGradient x1="466.4" y1="292.4" x2="461.4" y2="307" gradientUnits="userSpaceOnUse"><stop stop-color="#E0F0EB"/><stop offset="1" stop-color="#C0E4EF"/></linearGradient><clipPath><rect width="465.3" height="350.5" class="a"/></clipPath></defs></svg>